<?xml version="1.0" standalone="no"?>
<!DOCTYPE svg PUBLIC "-//W3C//DTD SVG 20010904//EN"
 "http://www.w3.org/TR/2001/REC-SVG-20010904/DTD/svg10.dtd">
<svg version="1.0" xmlns="http://www.w3.org/2000/svg"
 width="1024.000000pt" height="1024.000000pt" viewBox="0 0 1024.000000 1024.000000"
 preserveAspectRatio="xMidYMid meet">

<g transform="translate(0.000000,1024.000000) scale(0.100000,-0.100000)"
fill="#000000" stroke="none">
<path d="M1040 9695 l0 -165 93 -1 c50 -1 100 -2 110 -2 14 0 17 -10 17 -68
l0 -69 -110 0 -110 0 0 70 0 70 -258 0 -258 0 4 80 4 80 -206 0 -205 0 -3
-207 c-2 -115 -2 -220 0 -235 l3 -28 130 0 129 0 0 80 0 80 145 0 145 0 0
-3600 0 -3600 -142 0 -143 0 0 -72 0 -73 -72 -3 -73 -3 0 -299 0 -300 145 0
145 0 0 225 0 225 433 -2 432 -3 3 -223 2 -222 140 0 140 0 0 375 0 375 -205
0 -205 0 0 890 0 890 60 0 60 0 0 -420 0 -420 145 0 145 0 0 -80 0 -80 135 0
135 0 0 -319 0 -318 -37 -7 c-21 -3 -50 -6 -65 -6 l-28 0 0 -350 0 -350 185 0
185 0 0 594 0 595 215 1 215 1 0 -686 0 -685 139 0 139 0 -6 925 -5 925 77 0
76 0 0 80 c0 76 1 80 25 86 13 3 45 4 70 2 l45 -3 0 82 0 83 78 1 c124 2 257
6 262 9 3 2 -20 6 -50 10 -48 6 -43 7 43 8 91 2 97 3 97 23 0 11 4 18 8 15 5
-3 8 17 8 44 l-1 49 75 3 75 3 -3 55 c-4 98 -3 100 83 100 l75 0 0 58 0 57
-47 -4 c-25 -2 -124 0 -220 4 l-173 7 0 74 0 74 -160 0 -160 0 0 145 0 146
-137 0 c-76 -1 -170 -1 -210 -1 l-72 -1 -3 78 -3 78 -71 -3 -71 -4 -6 123 c-4
67 -7 175 -7 241 l0 118 -70 0 -70 0 0 75 c0 64 -2 75 -17 76 -10 0 -40 1 -68
2 l-50 2 -3 318 -2 317 48 0 c27 0 90 3 140 6 l92 7 0 78 c0 77 0 77 29 84 16
3 54 5 85 4 l56 -2 0 -54 0 -54 66 2 c77 3 86 -5 80 -71 -6 -69 0 -78 47 -78
23 0 49 -2 57 -4 22 -5 25 253 3 295 -12 25 -13 31 -1 38 7 5 16 9 21 9 4 0 7
4 7 9 0 6 -17 12 -37 14 l-38 4 37 1 c22 1 43 -4 52 -14 9 -8 16 -11 16 -6 0
5 7 9 15 9 8 0 15 -4 15 -9 0 -5 4 -6 10 -3 6 3 10 -1 10 -10 0 -9 5 -13 10
-10 6 3 10 19 10 36 0 27 2 28 20 17 11 -7 20 -19 20 -26 0 -7 -4 -10 -10 -7
-14 9 -12 -5 5 -35 9 -16 14 -54 15 -104 l0 -79 69 7 c43 4 72 2 76 -4 3 -5 6
-82 6 -170 -1 -100 3 -160 9 -160 6 0 10 -7 10 -15 0 -11 11 -15 38 -15 87 0
83 7 80 -169 l-3 -156 -45 -3 c-91 -5 -90 -4 -90 -81 l0 -68 -112 -6 c-62 -4
-130 -7 -150 -7 l-38 0 0 75 0 75 -70 0 c-38 0 -73 0 -77 0 -10 0 -10 -1 -13
-107 -2 -75 -4 -82 -10 -48 -5 22 -6 50 -3 63 5 22 -3 27 -31 16 -21 -8 -20
-22 1 -26 15 -3 15 -4 -1 -20 -17 -17 -16 -18 3 -18 12 0 21 -4 21 -10 0 -5
-4 -10 -10 -10 -5 0 -10 -7 -10 -15 0 -8 -4 -15 -10 -15 -5 0 -10 7 -10 15 0
8 -4 15 -10 15 -5 0 -10 -13 -10 -30 0 -23 4 -30 20 -30 11 0 20 -5 20 -11 0
-6 -9 -8 -20 -4 -17 6 -20 2 -20 -29 0 -36 0 -36 45 -36 l45 0 0 -75 0 -75
220 0 220 0 0 75 0 75 75 0 75 0 0 80 0 80 58 2 c31 0 63 1 70 1 13 -1 15 93
15 552 l0 230 -72 3 -72 3 3 87 3 87 68 3 67 3 0 74 0 75 -219 0 c-201 0 -220
-1 -223 -17 -2 -13 -9 -6 -22 21 -10 21 -16 49 -13 62 3 16 0 24 -10 24 -8 0
-12 4 -9 9 3 5 15 7 26 4 12 -3 20 0 20 6 0 7 -4 10 -9 6 -5 -3 -16 2 -24 10
-10 9 -32 15 -59 14 -24 -1 -35 -3 -25 -6 21 -5 22 -19 3 -26 -20 -8 -28 31
-25 127 l2 81 -76 3 -77 3 0 134 0 135 75 0 75 0 0 -70 0 -70 70 0 70 0 0 120
0 120 70 0 70 0 0 54 c0 69 7 86 34 87 21 0 21 0 -1 9 -39 16 -26 20 39 13 60
-6 62 -5 45 11 -9 10 -22 26 -28 37 -8 16 -13 18 -25 9 -11 -10 -16 -8 -23 11
-9 23 -10 22 -10 -8 -1 -17 -4 -34 -8 -36 -5 -3 -6 18 -4 45 2 34 6 46 12 37
6 -10 9 -10 9 -1 0 8 17 12 49 12 30 0 51 -5 54 -12 3 -7 6 11 6 40 l1 53 83
-3 c81 -3 82 -3 85 -30 3 -26 7 -28 50 -28 98 0 92 11 92 -180 0 -191 6 -180
-92 -180 l-48 0 0 -115 0 -115 64 0 c76 0 74 3 68 -142 l-4 -97 -67 -3 -66 -3
1 -45 c1 -25 2 -60 3 -78 l1 -33 143 3 142 3 1 70 c1 66 3 70 25 73 13 1 43 5
67 8 l42 5 0 460 0 459 -65 0 -65 0 0 70 c0 78 6 72 -85 74 l-50 1 -5 70 -5
70 -72 3 -73 3 -1 57 c-1 31 -4 84 -8 116 l-6 60 -362 0 -363 1 0 -47 0 -48
-75 0 -75 0 0 -75 0 -75 -75 0 -75 0 0 -65 0 -65 -70 0 -70 0 0 -170 0 -169
-35 -7 c-19 -3 -48 -4 -65 -2 -19 3 -31 0 -35 -10 -3 -7 -5 -171 -5 -363 l0
-349 70 0 70 0 0 -160 0 -160 -70 0 -70 0 0 -85 0 -85 -69 0 -69 0 -7 -31 c-4
-17 -4 -69 0 -115 l7 -84 -386 0 -386 0 0 -110 0 -110 -65 0 -65 0 0 235 0
235 60 0 60 0 0 60 c0 40 7 74 19 98 19 37 102 122 120 122 5 0 11 9 14 20 4
17 14 20 71 20 l66 0 0 138 0 139 39 31 c22 18 51 37 65 43 25 12 26 16 26 86
l0 73 70 0 70 0 0 80 0 80 60 0 60 0 0 300 0 300 55 0 55 0 0 691 0 690 -70
-3 -70 -3 0 -182 c0 -139 -3 -183 -12 -184 -7 -1 -37 -1 -65 1 -33 1 -53 -2
-53 -9 0 -6 -5 -11 -11 -11 -5 0 -7 5 -4 10 4 6 -7 10 -24 10 l-31 0 0 -347
c0 -369 9 -461 15 -146 2 103 7 245 11 316 7 126 19 165 27 87 l4 -40 -1 42
c-1 36 -5 43 -26 49 -18 5 -11 7 25 7 28 0 42 -2 33 -5 -23 -6 -11 -33 14 -33
10 0 16 5 13 10 -3 6 0 10 7 10 8 0 14 -10 15 -21 4 -42 22 -39 25 4 2 18 6
23 13 16 6 -6 11 -150 13 -403 2 -347 1 -393 -13 -393 -12 0 -15 15 -15 81 0
45 -5 88 -10 96 -7 11 -10 2 -10 -32 0 -34 -4 -48 -14 -48 -8 0 -16 7 -20 15
-3 8 -11 15 -18 15 -9 0 -9 -3 2 -11 11 -8 12 -12 3 -16 -24 -9 -13 -24 15
-21 25 3 27 1 27 -36 l0 -39 -45 -2 c-25 -1 -78 -6 -117 -10 -57 -6 -73 -5
-73 5 0 10 -3 10 -15 0 -38 -32 -40 -11 -44 610 l-3 600 -69 0 -69 0 1 -657
c1 -362 4 -669 8 -683 7 -27 7 -27 81 -29 l50 -1 0 -300 0 -300 65 0 65 0 0
-80 0 -80 -65 0 -65 0 0 -105 0 -104 -37 -10 c-21 -6 -50 -11 -65 -11 l-28 0
0 -80 0 -79 -67 -3 -68 -3 -3 -112 c-2 -98 -5 -113 -21 -118 -10 -3 -26 -14
-36 -25 -11 -12 -31 -20 -52 -20 l-33 0 0 1645 0 1645 260 0 260 0 0 -105 0
-105 -125 0 -125 0 0 -65 0 -65 320 0 320 0 0 65 0 65 -125 0 -126 0 3 103 3
102 118 3 117 3 0 -81 0 -80 76 0 75 0 -2 78 -2 77 61 3 62 3 0 -81 0 -80 65
0 65 0 0 155 0 155 -65 0 -65 0 0 80 0 80 -225 0 -225 0 0 -80 0 -80 -360 0
-360 0 0 165 0 165 -115 0 -115 0 0 -165z m0 -2250 l0 -1935 -40 0 -40 0 -2
-117 c-3 -111 -5 -201 -7 -267 l-1 -29 -55 6 -55 6 0 -240 0 -239 55 0 55 0 0
-65 0 -65 45 0 45 0 0 -1160 0 -1160 -114 0 -114 0 -4 1337 c-1 736 -1 2356 0
3601 l4 2262 114 0 114 0 0 -1935z m943 1048 c-7 -2 -19 -2 -25 0 -7 3 -2 5
12 5 14 0 19 -2 13 -5z m1177 -835 l0 -58 -61 0 c-52 0 -60 2 -55 16 3 9 6 27
6 40 0 19 5 24 28 25 l27 1 -30 8 c-28 7 -28 8 12 9 25 1 43 -4 46 -11 3 -8 6
-6 6 5 1 9 -7 18 -16 18 -17 1 -17 2 0 6 9 2 17 10 17 16 0 7 4 6 10 -3 5 -8
10 -41 10 -72z m-77 55 c-7 -2 -21 -2 -30 0 -10 3 -4 5 12 5 17 0 24 -2 18 -5z
m-1137 -466 c-6 -350 -2 -318 -32 -284 -19 22 -28 26 -41 18 -10 -6 -14 -11
-9 -11 10 0 -29 -40 -39 -40 -3 0 -5 132 -5 293 l0 292 66 2 65 2 -5 -272z
m1181 -959 c-3 -7 -5 -2 -5 12 0 14 2 19 5 13 2 -7 2 -19 0 -25z m-247 -70 c0
-4 -24 -9 -52 -10 l-53 -1 55 -7 55 -7 -45 -2 c-33 -2 -40 -5 -26 -10 19 -7
19 -8 -2 -13 -15 -4 -22 -2 -22 8 0 8 -6 14 -14 14 -15 0 -16 -16 -2 -39 5 -8
4 -16 -2 -20 -7 -4 -8 -12 -1 -21 8 -13 10 -13 19 0 7 11 8 7 6 -15 -4 -33
-26 -47 -26 -16 0 12 -4 21 -10 21 -6 0 -10 28 -10 65 l0 65 65 -2 c36 -1 65
-5 65 -10z m140 2 c-38 -12 -139 -12 -120 0 8 5 44 9 80 9 48 -1 58 -3 40 -9z
m-143 -46 c-3 -3 -12 -4 -19 -1 -8 3 -5 6 6 6 11 1 17 -2 13 -5z m110 -71 c-3
-10 -5 -2 -5 17 0 19 2 27 5 18 2 -10 2 -26 0 -35z m-513 -74 c2 -23 -1 -58
-5 -78 -5 -27 -7 -15 -8 48 -1 85 10 109 13 30z m513 14 c-3 -10 -5 -4 -5 12
0 17 2 24 5 18 2 -7 2 -21 0 -30z m-897 -577 l0 -63 -37 -7 c-21 -3 -77 -6
-125 -6 l-88 0 0 -65 0 -65 -75 0 -74 0 -3 -72 -3 -73 -78 0 -77 0 0 -507 0
-508 -75 0 -75 0 -2 558 -3 557 -53 0 -52 0 0 83 0 82 130 0 130 0 0 75 0 75
280 0 280 0 0 -64z m246 -397 c1 -16 -2 -29 -7 -29 -5 0 -9 -12 -8 -27 0 -25
1 -26 9 -8 8 18 9 17 9 -7 1 -16 6 -28 11 -28 6 0 10 -56 10 -148 0 -82 3
-151 6 -155 9 -9 29 14 36 40 4 15 2 20 -7 17 -10 -4 -14 27 -17 138 -5 157
-2 178 18 178 8 0 14 5 14 12 0 6 2 9 5 6 3 -3 8 -45 10 -94 3 -49 7 -126 10
-172 5 -68 3 -83 -10 -88 -8 -3 -15 -14 -15 -23 0 -13 2 -13 9 -2 6 9 11 10
15 2 9 -14 -2 -33 -15 -26 -5 4 -9 2 -9 -4 0 -5 10 -11 23 -13 20 -3 22 -9 25
-70 l3 -68 52 2 52 2 -47 3 c-66 6 -60 18 7 17 30 -1 54 -3 53 -5 -1 -2 4 -14
10 -25 7 -14 12 -95 12 -225 l2 -204 -71 -3 c-68 -3 -70 -4 -73 -30 -2 -15 -1
-41 0 -58 l4 -31 135 -6 c75 -4 274 -7 442 -7 l306 0 -5 -67 -5 -68 -77 -3
-78 -3 0 -84 0 -85 -357 -2 c-197 -2 -362 1 -368 5 -5 4 -10 38 -10 75 l0 67
-70 3 c-38 2 -72 6 -74 8 -3 2 -4 38 -3 80 2 65 0 75 -13 70 -8 -3 -15 -1 -15
4 0 5 -13 7 -30 4 -16 -4 -41 -3 -55 0 l-25 6 0 270 c0 161 4 271 10 275 5 3
34 7 65 8 30 1 56 7 56 12 1 6 3 21 5 35 3 14 7 142 10 285 3 143 7 266 10
274 7 21 19 4 20 -30z m144 -39 c0 -13 -1 -13 -10 0 -5 8 -10 22 -10 30 0 13
1 13 10 0 5 -8 10 -22 10 -30z m355 -40 c3 -5 1 -10 -4 -10 -6 0 -11 5 -11 10
0 6 2 10 4 10 3 0 8 -4 11 -10z m-364 -113 c-10 -9 -11 -8 -5 6 3 10 9 15 12
12 3 -3 0 -11 -7 -18z m109 -22 c0 -14 -3 -24 -7 -24 -29 5 -93 -3 -93 -10 0
-6 19 -12 43 -14 33 -3 28 -4 -21 -5 -60 -2 -62 -1 -52 18 8 16 21 20 60 20
28 0 50 5 50 10 0 6 -6 10 -12 10 -9 0 -8 4 2 10 23 15 30 12 30 -15z m-10
-245 c0 -5 -2 -10 -4 -10 -3 0 -8 5 -11 10 -3 6 -1 10 4 10 6 0 11 -4 11 -10z
m17 -42 c-3 -7 -5 -2 -5 12 0 14 2 19 5 13 2 -7 2 -19 0 -25z m-530 -114 c-3
-3 -12 -4 -19 -1 -8 3 -5 6 6 6 11 1 17 -2 13 -5z m840 -41 c-3 -10 -5 -2 -5
17 0 19 2 27 5 18 2 -10 2 -26 0 -35z m-840 21 c-3 -3 -12 -4 -19 -1 -8 3 -5
6 6 6 11 1 17 -2 13 -5z m-20 -176 c-2 -13 -4 -3 -4 22 0 25 2 35 4 23 2 -13
2 -33 0 -45z m-60 -145 c-3 -10 -5 -2 -5 17 0 19 2 27 5 18 2 -10 2 -26 0 -35z
m-30 -55 c-3 -8 -6 -5 -6 6 -1 11 2 17 5 13 3 -3 4 -12 1 -19z m1520 -80 c-3
-8 -6 -5 -6 6 -1 11 2 17 5 13 3 -3 4 -12 1 -19z m-1315 -565 l3 -28 148 -3
147 -3 0 -59 0 -60 -230 0 -230 0 0 90 0 90 79 0 c79 0 80 0 83 -27z"/>
<path d="M1858 7003 c7 -3 16 -2 19 1 4 3 -2 6 -13 5 -11 0 -14 -3 -6 -6z"/>
<path d="M1050 9510 c0 -5 7 -7 15 -4 8 4 15 8 15 10 0 2 -7 4 -15 4 -8 0 -15
-4 -15 -10z"/>
<path d="M3780 9360 l0 -50 -75 0 -75 0 0 -60 0 -60 -70 0 -70 0 2 -412 3
-413 67 -3 67 -3 3 -67 3 -66 53 3 c29 1 65 0 81 -4 29 -6 29 -7 24 -66 l-6
-59 652 0 651 0 0 -75 0 -75 75 0 75 0 0 -90 0 -90 168 -2 167 -3 3 -77 3 -78
89 0 90 0 0 80 0 80 -64 0 -64 0 -7 93 c-4 50 -5 124 -3 162 l3 70 78 3 77 3
0 64 0 65 80 0 80 0 0 70 0 70 70 0 70 0 0 400 c0 220 1 403 3 408 1 4 -31 8
-70 10 l-73 3 0 59 0 60 -80 0 -80 0 0 50 0 50 -1000 0 -1000 0 0 -50z m2000
-137 l0 -63 80 0 80 0 -2 -392 -3 -393 -82 -3 -83 -3 0 -74 0 -75 -100 0 -100
0 0 -155 0 -155 -110 0 -110 0 -1 48 c-1 26 -1 64 0 85 l2 37 -50 0 -51 0 0
70 0 70 -725 0 -725 0 0 75 0 75 -80 0 -80 0 -2 395 -3 394 75 3 75 3 1 55 c1
30 2 57 3 60 0 3 449 5 996 5 l995 0 0 -62z"/>
<path d="M3986 9029 c-8 -41 -8 -433 0 -493 l7 -46 133 0 134 0 0 65 0 65 70
0 70 0 0 65 0 65 -30 0 c-28 0 -30 3 -30 36 0 35 1 36 30 32 l30 -5 0 64 0 63
-70 0 -70 0 0 60 0 60 -134 0 -133 0 -7 -31z m262 -141 l-3 -53 -59 -3 c-67
-3 -76 3 -76 60 0 43 6 46 83 47 l58 1 -3 -52z m2 -218 l0 -50 -65 0 -65 0 0
50 0 50 65 0 65 0 0 -50z"/>
<path d="M4608 9052 l-68 -3 0 -79 0 -80 75 0 75 0 0 79 c0 44 -3 81 -7 83 -5
2 -38 2 -75 0z"/>
<path d="M4878 9053 l-68 -4 0 -79 0 -80 70 0 70 0 0 85 c0 47 -1 84 -2 83 -2
-1 -33 -3 -70 -5z"/>
<path d="M5112 8778 l3 -283 150 0 150 0 1 60 1 60 61 3 62 3 0 159 0 160 -65
0 -65 0 0 60 0 60 -150 0 -150 0 2 -282z m288 -4 l0 -157 -52 7 c-29 3 -62 6
-73 6 -16 0 -20 6 -19 30 1 17 2 84 3 150 l1 120 70 0 70 0 0 -156z"/>
<path d="M4540 8629 l0 -136 70 -2 c67 -2 70 -1 70 21 0 13 3 73 7 135 l6 111
-77 4 -76 3 0 -136z"/>
<path d="M4812 8628 l3 -133 68 -3 67 -3 0 136 0 135 -70 0 -71 0 3 -132z"/>
<path d="M1980 8385 c0 -8 5 -15 10 -15 6 0 10 7 10 15 0 8 -4 15 -10 15 -5 0
-10 -7 -10 -15z"/>
<path d="M1993 8280 c0 -25 2 -35 4 -22 2 12 2 32 0 45 -2 12 -4 2 -4 -23z"/>
<path d="M1913 8275 c0 -22 2 -30 4 -17 2 12 2 30 0 40 -3 9 -5 -1 -4 -23z"/>
<path d="M1880 8233 c0 -5 5 -15 10 -23 8 -12 10 -11 10 8 0 12 -4 22 -10 22
-5 0 -10 -3 -10 -7z"/>
<path d="M6720 7990 l0 -80 -80 0 -80 0 0 -80 0 -80 -80 0 -80 0 0 80 0 80
-80 0 -80 0 0 -149 0 -149 -25 -5 c-14 -2 -50 -2 -80 0 l-55 5 0 -80 0 -79
-37 -7 c-21 -3 -57 -6 -80 -6 l-43 0 0 -105 0 -105 -30 0 -30 0 0 -75 0 -75
-65 0 -64 0 -3 -82 -3 -83 -77 -3 -78 -3 0 -259 0 -260 49 0 c27 0 62 3 80 6
l31 6 2 252 c2 192 6 251 16 252 6 1 41 2 77 3 l65 1 0 85 c0 78 2 85 20 85
18 0 20 7 20 75 l0 75 68 0 69 0 6 -112 c4 -62 7 -249 7 -415 l0 -303 75 0 75
0 0 253 c0 140 3 288 6 330 l7 77 73 0 74 0 0 85 c0 83 0 85 27 91 42 11 647
-6 654 -18 4 -6 9 -5 12 3 3 8 6 -33 7 -91 1 -58 4 -181 6 -275 l5 -170 69 -3
69 -3 3 123 3 123 78 3 77 3 0 -181 0 -180 -85 0 -85 0 0 -85 0 -84 -72 -3
-73 -3 -3 -152 -3 -153 81 0 80 0 0 155 0 155 80 0 80 0 0 85 0 85 75 0 75 0
0 175 0 175 75 0 74 0 3 158 3 157 668 -2 667 -2 0 70 0 69 -667 2 -668 3 -3
38 -3 37 -74 0 -74 0 -3 77 -3 76 -72 -2 c-70 -2 -73 -1 -79 23 -3 14 -4 48
-2 76 l3 50 -77 0 -78 0 0 80 0 80 -82 0 -83 0 0 77 0 78 -177 3 -178 2 0 -80z
m123 -79 l68 -1 -3 -77 -3 -78 -85 0 -85 0 -3 81 c-3 79 -2 81 20 78 13 -1 54
-3 91 -3z"/>
<path d="M1707 7832 c-5 -7 -6 -40 -2 -74 4 -35 11 -55 15 -48 6 10 9 9 13 -1
4 -10 6 -9 6 4 1 9 -3 17 -9 17 -5 0 -10 26 -12 58 -2 35 -6 52 -11 44z"/>
<path d="M1732 7805 c0 -16 2 -22 5 -12 2 9 2 23 0 30 -3 6 -5 -1 -5 -18z"/>
<path d="M9050 7157 l0 -74 113 -6 c61 -4 138 -7 170 -7 l57 0 0 -85 0 -85 80
0 80 0 0 -490 0 -490 -85 0 -85 0 0 -218 c0 -121 -3 -301 -7 -400 l-6 -182
-79 0 -78 0 0 -160 0 -160 -85 0 -85 0 0 -160 0 -160 -85 0 -85 0 0 -80 0 -79
-72 -3 -73 -3 -2 -200 c-1 -110 -3 -269 -3 -353 0 -153 0 -153 -22 -150 l-23
3 -5 346 c-5 339 -5 346 -25 343 -11 -2 -77 -6 -147 -10 l-128 -7 0 -93 0 -94
-160 0 -159 0 -3 -82 -3 -83 -87 -3 -88 -3 0 81 0 81 -75 -2 -75 -2 -1 -91
c-2 -82 -5 -181 -8 -213 -1 -7 -52 -13 -161 -18 l-160 -8 0 -76 0 -76 -153 -1
-152 -2 -3 -76 -3 -76 -182 -2 -182 -3 -3 -83 -3 -83 -77 1 c-42 1 -114 1
-159 1 l-83 -1 0 -80 0 -80 -80 0 -80 0 0 -80 0 -80 -330 0 -330 0 0 -79 0
-80 -52 -6 c-29 -4 -103 -5 -164 -3 l-111 3 -5 -390 c-3 -214 -2 -425 1 -469
l6 -78 -103 4 c-70 2 -97 1 -83 -6 19 -8 21 -17 20 -73 -1 -57 -4 -63 -23 -64
-19 -1 -18 -2 4 -9 l25 -8 -25 -1 c-20 -1 -22 -3 -10 -11 11 -8 -1 -10 -40 -8
-45 3 -55 6 -54 21 1 12 -6 17 -23 17 -25 0 -25 1 -21 70 l4 70 -764 0 -764 0
3 148 c2 81 3 292 1 470 l-2 322 -100 0 -100 0 0 160 0 160 -75 0 -75 0 0
-400 0 -400 75 0 75 0 0 -80 0 -80 70 0 c79 0 70 11 74 -97 3 -51 7 -49 -166
-59 l-128 -7 0 -283 0 -284 75 0 75 0 0 39 c0 73 -4 71 156 71 l144 0 0 -70 0
-70 -70 0 -70 0 0 -235 0 -235 28 -1 c15 0 48 0 75 1 l47 1 0 -75 0 -76 220 0
220 0 0 70 0 70 75 0 75 0 0 251 0 252 353 -4 352 -4 0 80 0 80 45 -3 c33 -2
41 0 30 7 -8 6 -10 11 -4 11 5 0 16 -6 23 -13 10 -10 15 -9 24 4 9 12 11 -38
9 -227 l-3 -244 86 0 c84 0 85 0 85 -25 l0 -25 250 0 250 0 0 74 c0 86 0 86
96 86 l64 0 0 93 0 94 160 2 160 2 0 -85 0 -86 -89 0 -88 0 -7 -92 c-3 -50 -6
-153 -6 -230 l0 -138 96 0 95 0 -2 -78 -2 -77 171 -3 172 -2 0 80 0 80 80 0
80 0 0 230 0 229 -82 3 -83 3 0 80 1 80 87 3 87 3 0 69 0 70 168 2 167 3 3 73
3 72 79 0 79 0 3 78 3 77 153 3 152 3 0 68 0 68 83 6 c45 4 117 7 160 7 l77 0
0 75 0 75 150 1 c83 1 156 2 163 3 8 1 12 23 12 74 l0 72 45 2 c25 1 56 3 70
4 14 1 64 3 113 3 l87 1 0 78 0 77 168 2 167 1 3 76 3 75 117 3 c64 2 123 1
130 -1 9 -2 12 -25 10 -85 l-3 -81 -82 -3 -83 -3 0 -294 0 -295 108 0 c59 0
191 -3 295 -7 l187 -6 0 34 c0 19 3 51 6 72 l7 37 73 0 74 0 0 230 0 230 -145
0 -145 0 0 170 0 170 73 0 72 0 0 394 c0 217 2 397 5 400 3 2 40 6 83 7 l77 2
-2 226 -3 226 -72 3 -73 3 0 371 c0 325 2 369 14 352 14 -18 15 -18 21 -1 11
28 95 18 95 -12 1 -11 5 -8 15 9 12 21 14 114 15 570 0 300 0 551 0 558 0 8
21 12 71 12 l72 0 -4 495 -4 495 -72 0 -73 0 0 79 c0 91 0 91 -91 91 l-59 0 0
75 0 75 -175 0 -175 0 0 -73z m-1223 -3412 c7 -8 13 -25 13 -39 0 -21 -5 -25
-37 -29 l-38 -4 40 1 c33 1 40 5 46 26 5 18 7 12 8 -25 1 -50 1 -51 -31 -53
-18 -2 -42 -4 -53 -5 -18 -2 -20 5 -23 68 l-3 70 32 1 c18 1 39 -4 46 -11z
m-96 -62 c2 -29 0 -56 -4 -59 -4 -4 -7 21 -7 56 0 75 7 77 11 3z m1256 1 c-3
-3 -12 -4 -19 -1 -8 3 -5 6 6 6 11 1 17 -2 13 -5z m393 -64 c0 -13 -11 -13
-30 0 -12 8 -11 10 8 10 12 0 22 -4 22 -10z m-2152 -258 l3 -83 -78 3 -78 3
-3 69 c-4 98 -5 97 80 94 l73 -3 3 -83z m800 -203 c-3 -33 -4 -33 -8 8 -3 23
-2 39 3 34 5 -5 7 -24 5 -42z m-141 -31 c-3 -8 -6 -5 -6 6 -1 11 2 17 5 13 3
-3 4 -12 1 -19z m-1376 -155 c-8 -14 -10 -8 -11 27 0 25 4 56 8 70 5 20 8 14
10 -27 2 -29 -2 -61 -7 -70z m-24 75 c-3 -7 -5 -2 -5 12 0 14 2 19 5 13 2 -7
2 -19 0 -25z m55 -71 c-9 -18 -11 -10 -10 43 l0 65 11 -43 c7 -29 7 -49 -1
-65z m2338 -67 l0 -120 -167 2 -168 3 3 65 c2 36 5 74 6 85 2 11 4 35 5 53 l1
32 160 0 160 0 0 -120z m-1663 58 c-3 -8 -6 -5 -6 6 -1 11 2 17 5 13 3 -3 4
-12 1 -19z m1061 -18 c18 0 42 5 52 10 26 14 30 4 37 -93 l6 -84 -56 -6 c-30
-3 -73 -3 -96 0 l-40 6 4 68 c3 59 2 67 -12 62 -11 -4 -10 0 5 15 12 12 29 22
38 22 9 0 12 5 8 13 -6 10 -4 10 7 0 7 -7 28 -13 47 -13z m-125 -57 c-13 -2
-35 -2 -50 0 -16 2 -5 4 22 4 28 0 40 -2 28 -4z m239 -65 c2 -20 0 -34 -4 -32
-4 3 -8 24 -7 47 1 47 6 41 11 -15z m-835 -15 c-3 -10 -5 -4 -5 12 0 17 2 24
5 18 2 -7 2 -21 0 -30z m610 -20 c-3 -10 -5 -2 -5 17 0 19 2 27 5 18 2 -10 2
-26 0 -35z m365 23 c3 -16 1 -23 -7 -19 -7 2 -11 13 -8 24 7 25 10 24 15 -5z
m-459 -7 c3 -12 3 -18 0 -15 -3 3 -12 -1 -19 -9 -10 -9 -14 -39 -14 -94 l0
-81 -80 0 c-57 0 -80 -4 -80 -12 0 -10 -2 -10 -9 0 -4 8 -21 12 -37 11 -16 -2
-52 0 -80 5 -44 6 -51 10 -47 27 5 17 15 19 79 19 l74 0 0 65 0 65 94 0 c86 0
95 2 101 20 8 25 11 25 18 -1z m452 -29 c3 -5 2 -10 -4 -10 -5 0 -13 5 -16 10
-3 6 -2 10 4 10 5 0 13 -4 16 -10z m-1125 -10 c0 -5 -4 -10 -9 -10 -6 0 -13 5
-16 10 -3 6 1 10 9 10 9 0 16 -4 16 -10z m787 -6 c-3 -3 -12 -4 -19 -1 -8 3
-5 6 6 6 11 1 17 -2 13 -5z m-127 -74 l-8 -55 1 62 c1 35 4 59 8 55 4 -4 4
-32 -1 -62z m165 60 c-3 -5 -21 -9 -38 -9 l-32 1 30 8 c43 11 47 11 40 0z
m138 3 c-7 -2 -21 -2 -30 0 -10 3 -4 5 12 5 17 0 24 -2 18 -5z m167 -3 c0 -5
-4 -10 -10 -10 -5 0 -10 5 -10 10 0 6 5 10 10 10 6 0 10 -4 10 -10z m-183 -16
c-3 -3 -12 -4 -19 -1 -8 3 -5 6 6 6 11 1 17 -2 13 -5z m-154 -11 c-7 -2 -19
-2 -25 0 -7 3 -2 5 12 5 14 0 19 -2 13 -5z m337 -38 c0 -38 -3 -45 -20 -45
-11 0 -20 5 -20 10 0 6 5 10 10 10 6 0 10 16 10 35 0 19 5 35 10 35 6 0 10
-20 10 -45z m-44 -27 c-11 -19 -46 -25 -46 -8 0 5 9 15 20 22 11 7 20 22 21
33 1 16 2 15 8 -5 4 -14 3 -33 -3 -42z m-301 -48 c3 -5 1 -10 -4 -10 -6 0 -11
5 -11 10 0 6 2 10 4 10 3 0 8 -4 11 -10z m-472 -7 c-7 -2 -19 -2 -25 0 -7 3
-2 5 12 5 14 0 19 -2 13 -5z m93 -16 c2 -2 -17 -7 -41 -13 -24 -5 -42 -6 -39
-2 3 4 13 8 22 9 14 0 13 2 -3 10 -15 6 -9 7 19 4 22 -3 41 -7 42 -8z m-99 -3
c-3 -3 -12 -4 -19 -1 -8 3 -5 6 6 6 11 1 17 -2 13 -5z m340 -16 c-3 -8 -6 -5
-6 6 -1 11 2 17 5 13 3 -3 4 -12 1 -19z m-204 -5 c-7 -2 -21 -2 -30 0 -10 3
-4 5 12 5 17 0 24 -2 18 -5z m-256 -40 c-3 -10 -5 -4 -5 12 0 17 2 24 5 18 2
-7 2 -21 0 -30z m231 27 c6 0 12 -8 13 -17 0 -15 2 -15 9 2 8 18 9 18 10 -5 1
-14 1 -33 0 -44 -1 -13 2 -16 12 -10 7 4 4 -3 -6 -15 -17 -18 -17 -21 -3 -15
12 4 17 1 17 -11 0 -11 -5 -15 -15 -11 -8 3 -15 1 -15 -3 0 -5 5 -11 10 -13 6
-2 13 -22 15 -46 l4 -42 -94 0 c-52 0 -95 4 -95 9 0 12 43 19 66 11 10 -4 28
-4 38 0 19 6 19 7 1 14 -10 3 -41 9 -69 12 -62 6 -76 10 -76 24 0 6 20 9 53 6
28 -3 46 -2 40 1 -8 2 -13 22 -13 44 0 32 3 39 20 39 17 0 20 7 20 41 0 38 2
41 23 35 12 -3 28 -6 35 -6z m378 -68 c-13 -12 -17 8 -10 40 l9 33 3 -33 c2
-19 1 -36 -2 -40z m-29 11 c-3 -10 -5 -2 -5 17 0 19 2 27 5 18 2 -10 2 -26 0
-35z m-586 -21 c-5 -9 -12 -83 -16 -165 l-8 -147 -111 0 c-82 1 -116 5 -130
15 -17 13 -18 15 -3 15 14 0 17 10 17 59 l0 59 -42 -1 c-24 -1 -44 1 -45 6 -2
4 -3 41 -3 82 l0 75 164 0 c99 0 167 4 171 10 11 17 16 11 6 -8z m15 -57 c-3
-50 -16 -74 -16 -29 0 29 10 74 16 74 1 0 2 -20 0 -45z m-4283 -52 c-7 -2 -19
-2 -25 0 -7 3 -2 5 12 5 14 0 19 -2 13 -5z m3775 -120 l3 -91 -163 -4 c-90 -2
-167 -1 -172 3 -12 10 2 61 14 54 6 -3 10 -1 10 4 0 7 26 11 64 11 l65 0 6 44
c4 25 4 49 1 54 -10 16 14 21 94 19 l75 -2 3 -92z m171 -59 c2 -2 -3 -4 -12
-4 -9 0 -17 -4 -17 -10 0 -18 -18 -10 -23 10 -4 17 -2 19 21 14 15 -4 29 -8
31 -10z m-296 -51 c3 -5 -35 -8 -83 -8 -48 0 -86 3 -83 8 2 4 40 7 83 7 43 0
81 -3 83 -7z m150 -30 c-7 -2 -19 -2 -25 0 -7 3 -2 5 12 5 14 0 19 -2 13 -5z
m117 -33 c0 -5 -17 -9 -37 -9 -38 1 -38 1 -8 9 43 11 45 11 45 0z m-4 -37 c-2
-14 -15 -18 -57 -20 -38 -1 -48 1 -34 7 11 5 34 10 50 11 22 2 16 4 -20 9
l-50 7 57 1 c48 2 56 -1 54 -15z m-186 -3 c0 -5 -4 -10 -9 -10 -6 0 -13 5 -16
10 -3 6 1 10 9 10 9 0 16 -4 16 -10z m63 -7 c-7 -2 -19 -2 -25 0 -7 3 -2 5 12
5 14 0 19 -2 13 -5z m-883 -153 c0 -7 -166 -9 -482 -8 l-483 3 480 5 c264 3
481 6 483 8 1 1 2 -2 2 -8z m-1280 -175 c0 -8 -5 -15 -11 -15 -5 0 -8 4 -5 9
4 5 0 12 -6 14 -8 3 -6 6 5 6 9 1 17 -6 17 -14z m-1143 -377 c-2 -13 -4 -5 -4
17 -1 22 1 32 4 23 2 -10 2 -28 0 -40z m2603 -143 l0 -75 -75 0 -75 0 0 75 0
75 75 0 75 0 0 -75z"/>
<path d="M7790 3650 l-35 -6 39 -7 c41 -7 57 -3 40 11 -5 5 -25 5 -44 2z"/>
<path d="M6402 7190 c0 -19 2 -27 5 -17 2 9 2 25 0 35 -3 9 -5 1 -5 -18z"/>
<path d="M3404 7183 c4 -26 36 -29 36 -4 0 14 -6 21 -19 21 -13 0 -18 -6 -17
-17z"/>
<path d="M3317 6873 c-4 -3 -7 -55 -7 -115 l0 -108 70 0 70 0 0 115 0 115 -63
0 c-35 0 -67 -3 -70 -7z"/>
<path d="M6400 6762 l0 -118 70 -2 70 -3 0 120 0 121 -70 0 -70 0 0 -118z"/>
<path d="M6776 6858 c-3 -13 -6 -65 -6 -115 l0 -93 70 0 70 0 0 115 0 115 -64
0 c-58 0 -64 -2 -70 -22z"/>
<path d="M8778 6742 l-68 -3 0 -249 0 -250 80 0 80 0 0 253 c0 197 -3 253 -12
253 -7 -1 -43 -2 -80 -4z"/>
<path d="M6240 6250 l0 -160 158 0 157 0 0 -59 c0 -33 2 -62 5 -65 3 -2 39 -6
80 -8 l75 -3 -2 61 -3 62 31 6 c17 3 62 6 100 6 l69 0 0 75 0 75 -254 0 -254
0 -6 23 c-3 12 -6 50 -6 85 l0 62 -75 0 -75 0 0 -160z"/>
<path d="M3163 6275 c0 -22 2 -30 4 -17 2 12 2 30 0 40 -3 9 -5 -1 -4 -23z"/>
<path d="M8537 6223 c-4 -3 -7 -82 -7 -174 l0 -167 70 -4 c64 -3 71 -1 75 17
3 11 6 91 7 178 l3 157 -71 0 c-39 0 -74 -3 -77 -7z"/>
<path d="M3021 6144 c0 -11 3 -14 6 -6 3 7 2 16 -1 19 -3 4 -6 -2 -5 -13z"/>
<path d="M6070 6000 l0 -80 -180 0 -180 0 0 -85 0 -85 75 0 76 0 -3 -157 -3
-158 -62 -3 -63 -3 0 -74 0 -75 -67 -1 c-38 -1 -71 -1 -75 0 -5 0 -8 -23 -8
-53 0 -72 -18 -204 -33 -238 l-12 -28 -152 0 -153 0 0 -80 0 -80 -75 0 -75 0
0 75 0 74 73 3 72 3 3 154 3 153 -23 -6 c-13 -3 -49 -6 -82 -6 l-58 0 3 -147
4 -148 -72 -3 -73 -3 0 -139 0 -139 -32 -6 c-18 -3 -71 -5 -118 -3 l-85 3 2
293 1 292 -58 0 -59 0 -3 -52 -3 -53 -51 -3 c-42 -2 -53 -7 -57 -22 -5 -18
-14 -20 -111 -20 l-106 0 0 -70 0 -70 -67 -1 c-38 -1 -108 -3 -158 -5 l-90 -3
-2 -72 c-1 -39 -4 -73 -5 -74 -2 -2 -55 -5 -120 -7 -142 -5 -171 -20 -128 -66
11 -12 20 -26 20 -32 0 -5 6 -9 13 -8 7 2 13 -9 15 -25 3 -28 2 -29 -35 -25
-36 3 -38 5 -44 43 l-6 40 -1 -42 -2 -43 -230 0 c-177 0 -230 -3 -231 -12 -1
-13 -1 -71 0 -115 l1 -23 295 0 294 0 3 73 3 72 73 3 72 3 1 39 c1 22 3 45 4
50 1 6 3 21 4 35 1 24 4 25 65 25 42 0 66 4 68 12 3 9 47 14 156 16 l152 4 0
68 0 68 83 7 c127 11 122 14 122 -80 l0 -80 -47 -3 -48 -3 0 -55 0 -54 -65 0
-65 0 0 -90 0 -90 65 0 65 0 0 -53 c0 -47 -3 -55 -26 -67 -18 -10 -33 -11 -52
-4 -15 5 -57 8 -94 6 l-68 -4 -1 -31 c0 -18 -1 -48 -2 -67 l-2 -35 73 -3 c59
-2 73 0 79 13 3 9 9 12 12 7 4 -6 67 -7 166 -2 88 4 138 8 110 10 l-50 3 50 6
50 6 0 108 0 107 108 0 107 0 0 70 c0 49 4 70 13 71 16 2 92 4 275 7 l152 2 0
65 0 64 88 3 87 3 3 83 3 82 84 0 85 0 0 160 0 160 75 0 75 0 0 80 c0 79 0 80
25 80 l25 0 0 155 0 155 70 0 70 0 0 85 0 85 80 0 80 0 0 80 0 80 -80 0 -80 0
0 -80z m-2310 -1290 c0 -5 -4 -10 -10 -10 -5 0 -10 5 -10 10 0 6 5 10 10 10 6
0 10 -4 10 -10z m7 -57 c-3 -10 -5 -4 -5 12 0 17 2 24 5 18 2 -7 2 -21 0 -30z
m913 -68 l0 -65 -100 0 -100 0 0 65 0 65 100 0 100 0 0 -65z m-215 -226 c19
-7 19 -8 -2 -8 -13 -1 -23 -5 -23 -10 0 -5 -8 -12 -17 -14 -10 -2 -3 -3 14 -1
18 1 35 -2 38 -7 4 -5 -13 -9 -38 -9 -31 0 -47 5 -51 15 -4 10 1 15 14 15 11
0 20 5 20 11 0 6 -9 8 -20 4 -14 -4 -20 -2 -20 9 0 12 7 14 33 9 17 -3 41 -10
52 -14z"/>
<path d="M7410 6000 l0 -80 75 0 75 0 0 80 0 80 -75 0 -75 0 0 -80z"/>
<path d="M7560 5750 l0 -160 70 0 70 0 0 -315 0 -315 -55 0 -55 0 2 43 1 42 4
-37 c5 -50 35 -54 33 -5 -5 81 0 117 15 117 8 0 15 9 15 21 0 11 -4 18 -8 15
-5 -3 -8 5 -7 17 1 12 9 23 17 25 12 2 33 52 25 58 -1 1 -27 4 -58 7 l-56 5 5
-154 c3 -112 2 -154 -7 -154 -7 0 -11 -27 -11 -80 l0 -80 -165 0 -165 0 0 80
0 80 -89 0 c-89 0 -89 0 -94 27 -3 15 -3 51 0 80 l6 53 -92 0 -93 0 3 78 4 77
-35 1 c-19 0 -54 1 -77 2 l-43 2 0 80 0 80 83 0 c45 0 120 -3 166 -7 l84 -6
-6 -73 -5 -73 81 -3 c45 -2 85 -2 90 0 4 2 7 37 7 78 l0 75 -77 -2 -78 -2 -3
81 -3 82 -169 0 -170 0 0 -75 0 -75 -245 0 -245 0 0 -77 0 -78 173 0 c94 0
186 -3 202 -7 17 -3 33 -7 37 -7 4 -1 9 -18 11 -38 l4 -38 1 38 c2 39 22 53
22 15 0 -13 3 -41 7 -63 6 -37 5 -39 -10 -26 -10 7 -17 9 -17 3 0 -6 -3 -18
-7 -28 -5 -14 -3 -16 11 -11 25 10 97 -15 91 -31 -6 -16 51 -14 72 1 14 10 19
1 26 -43 4 -21 5 -20 6 7 0 17 5 34 10 38 12 7 32 -61 24 -81 -3 -8 3 -24 12
-34 17 -18 17 -20 1 -20 -15 0 -16 -21 -14 -242 l3 -243 88 0 c80 0 87 -2 89
-20 1 -11 2 -27 4 -35 1 -8 2 -39 3 -67 l1 -53 75 0 c53 0 75 4 75 13 0 6 5 4
11 -7 6 -10 11 -52 10 -94 -1 -51 3 -78 11 -84 10 -6 9 -8 -2 -8 -13 0 -13 -1
0 -10 8 -5 108 -10 228 -10 l212 0 0 90 0 89 -147 3 -148 3 -3 78 -3 77 -84 0
-85 0 -1 63 c0 34 -1 77 -2 95 -1 17 3 32 8 33 11 1 104 0 225 -1 41 -1 81 -1
88 -1 8 1 12 23 12 76 l0 75 75 0 75 0 0 90 0 90 70 0 70 0 0 240 0 240 253 2
252 3 3 74 3 73 79 -4 79 -3 3 78 c2 43 1 81 -1 83 -2 2 -37 4 -77 4 -82 0
-84 -2 -84 -97 l0 -53 -330 0 -330 0 0 155 0 155 -70 0 -70 0 0 -160z m36
-516 c-3 -16 0 -27 10 -31 20 -7 19 -70 -1 -70 -8 0 -15 8 -15 17 0 10 -3 38
-6 64 -5 32 -3 46 5 46 7 0 10 -10 7 -26z m-583 -271 c-7 -2 -21 -2 -30 0 -10
3 -4 5 12 5 17 0 24 -2 18 -5z m204 -505 c-3 -8 -6 -5 -6 6 -1 11 2 17 5 13 3
-3 4 -12 1 -19z"/>
<path d="M2746 5564 c-8 -20 -8 -174 0 -241 6 -48 9 -53 33 -54 17 -1 20 -3 9
-6 -21 -5 -24 -23 -5 -23 8 0 7 -4 -3 -11 -11 -8 -6 -9 22 -4 25 4 38 2 41 -7
7 -17 29 11 22 29 -2 6 3 17 11 23 15 13 20 173 8 264 l-7 46 -62 0 c-48 0
-64 -4 -69 -16z m91 -310 c-3 -3 -12 -4 -19 -1 -8 3 -5 6 6 6 11 1 17 -2 13
-5z"/>
<path d="M5229 5566 c-2 -2 -3 -70 -1 -150 l3 -146 75 0 74 0 0 150 0 150 -73
0 c-41 0 -76 -2 -78 -4z"/>
<path d="M7220 5195 l0 -75 79 0 79 0 4 75 3 75 -82 0 -83 0 0 -75z"/>
<path d="M2784 5055 c0 -49 1 -71 3 -48 2 23 2 64 0 90 -2 26 -3 8 -3 -42z"/>
<path d="M6768 5053 c7 -3 16 -2 19 1 4 3 -2 6 -13 5 -11 0 -14 -3 -6 -6z"/>
<path d="M2763 5005 c0 -22 2 -30 4 -17 2 12 2 30 0 40 -3 9 -5 -1 -4 -23z"/>
<path d="M3642 4770 c0 -19 2 -27 5 -17 2 9 2 25 0 35 -3 9 -5 1 -5 -18z"/>
<path d="M3680 4660 c0 -5 5 -10 10 -10 6 0 10 5 10 10 0 6 -4 10 -10 10 -5 0
-10 -4 -10 -10z"/>
<path d="M2760 4621 c0 -11 3 -28 7 -38 6 -15 9 -13 14 12 6 28 7 29 14 8 9
-29 45 -31 45 -3 0 18 3 19 21 10 11 -7 66 -13 122 -14 56 -2 109 -5 117 -7
10 -3 16 5 18 24 l3 27 -180 0 c-172 0 -181 -1 -181 -19z"/>
<path d="M3132 4620 c0 -14 2 -19 5 -12 2 6 2 18 0 25 -3 6 -5 1 -5 -13z"/>
<path d="M3152 4620 c0 -14 2 -19 5 -12 2 6 2 18 0 25 -3 6 -5 1 -5 -13z"/>
<path d="M3025 4540 c-8 -13 5 -13 25 0 13 8 13 10 -2 10 -9 0 -20 -4 -23 -10z"/>
<path d="M2960 4531 c0 -5 9 -7 20 -4 11 3 20 7 20 9 0 2 -9 4 -20 4 -11 0
-20 -4 -20 -9z"/>
<path d="M2803 4513 c9 -2 23 -2 30 0 6 3 -1 5 -18 5 -16 0 -22 -2 -12 -5z"/>
<path d="M5640 4270 l45 -6 -45 -5 -45 -4 0 -57 c0 -31 -3 -54 -7 -51 -5 2 -8
-1 -8 -6 0 -15 118 -14 134 1 7 7 12 19 10 28 -2 8 -6 36 -9 63 l-6 47 -57 -2
-57 -1 45 -7z m67 -67 c-3 -10 -5 -4 -5 12 0 17 2 24 5 18 2 -7 2 -21 0 -30z"/>
<path d="M4095 4220 c-6 -18 -15 -20 -86 -20 l-80 0 3 -67 3 -68 145 0 145 0
3 88 3 87 -65 0 c-56 0 -66 -3 -71 -20z"/>
<path d="M5613 4113 c15 -2 39 -2 55 0 15 2 2 4 -28 4 -30 0 -43 -2 -27 -4z"/>
<path d="M5310 4091 l-55 -6 0 -75 -1 -75 -72 -3 -72 -3 0 -74 c0 -71 -1 -75
-22 -76 -13 -1 -26 -1 -30 0 -5 0 -8 -4 -8 -10 0 -5 -5 -7 -10 -4 -7 5 -10
-19 -9 -70 l2 -76 88 3 c49 2 89 0 89 -4 0 -3 8 -4 19 -1 17 4 19 14 17 85 -1
77 0 81 24 90 14 5 45 8 69 5 l43 -5 -4 74 -3 74 75 1 c41 1 78 1 83 0 4 0 7
9 8 22 0 20 1 21 8 3 7 -18 8 -18 14 5 8 30 9 92 1 113 -5 13 -23 16 -103 14
-53 -1 -121 -4 -151 -7z"/>
<path d="M3608 3623 c7 -3 16 -2 19 1 4 3 -2 6 -13 5 -11 0 -14 -3 -6 -6z"/>
<path d="M3540 2683 l0 -278 48 1 c26 0 372 2 770 2 l722 2 0 195 0 195 -555
0 -555 0 0 80 0 80 -215 0 -215 0 0 -277z"/>
<path d="M4934 1892 c3 -6 -2 -12 -11 -14 -16 -3 -17 -4 -1 -10 19 -8 33 17
16 28 -6 4 -8 3 -4 -4z"/>
<path d="M4931 1850 c-2 -3 -4 -31 -6 -62 -1 -53 0 -58 19 -58 13 0 17 3 9 8
-6 4 -13 32 -16 62 -2 30 -5 53 -6 50z"/>
<path d="M5051 1744 c0 -11 3 -14 6 -6 3 7 2 16 -1 19 -3 4 -6 -2 -5 -13z"/>
</g>
</svg>
