<?xml version="1.0" standalone="no"?>
<!DOCTYPE svg PUBLIC "-//W3C//DTD SVG 20010904//EN"
 "http://www.w3.org/TR/2001/REC-SVG-20010904/DTD/svg10.dtd">
<svg version="1.0" xmlns="http://www.w3.org/2000/svg"
 width="1024.000000pt" height="1024.000000pt" viewBox="0 0 1024.000000 1024.000000"
 preserveAspectRatio="xMidYMid meet">

<g transform="translate(0.000000,1024.000000) scale(0.100000,-0.100000)"
fill="#000000" stroke="none">
<path d="M9418 9153 l-588 -3 0 -45 0 -45 -55 0 -55 0 0 -600 0 -600 55 0 55
0 0 -39 0 -40 48 -3 c47 -3 47 -3 47 -38 l0 -35 218 -3 217 -2 0 -1215 0
-1215 -139 0 c-105 0 -139 -3 -138 -12 0 -7 -1 -28 -1 -45 -2 -32 -3 -33 -47
-33 l-45 0 0 -45 c0 -29 -4 -45 -12 -46 -7 0 -28 -1 -47 -2 l-33 -2 1 -105 c3
-156 17 -330 29 -342 5 -5 20 -8 33 -6 20 2 25 10 27 41 l3 37 185 0 184 0 0
-200 0 -200 -184 0 -185 0 -3 -42 -3 -43 -60 -1 c-88 -1 -85 1 -85 -48 0 -26
5 -46 13 -48 6 -3 42 -6 80 -7 l67 -2 0 50 0 51 310 0 310 0 0 -45 0 -45 79 0
79 0 4 45 3 45 -72 0 -73 0 0 205 0 205 155 0 155 0 0 39 c0 40 0 40 43 43
l42 3 0 90 0 90 38 3 37 3 0 -95 0 -96 -35 0 -35 0 0 -290 0 -290 40 0 40 0 0
290 0 290 40 0 40 0 0 190 0 190 -40 0 -40 0 0 45 0 45 -45 0 -45 0 0 45 0 45
-195 0 -195 0 0 1215 0 1215 155 0 155 0 0 39 c0 40 0 40 43 43 41 3 42 4 42
38 0 34 1 35 45 40 l45 5 3 598 3 597 -51 0 -50 0 0 50 c0 35 -4 49 -12 48 -7
-2 -277 -4 -600 -5z m610 -690 l-3 -598 -562 -3 -563 -3 0 48 0 48 -45 -3 -45
-4 0 516 0 516 45 0 45 0 0 40 0 40 565 0 565 0 -2 -597z m-514 -859 c11 -4
16 -19 16 -50 0 -44 0 -44 -35 -44 l-35 0 0 50 c0 52 11 61 54 44z m26 -1421
l0 -918 -45 -3 -45 -2 0 920 0 920 45 0 45 0 0 -917z m443 -1003 l47 0 0 -39
c0 -39 -1 -40 -37 -43 l-38 -3 -3 -106 -3 -107 -31 -6 c-17 -3 -109 -6 -204
-6 l-174 0 0 -34 c0 -30 -3 -34 -32 -39 -18 -3 -36 -2 -40 2 -4 3 -9 38 -12
76 l-4 70 -179 0 c-107 0 -181 4 -185 10 -4 6 -8 58 -8 118 l0 107 38 0 c37
-1 78 -21 65 -33 -3 -4 3 -7 15 -7 11 0 24 -4 27 -10 11 -18 25 -10 25 15 l0
25 314 0 c216 0 317 3 322 11 3 6 16 8 28 5 11 -3 42 -6 69 -6z m-451 -565 c4
-5 8 -76 8 -157 l0 -148 -40 0 -40 0 0 154 c0 110 3 155 12 158 21 7 53 3 60
-7z"/>
<path d="M8896 8893 c-3 -42 -6 -258 -6 -480 l0 -403 530 0 530 0 0 480 0 480
-524 0 -523 0 -7 -77z m364 -263 l0 -100 -35 0 -35 0 0 55 0 55 -70 0 -70 0 0
45 0 45 105 0 105 0 0 -100z m500 0 l0 -100 -35 0 -35 0 0 60 0 60 -63 0 -63
0 4 40 4 40 94 0 94 0 0 -100z m-580 -150 l0 -40 -40 0 -40 0 0 40 0 40 40 0
40 0 0 -40z m500 0 l0 -40 -45 0 c-45 0 -45 0 -45 34 0 37 8 44 58 45 31 1 32
0 32 -39z m-320 -71 c0 -11 5 -29 10 -40 14 -25 -6 -34 -55 -25 -33 7 -35 9
-35 46 0 40 0 40 40 40 34 0 40 -3 40 -21z m480 -19 c0 -33 -3 -40 -19 -40
-11 0 -26 -3 -35 -6 -13 -5 -16 1 -16 33 0 47 5 53 42 53 26 0 28 -3 28 -40z
m-756 4 c8 -32 -1 -44 -43 -50 -30 -5 -31 -4 -31 35 0 40 1 41 34 41 28 0 35
-4 40 -26z m366 -9 c0 -27 -4 -35 -18 -35 -27 0 -32 9 -22 35 6 16 5 25 -3 29
-7 2 0 5 16 5 24 1 27 -2 27 -34z m-280 -185 l0 -40 -75 0 -75 0 0 40 0 40 75
0 75 0 0 -40z m430 0 l0 -40 -47 -1 c-27 0 -56 -2 -65 -4 -15 -3 -18 4 -18 41
l0 44 65 0 65 0 0 -40z"/>
<path d="M429 9083 c-1 -5 -2 -12 -4 -18 -1 -5 -3 -23 -3 -40 l-2 -30 -105 2
c-60 1 -105 -2 -105 -8 0 -5 -9 -9 -21 -9 -15 0 -19 -4 -15 -16 3 -9 6 -20 6
-24 0 -5 33 -11 73 -13 l72 -3 -82 -2 -83 -2 0 45 0 45 -55 0 -55 0 0 -45 0
-45 50 0 50 0 0 -65 0 -65 -75 0 -75 0 0 -50 c0 -49 1 -50 30 -50 28 0 30 -2
30 -40 0 -38 -2 -40 -30 -40 -30 0 -30 -1 -30 -53 l0 -53 34 4 c32 4 33 2 40
-37 6 -41 6 -41 51 -41 45 0 45 0 45 -35 0 -33 2 -35 33 -36 17 -1 35 -1 38
-1 17 2 22 -818 6 -834 -3 -3 -21 -6 -41 -7 -35 -2 -36 -3 -36 -44 l0 -43 90
0 90 0 0 510 0 510 -45 0 -45 0 0 45 0 45 -60 0 -60 0 0 90 0 90 45 0 45 0 0
50 0 50 155 0 155 0 0 -3550 0 -3550 -95 0 -95 0 0 -40 0 -40 -91 0 -90 0 2
-145 c1 -80 6 -148 11 -151 6 -4 25 -8 43 -10 31 -3 34 -1 37 29 2 21 7 7 13
-43 l10 -75 420 0 420 0 -3 36 c-3 28 2 39 22 54 14 10 22 23 19 28 -3 4 1 8
8 6 30 -4 43 3 19 11 -23 7 -23 8 -4 9 29 1 34 24 34 149 l0 102 -75 0 -75 0
0 40 0 40 -100 0 -100 0 0 1295 0 1295 49 0 50 0 3 -47 c3 -48 3 -48 36 -45
l32 4 0 -91 0 -91 90 0 90 0 0 -45 0 -45 40 0 c40 0 40 0 40 -39 0 -35 3 -39
31 -45 17 -3 58 -6 90 -6 l59 0 0 -85 0 -85 -45 0 -45 0 0 -324 0 -325 -42 -3
-43 -3 -3 -95 c-4 -145 -8 -140 93 -140 l85 0 0 -44 0 -45 -42 -3 -43 -3 -3
-50 -3 -50 -44 3 c-35 3 -45 1 -45 -11 0 -36 12 -47 51 -47 37 0 39 -2 39 -30
0 -29 -2 -30 -42 -30 -24 0 -48 -4 -55 -8 -8 -5 -13 -55 -15 -159 -3 -138 -1
-152 15 -157 10 -2 17 -14 17 -29 0 -22 -6 -26 -47 -33 -54 -10 -71 -34 -24
-34 16 0 41 -4 55 -10 22 -8 26 -16 26 -49 l0 -40 78 -3 77 -3 3 -30 c4 -29
16 -45 37 -45 6 0 4 4 -4 9 -9 6 -4 10 18 13 21 3 31 0 31 -9 0 -7 6 -14 13
-14 6 -1 71 -4 142 -8 l130 -6 5 -40 c3 -23 10 -40 18 -39 6 1 17 2 23 3 7 0
10 15 7 36 l-4 34 51 3 50 3 -2 43 -1 42 79 0 c43 0 78 -3 78 -7 -1 -5 -1 -25
0 -46 1 -33 4 -38 24 -37 64 6 77 1 77 -27 0 -47 11 -55 67 -47 46 6 51 4 56
-16 5 -21 7 -21 22 -6 9 9 26 16 38 16 18 0 19 -2 7 -10 -9 -6 -10 -10 -3 -10
6 0 13 -15 15 -32 4 -40 29 -48 55 -19 22 26 30 26 38 2 6 -19 7 -19 24 -3 10
9 18 21 17 27 -1 5 9 10 22 11 17 1 22 -4 22 -22 0 -13 -7 -24 -17 -26 -10 -2
32 -8 94 -12 79 -5 113 -12 117 -21 3 -8 0 -16 -7 -19 -9 -3 -9 -5 1 -5 6 -1
12 -8 12 -16 0 -11 12 -15 50 -15 47 0 50 -2 50 -26 0 -18 4 -23 12 -17 7 4
26 6 43 5 25 -1 27 0 10 7 -19 9 -19 10 3 10 17 1 22 -5 22 -24 0 -25 0 -25
99 -25 104 0 111 -3 111 -51 0 -10 5 -19 10 -19 6 0 10 7 10 15 0 22 27 18 52
-7 17 -17 32 -21 65 -19 28 2 43 -2 43 -9 0 -10 3 -10 14 0 27 22 60 8 67 -28
4 -18 9 -35 12 -38 5 -5 103 -11 202 -13 l50 -1 -3 -43 -4 -42 91 3 91 3 0
-35 0 -36 130 0 130 0 0 -40 0 -40 50 0 c41 0 50 -3 50 -17 0 -14 2 -15 9 -4
5 8 14 10 21 6 9 -5 11 -4 6 3 -5 8 1 12 17 12 26 0 37 -16 37 -56 0 -21 4
-24 39 -24 22 0 42 -4 45 -9 3 -4 24 -5 48 -1 50 10 68 4 68 -20 0 -11 5 -22
12 -26 7 -5 9 -1 6 13 -3 12 -2 27 3 34 6 9 9 2 9 -22 0 -45 10 -49 138 -49
74 0 92 -3 93 -15 3 -28 4 -33 12 -41 4 -4 7 1 7 12 1 17 2 17 10 2 6 -9 19
-15 29 -13 12 2 21 -3 24 -14 4 -16 19 -18 123 -20 124 -2 134 -5 134 -48 0
-21 5 -23 48 -24 148 -2 144 -1 158 -39 7 -19 13 -29 13 -21 1 10 7 9 28 -4
19 -13 43 -18 79 -16 l53 2 3 -38 c3 -36 5 -38 41 -41 36 -3 37 -4 37 -43 l0
-39 236 0 236 0 -4 38 c-3 33 0 37 22 40 63 7 90 14 85 23 -4 5 -11 7 -16 4
-5 -4 -9 -1 -9 5 0 7 7 10 15 6 8 -3 27 -1 40 4 22 8 27 6 35 -13 8 -19 9 -17
9 16 l1 37 109 0 110 0 3 38 3 37 133 3 132 3 0 34 c0 37 10 48 35 39 13 -5
14 -8 3 -15 -10 -7 -10 -9 0 -9 22 0 13 -38 -10 -43 -13 -2 3 -5 35 -6 l57 -1
0 35 0 35 120 0 120 0 0 45 c0 43 1 45 30 45 25 0 30 -4 36 -35 6 -31 24 -50
24 -25 0 6 12 10 28 10 21 0 24 2 12 10 -13 8 -12 10 3 10 9 0 20 0 24 -1 3 0
10 6 15 15 6 11 23 16 53 16 45 0 45 0 45 35 0 33 2 35 35 35 32 0 35 -2 35
-29 0 -17 5 -33 10 -36 6 -4 10 8 10 30 0 36 1 36 38 34 20 -1 45 2 54 5 9 4
53 6 97 4 l80 -3 3 50 c3 48 4 50 35 53 27 3 33 -1 38 -21 6 -21 14 -25 67
-31 78 -8 277 -8 346 0 49 6 52 8 52 35 0 25 4 29 28 29 15 0 36 7 46 15 11 8
34 15 52 15 31 0 32 1 39 55 3 30 4 64 0 74 -4 14 0 23 14 30 17 10 19 20 16
128 -2 65 -4 137 -4 161 l-1 42 -50 0 -49 0 -3 83 -3 82 -40 1 -40 0 -3 103
-3 103 33 -2 c57 -3 58 -3 58 45 0 47 9 56 30 30 7 -8 21 -15 30 -15 10 0 20
-6 23 -12 3 -10 9 -10 26 0 26 15 41 8 42 -21 1 -16 4 -12 11 12 5 19 13 30
16 24 10 -15 52 -27 52 -14 0 5 -8 12 -17 14 -13 3 -12 5 5 6 13 0 20 5 17 11
-3 6 1 7 10 4 11 -5 16 -2 15 7 -5 31 2 34 85 34 79 0 84 1 90 23 3 13 3 27 0
31 -9 16 -144 24 -160 11 -13 -11 -15 -6 -15 29 l0 41 45 0 45 0 0 65 0 65 40
0 40 0 0 180 c0 137 -3 180 -12 180 -9 0 -9 3 1 9 8 5 31 7 53 4 l39 -4 -1
323 -1 323 45 3 46 3 0 43 c0 78 12 134 29 140 9 3 22 9 30 12 9 4 11 2 7 -5
-4 -6 -1 -11 7 -11 12 0 14 9 10 40 l-6 40 57 0 56 0 2 -107 c0 -60 2 -112 3
-118 2 -5 3 -15 4 -21 0 -6 19 -11 41 -11 l40 0 0 53 0 54 40 0 40 0 0 -690 0
-690 -130 0 -130 0 0 35 0 35 -50 0 -50 0 0 -40 0 -40 -44 0 c-46 0 -56 -9
-56 -56 0 -22 -4 -24 -45 -24 l-45 0 0 -114 c0 -92 -3 -115 -15 -120 -8 -3
-15 -14 -15 -25 0 -14 8 -21 28 -23 24 -3 27 -7 30 -46 l3 -42 95 0 94 0 0 39
c0 32 4 40 22 44 13 4 26 1 30 -6 5 -7 8 -2 8 14 0 26 2 26 86 33 51 4 91 3
96 -2 5 -5 8 -25 6 -43 l-3 -34 -92 -3 -93 -3 0 -75 c0 -67 -2 -76 -20 -81
-29 -8 -25 -30 8 -39 15 -4 31 -6 36 -5 6 1 20 0 33 -4 19 -4 23 -12 23 -45
l0 -40 95 0 95 0 0 53 c0 28 3 82 7 120 l6 67 123 0 124 0 1 -112 c1 -62 1
-116 0 -120 0 -5 42 -8 94 -8 l95 0 0 39 c0 37 2 40 33 43 l32 3 3 103 3 103
-88 -2 -88 -2 -3 46 -3 47 90 0 91 0 0 30 c0 20 5 30 15 30 11 0 15 -12 15
-50 0 -27 5 -50 10 -50 6 0 10 -20 10 -45 l0 -46 88 3 87 3 -1 37 c-1 36 -1
37 40 40 l41 3 3 143 3 142 -41 0 -40 0 0 40 0 40 -45 0 -45 0 0 40 0 40 -65
0 -65 0 0 -35 0 -35 -125 0 -125 0 0 765 0 765 69 0 c76 0 81 4 73 59 l-5 33
47 -3 46 -4 0 40 c0 54 11 69 48 63 27 -4 31 -1 36 25 3 16 6 40 6 53 0 21 5
24 41 24 l41 0 -4 48 -3 47 -43 3 -42 3 0 45 0 44 -40 0 -40 0 0 -48 0 -48
-40 4 -40 4 0 -56 0 -56 -83 0 -83 0 6 -50 c4 -27 3 -50 -2 -50 -4 0 -161 0
-348 0 -187 0 -344 0 -350 0 -5 0 -10 23 -10 50 l0 50 -39 0 -40 0 -3 53 -3
52 -37 3 c-38 3 -38 4 -38 48 l0 44 -50 0 -50 0 0 -90 0 -90 -45 0 -45 0 2
-462 3 -463 43 3 42 3 0 -122 0 -122 -230 5 -230 5 0 -38 0 -38 -82 -3 -83 -3
-3 -36 -3 -36 -61 -7 c-34 -3 -137 -6 -229 -6 l-168 0 -3 -37 c-3 -36 -5 -38
-43 -43 -40 -5 -40 -5 -43 -52 l-3 -48 -90 0 -89 0 0 -50 0 -50 -175 0 -175 0
0 55 0 55 -45 0 c-45 0 -45 0 -45 -35 l0 -35 -154 0 c-84 0 -181 -3 -215 -6
l-61 -7 0 -38 0 -39 -125 0 -125 0 0 -44 c0 -42 -2 -44 -32 -49 -44 -6 -48 -2
-48 44 0 39 0 39 -40 39 l-40 0 0 80 c0 74 1 80 23 85 12 3 123 6 247 7 l225
3 3 35 c2 19 9 38 15 42 7 4 83 8 170 8 l157 0 0 35 0 35 54 0 c29 0 67 3 84
6 27 5 31 11 34 43 l3 36 273 3 272 2 0 35 0 35 130 0 c107 0 132 3 136 15 5
12 26 15 100 15 l94 0 0 40 0 41 138 -2 137 -1 3 26 c3 21 9 26 32 26 40 0 60
9 53 26 -3 8 -2 26 1 40 6 22 11 25 39 22 30 -3 32 -1 35 30 l3 32 -68 -1
c-49 -1 -61 -3 -43 -9 l25 -8 -25 -2 c-23 -1 -23 -2 -5 -10 18 -8 18 -9 2 -9
-10 -1 -16 -5 -13 -10 11 -17 -26 -21 -264 -27 l-239 -7 -3 -36 -3 -36 -135
-3 c-107 -2 -138 -6 -152 -19 -10 -9 -18 -22 -18 -30 0 -12 -59 -16 -288 -18
-41 0 -42 -1 -42 -32 l0 -33 -67 -1 c-38 -1 -135 -4 -218 -8 l-150 -6 -3 -37
-3 -37 -127 -3 -127 -3 -5 -60 c-9 -104 -9 -103 -188 -104 l-155 -1 6 158 c4
86 7 277 7 425 l0 267 45 0 45 0 0 85 0 85 40 0 40 0 0 45 0 45 45 0 45 0 0
50 0 50 40 0 40 0 0 50 0 49 133 3 132 3 0 33 0 32 122 0 123 0 0 25 c0 25 0
25 95 25 69 0 95 3 96 13 1 6 2 19 3 27 1 12 20 16 92 18 l92 3 6 29 5 29 351
3 c371 3 360 4 360 -43 0 -16 7 -19 40 -19 l40 0 0 -42 c0 -42 -1 -43 -32 -42
-50 2 -58 -5 -58 -47 0 -39 0 -39 -40 -39 -32 0 -40 -4 -40 -18 0 -10 -5 -23
-12 -30 -9 -9 -9 -12 1 -12 10 0 9 -3 -1 -14 -11 -10 -58 -14 -209 -15 -106 0
-266 -4 -354 -7 l-160 -7 4 -40 3 -40 211 6 c116 4 279 7 364 7 l153 0 0 45 0
45 45 0 45 0 0 45 c0 36 3 45 18 45 9 0 27 3 40 6 22 6 22 5 22 -80 l0 -86 45
0 45 0 0 40 0 40 45 0 45 0 0 125 0 125 -51 0 -51 0 4 40 4 40 -83 0 -83 0 0
37 0 36 -127 -6 c-71 -4 -233 -7 -360 -7 l-233 0 0 -34 c0 -41 -13 -46 -118
-46 -65 0 -74 -2 -79 -20 -5 -18 -14 -20 -94 -20 -81 0 -89 -2 -89 -19 0 -25
-53 -34 -163 -29 l-77 3 0 -37 0 -38 -135 0 -135 0 0 -40 c0 -40 0 -40 -39
-40 l-40 0 -3 -48 -3 -47 -42 2 -42 2 -3 -52 -3 -52 -42 -3 -43 -3 0 -44 c0
-45 -10 -55 -55 -55 -23 0 -24 -3 -27 -82 l-3 -83 -46 -3 -46 -3 -6 -277 c-4
-152 -7 -341 -7 -419 l0 -143 -34 0 c-30 0 -34 4 -40 31 -3 17 -6 51 -6 75 l0
44 -100 0 c-55 0 -100 4 -100 8 0 5 -22 7 -50 4 l-50 -4 0 42 0 43 -55 -6 -55
-6 0 30 0 29 -110 0 -110 0 0 39 0 39 -62 6 c-35 3 -76 4 -93 3 -28 -2 -30 0
-33 39 l-3 41 -49 -5 c-27 -2 -83 -1 -124 3 l-75 7 -3 36 -3 37 -87 3 -88 3 0
34 0 35 -140 0 -140 0 0 45 0 45 -90 0 -90 0 0 40 0 40 -120 0 -120 0 0 40 0
40 -75 1 c-41 1 -79 3 -85 4 -5 1 -14 3 -20 4 -5 0 -10 17 -10 36 l0 35 -102
2 c-57 1 -115 2 -130 2 -26 1 -28 4 -28 38 l0 38 -85 0 -85 0 0 -45 0 -45 75
0 75 0 6 -40 7 -40 133 0 134 0 0 -35 0 -35 90 0 90 0 0 -50 0 -50 125 0 125
0 0 -55 0 -55 45 0 45 0 0 -67 c0 -83 -7 -95 -51 -91 -31 3 -34 6 -37 41 l-3
37 -59 0 c-76 0 -90 6 -90 40 0 31 -15 40 -66 40 -19 0 -34 5 -34 10 0 6 -12
10 -27 9 l-28 -1 25 -8 c22 -7 21 -8 -12 -9 -37 -1 -38 0 -38 33 l0 33 -77 7
c-42 3 -102 6 -135 6 l-58 0 -1 33 c-2 58 -11 72 -51 75 -33 3 -38 1 -38 -17
0 -20 -6 -21 -90 -21 l-90 0 0 35 0 35 -85 0 -85 0 0 174 0 175 -42 3 -43 3
-5 235 -5 235 -47 2 -48 2 0 -149 0 -150 -54 0 c-52 0 -55 1 -58 28 -3 27 -4
27 -85 30 -76 3 -82 4 -85 25 -3 21 -9 22 -95 25 l-93 3 0 34 0 35 -54 0 c-75
0 -86 6 -86 46 l0 34 -145 0 -145 0 0 40 0 40 -140 0 -140 0 0 45 0 45 -95 0
-95 0 0 40 0 40 -49 0 -50 0 0 338 c-1 360 3 422 25 422 10 0 14 -13 14 -45
l0 -45 115 0 115 0 0 -35 c0 -35 0 -35 44 -35 52 0 76 -21 58 -50 -16 -26 -7
-30 64 -30 l63 0 3 -42 3 -43 45 0 45 -1 3 -42 3 -42 245 0 244 0 0 40 0 40
80 0 79 0 3 -77 3 -78 40 -5 c39 -5 40 -6 43 -47 3 -40 4 -42 40 -45 36 -3 37
-4 40 -45 3 -42 4 -43 38 -43 31 0 34 -2 34 -30 l0 -30 120 0 120 0 0 -26 c0
-24 -3 -26 -35 -22 l-35 4 0 -58 0 -58 -45 0 -45 0 0 -45 0 -45 45 0 45 0 0
45 0 45 45 0 45 0 0 41 0 41 260 -7 260 -8 0 37 0 36 45 0 45 0 0 44 c0 41 -2
44 -32 50 -18 3 -76 5 -129 5 l-96 -1 3 -25 c3 -30 11 -39 39 -46 11 -3 -13
-5 -53 -6 -53 -1 -74 3 -78 13 -3 8 -28 16 -63 19 -75 8 -91 15 -102 44 -8 22
-13 24 -50 18 -38 -7 -40 -6 -34 17 8 35 -9 53 -52 53 -36 0 -38 2 -41 34 -4
38 9 51 50 51 25 0 27 3 30 48 3 46 4 47 38 50 41 4 50 15 50 60 l0 32 80 0
80 0 0 -29 c0 -57 5 -61 91 -61 l79 0 0 28 c0 40 11 50 55 54 35 3 40 6 43 31
3 22 8 27 30 27 57 0 72 10 72 46 0 32 1 33 48 36 46 3 47 4 50 38 4 38 15 50
50 50 19 0 22 5 22 39 0 38 1 39 40 46 39 7 40 8 40 46 l0 39 48 0 c26 0 64 3
85 6 l37 7 0 78 0 79 -40 0 -40 0 0 -45 0 -45 -84 0 -84 0 -7 -40 c-6 -35 -10
-40 -41 -46 -33 -6 -34 -8 -34 -50 l0 -44 -45 0 -45 0 0 -45 c0 -43 -1 -45
-29 -45 -16 0 -35 -8 -42 -17 -10 -11 -10 -14 -1 -9 7 4 12 1 12 -8 0 -19 11
-21 27 -5 9 9 12 7 10 -10 -1 -20 -7 -21 -84 -21 l-83 0 0 85 c0 82 1 85 25
91 14 3 31 4 39 1 14 -5 26 55 26 131 0 31 1 32 45 32 l45 0 0 45 0 45 50 0
50 0 0 40 0 40 125 0 125 0 0 45 0 45 -130 0 -130 0 0 -40 0 -40 -45 0 c-47 0
-49 -2 -45 -52 1 -25 -1 -27 -47 -30 l-48 -3 -3 -42 -3 -43 -45 0 -44 0 0 -88
0 -88 -164 -3 -165 -2 -3 43 -3 43 -47 -3 -48 -4 0 41 0 41 -80 0 -80 0 0 -45
0 -44 68 -3 67 -3 3 -34 c2 -19 11 -41 20 -48 14 -10 14 -12 3 -13 -12 0 -12
-3 -3 -12 7 -7 12 -36 12 -65 l0 -53 -45 0 -45 0 0 -40 0 -40 50 0 50 0 0 40
c0 22 5 40 11 40 5 0 7 5 3 12 -5 8 0 9 17 5 13 -4 28 -7 32 -7 4 0 7 -33 5
-72 l-3 -73 -36 -3 c-34 -3 -37 -6 -43 -42 -6 -37 -9 -40 -46 -46 -38 -6 -40
-8 -40 -44 0 -44 -25 -57 -59 -33 -17 12 -21 25 -21 74 l0 59 -40 0 c-22 0
-39 3 -39 8 1 4 1 24 0 45 -1 36 -2 37 -41 37 l-40 0 0 70 0 70 -35 0 -35 0 0
63 c0 34 -3 79 -6 100 -7 37 -7 37 29 37 41 0 47 10 47 85 l0 54 38 3 c33 3
37 6 40 34 3 28 8 33 38 39 19 3 149 5 289 3 194 -3 256 -1 259 9 3 6 3 27 0
45 l-6 33 -164 -3 -164 -3 0 48 0 49 -40 -4 c-34 -3 -40 -1 -40 14 0 11 -3 29
-6 42 l-6 22 132 0 132 0 -4 40 -4 40 43 0 c42 0 43 0 43 -35 l0 -35 89 0 c82
0 89 -2 94 -21 15 -58 -12 -93 -68 -86 -16 2 -21 -5 -23 -35 l-3 -38 44 0 c42
0 43 1 39 28 -4 28 -2 29 38 29 49 0 60 12 60 71 l0 42 218 -2 217 -3 5 -70
c5 -64 7 -70 28 -71 12 -1 67 -2 122 -3 l100 -1 0 -40 0 -40 -80 0 -80 0 0
-40 0 -40 85 0 85 0 0 40 0 40 190 0 190 0 0 -35 c0 -34 1 -35 43 -36 23 -1
57 -1 75 0 l32 3 0 -51 0 -51 -40 0 -40 0 0 -40 0 -40 -92 -1 c-51 0 -133 -1
-183 -2 l-90 -2 -3 -37 -3 -38 -67 -2 c-37 -1 -76 -2 -87 -2 -16 -1 -21 -10
-25 -41 -5 -38 -7 -40 -42 -43 l-38 -3 0 -50 c0 -39 -3 -49 -17 -50 -42 -3
-64 -7 -67 -10 -2 -2 -6 -22 -8 -44 l-3 -40 48 -3 47 -3 0 45 0 46 39 0 39 0
6 53 7 54 35 -2 c18 -2 34 1 34 6 0 5 64 10 143 11 l142 3 3 33 3 32 90 0 89
0 0 40 0 40 45 0 45 0 0 45 0 45 245 0 245 0 0 -40 0 -40 200 0 200 0 0 -46 0
-46 55 4 55 3 0 -42 0 -43 58 -2 c31 -1 69 -2 85 -2 25 -1 27 -4 27 -38 l0
-38 85 0 85 0 0 -40 0 -40 40 0 40 0 0 -40 c0 -42 1 -43 55 -44 27 -1 30 -4
33 -38 l3 -38 212 -2 212 -3 3 -42 3 -43 225 0 224 0 0 -45 0 -45 63 0 c35 0
98 -3 140 -6 l77 -7 0 -43 0 -44 90 0 90 0 0 -40 0 -40 90 0 90 0 0 -40 c0
-40 0 -40 39 -40 39 0 40 -1 43 -37 l3 -38 93 -3 92 -3 0 -47 0 -47 45 3 45 4
0 -46 c0 -42 2 -46 28 -51 66 -14 62 -17 62 40 0 56 -9 65 -67 65 -20 0 -23 5
-23 45 l0 45 -45 0 -45 0 0 40 0 39 -92 3 -92 3 -1 35 c0 33 -2 35 -37 38 -36
3 -38 5 -38 36 l0 33 -90 7 c-85 7 -90 9 -90 30 0 13 -3 51 -6 85 l-7 61 137
0 136 0 0 46 0 47 45 -5 c43 -5 45 -4 46 21 3 56 3 56 47 59 42 3 42 3 42 43
l0 39 45 0 45 0 0 40 0 40 90 0 90 0 0 -390 0 -390 50 0 50 0 0 898 c-1 493
-4 909 -7 925 -5 24 -9 27 -49 27 l-44 0 0 65 0 65 -47 0 -48 0 5 -67 5 -68
39 0 c24 0 41 -5 44 -14 2 -7 1 -191 -3 -408 l-7 -395 -38 4 c-37 3 -38 2 -44
-32 -3 -19 -6 -50 -6 -67 0 -18 -4 -33 -10 -33 -5 0 -10 6 -10 13 0 28 -42 39
-139 36 l-96 -4 -3 40 -3 40 -89 -3 -90 -4 0 206 0 206 -45 0 -45 0 0 -245 0
-245 -84 0 c-98 0 -96 -2 -96 106 l0 74 -46 0 -45 0 3 43 3 42 43 -2 44 -2 -4
64 -3 64 31 6 c17 3 39 3 48 -1 14 -5 16 6 16 95 l0 101 45 0 45 0 0 75 0 75
45 0 45 0 0 45 0 45 45 0 45 0 0 81 0 81 43 -4 42 -3 3 83 3 82 84 0 84 0 3
-47 3 -48 48 -3 47 -3 0 50 0 51 -50 0 -50 0 0 45 0 45 -84 0 -85 0 -3 43 -3
42 -49 -3 -48 -3 6 45 7 46 -45 0 -46 0 0 45 0 45 -44 0 -44 0 6 45 c4 38 2
45 -13 45 -11 0 -15 5 -11 15 8 20 14 42 9 33 -3 -5 -9 -8 -14 -8 -6 0 -7 5
-4 10 3 6 1 10 -4 10 -6 0 -11 -6 -11 -12 0 -7 -6 -4 -12 6 -10 18 -12 15 -24
-25 -8 -24 -14 -61 -14 -81 0 -37 -1 -38 -39 -38 -22 0 -42 5 -44 13 -3 6 -6
-14 -6 -45 l-1 -58 -45 0 -45 0 0 -40 0 -40 -50 0 c-50 0 -50 0 -51 -32 0 -18
-3 -27 -6 -20 -2 6 -14 12 -24 12 -11 0 -18 4 -15 9 7 10 -19 23 -28 14 -3 -4
-6 -19 -6 -35 l0 -28 -89 0 -90 0 -3 38 c-3 36 -4 37 -39 34 -41 -4 -56 9 -61
53 -3 28 -7 30 -45 33 l-43 3 0 46 0 46 -44 -6 -44 -6 -4 78 c-4 113 -6 111
58 111 l54 0 0 39 c0 22 5 42 13 44 6 3 -18 6 -55 6 l-68 1 0 -35 c0 -35 -1
-35 -42 -35 l-43 0 2 117 2 118 88 5 c76 4 88 7 87 23 -1 9 -2 26 -3 37 -1 18
-8 20 -86 20 l-85 0 0 45 0 45 40 0 40 0 0 40 0 40 230 0 230 0 0 -40 0 -40
44 0 c44 0 45 0 48 -37 3 -37 4 -38 46 -41 l42 -3 0 -135 0 -134 95 0 95 0 0
50 0 50 85 0 85 0 0 -44 0 -44 -37 1 -37 2 -4 -45 -3 -46 41 4 42 4 -3 -51 -4
-51 43 0 42 0 0 48 0 47 45 -3 45 -4 0 261 0 261 -45 0 -45 0 0 40 0 40 -40 0
-40 0 0 44 c0 48 -9 56 -61 56 l-29 0 0 85 0 85 -45 0 -45 0 0 45 0 45 -45 0
-45 0 0 39 0 40 -47 3 -48 3 -3 42 -3 42 -225 3 -224 3 0 -47 0 -48 -40 0
c-39 0 -40 -1 -46 -40 -6 -40 -7 -40 -50 -40 l-44 0 0 -45 0 -45 -45 0 -45 0
0 -59 c0 -32 -3 -73 -6 -90 -6 -28 -10 -31 -45 -31 l-39 0 0 -45 0 -45 -45 0
-45 0 0 -205 0 -205 45 0 45 0 0 -94 0 -94 40 5 40 6 0 -96 0 -96 48 -3 c33
-2 47 -7 48 -18 1 -8 2 -45 2 -82 l2 -68 45 0 45 0 0 -40 0 -40 49 0 c48 0 50
-1 48 -27 -2 -27 0 -28 41 -26 42 2 42 1 42 -33 0 -34 0 -34 -45 -34 l-45 0 0
-50 0 -50 -45 0 -45 0 0 -60 0 -60 -50 0 -50 0 0 -165 0 -165 -45 0 -45 0 0
-166 0 -166 -40 4 -40 4 0 -78 0 -78 -130 0 -130 0 0 -34 c0 -34 0 -34 -39
-29 l-40 5 -3 -43 c-3 -43 -4 -44 -38 -44 -34 0 -35 1 -38 43 l-3 42 -45 0
-44 0 0 -51 0 -50 -52 3 c-33 2 -53 8 -54 16 -1 6 -2 26 -3 42 l-1 30 -110 0
-110 0 0 40 0 40 -65 0 -65 0 0 40 0 40 -190 0 -190 0 0 45 0 45 -207 2 -208
3 2 37 2 37 -92 3 -92 3 -3 43 -3 43 -37 -3 -37 -3 -3 63 -3 62 -49 0 -50 0 0
50 0 50 -87 2 c-49 1 -106 2 -128 3 l-40 0 -3 88 -3 87 -39 0 -40 0 0 50 0 50
-44 0 c-50 0 -58 10 -49 64 l6 36 -47 0 -46 0 0 43 c0 24 -2 46 -4 48 -3 3
-23 3 -46 1 l-41 -4 3 -47 3 -46 40 0 40 0 3 -47 3 -47 42 -3 42 -3 3 -47 3
-48 39 0 39 0 3 -92 c3 -91 3 -93 28 -94 57 -2 57 -3 56 -41 l-1 -37 53 3 c29
1 66 0 82 -4 26 -6 30 -11 30 -40 0 -33 1 -34 48 -37 45 -3 47 -4 50 -35 l3
-33 -89 0 c-65 0 -90 3 -89 13 0 6 -1 24 -1 40 -2 27 -2 27 -32 12 -27 -14
-31 -14 -36 0 -4 10 -20 15 -50 15 -44 0 -44 0 -44 35 0 34 -1 35 -40 35 l-40
0 0 40 0 40 -400 0 -400 0 0 40 0 40 45 0 45 0 0 200 0 200 -45 0 -45 0 0 85
0 85 178 2 177 3 5 48 6 47 -228 0 -228 0 0 40 0 40 -47 0 -48 0 0 47 0 48
-77 3 -78 3 0 44 0 44 -47 3 c-48 3 -48 3 -51 41 -3 37 -4 37 -48 37 l-44 0 0
45 0 45 -200 0 -200 0 0 -44 0 -45 -47 -6 c-58 -7 -79 -18 -75 -38 3 -17 -71
-37 -138 -37 l-38 0 -7 -50 -7 -50 -39 0 -39 0 0 -45 0 -45 -45 0 -45 0 0 -45
0 -45 -40 0 -40 0 0 -84 0 -84 -35 -6 c-33 -7 -35 -9 -35 -46 l0 -40 -85 0
-85 0 0 -45 0 -44 -132 -3 -133 -3 -3 -42 -3 -43 135 0 135 0 3 40 c2 22 6 40
11 40 4 0 41 0 82 0 l75 0 0 -60 0 -60 34 0 c34 0 35 -1 38 -42 3 -42 4 -43
41 -43 37 0 37 0 37 -42 l0 -43 45 0 45 0 0 -45 c0 -25 3 -45 8 -45 40 -2 160
-12 169 -15 6 -2 13 -21 15 -42 l3 -38 87 -3 87 -3 3 -42 3 -42 52 -3 51 -3 7
-39 7 -40 114 0 c107 0 114 -1 114 -20 0 -13 -9 -22 -27 -26 -34 -8 -43 -20
-43 -56 0 -25 -4 -28 -34 -28 -32 0 -35 -2 -41 -40 -6 -38 -8 -40 -44 -40
l-38 0 -6 -142 c-4 -79 -7 -171 -7 -205 l0 -63 -45 7 -45 6 0 -52 0 -51 -242
2 -243 3 -3 48 -3 47 -40 -6 -39 -7 0 47 0 46 -45 0 -45 0 0 39 c0 36 -3 40
-30 46 -26 6 -30 11 -30 39 l0 33 -101 6 c-55 3 -114 4 -130 0 -28 -5 -29 -4
-29 30 0 39 -16 50 -61 42 l-27 -5 -7 87 c-4 49 -5 370 -3 715 l3 628 38 0 37
0 0 100 0 100 -35 0 -35 0 0 150 0 150 45 0 45 0 0 63 0 63 -39 -3 c-36 -2
-40 1 -43 25 -2 15 -8 -6 -12 -45 l-9 -73 -42 0 -43 0 1 78 c0 69 -1 77 -19
77 -28 1 -44 14 -38 30 4 8 -3 15 -18 17 l-23 3 -3 428 -2 427 29 0 c26 0 30
-4 36 -40 l7 -40 48 0 c44 0 48 -2 53 -27 7 -38 -3 -46 -57 -42 -47 4 -56 -2
-56 -42 0 -17 8 -19 60 -19 l60 0 0 -30 0 -30 -61 0 -60 0 3 -32 c3 -33 4 -33
61 -36 53 -3 57 -5 57 -27 0 -24 -3 -25 -55 -25 l-55 0 0 -44 0 -45 99 -3 98
-3 7 104 c3 57 6 166 6 243 l0 138 33 0 32 0 -3 -417 c-4 -432 -4 -439 -44
-429 -14 3 -18 -2 -18 -28 0 -18 -5 -37 -11 -43 -8 -8 -7 -13 2 -18 8 -5 10
-4 5 3 -5 9 16 12 78 12 l86 0 0 505 0 505 -80 0 -80 0 0 -40 0 -40 -111 0
-111 0 6 28 c3 15 8 46 11 68 6 40 8 42 48 47 24 3 68 3 100 0 l57 -6 0 101
c0 107 2 112 56 112 l25 0 -7 105 -7 105 47 0 46 0 0 45 0 45 -100 0 -100 0 0
-115 0 -115 -114 0 -113 0 -6 66 c-2 36 -7 67 -10 70 -5 6 -498 7 -503 1 -2
-1 -4 -19 -6 -40 l-2 -37 -123 0 -123 0 0 40 0 40 -45 0 c-38 0 -45 3 -46 20
-1 11 -2 26 -3 32 0 7 -14 16 -31 19 -16 4 101 7 262 8 289 1 292 1 298 -20 6
-17 9 -19 16 -8 4 8 4 16 -2 20 -6 3 -10 9 -10 13 1 3 1 24 1 46 l0 40 -320 0
c-176 0 -321 -3 -321 -7z m861 -318 l0 -55 49 0 48 0 5 -67 c3 -38 4 -86 3
-108 -2 -22 -3 -52 -4 -67 -1 -27 -3 -28 -51 -28 l-50 0 0 -505 0 -505 49 0
c41 0 51 -4 56 -20 3 -11 3 -29 0 -41 -4 -12 -4 -41 0 -65 6 -42 8 -44 40 -44
21 0 35 -6 39 -16 3 -9 6 -76 6 -150 l0 -134 -40 0 -40 0 0 -95 0 -95 40 0 40
0 0 -295 0 -295 -40 0 -40 0 0 -50 c0 -50 0 -50 -32 -51 -18 -1 -39 -1 -45 0
-9 1 -13 -13 -13 -44 l0 -45 -94 0 -95 0 -3 -32 -3 -33 -67 -3 c-60 -3 -68 -5
-68 -22 0 -17 -7 -20 -45 -20 l-45 0 0 -40 0 -41 41 3 c22 1 43 6 45 10 3 4
52 8 109 8 l104 0 3 38 c3 32 7 37 31 40 l27 3 0 -90 0 -90 -52 -3 c-52 -3
-53 -4 -56 -35 -3 -29 -7 -33 -33 -33 -21 0 -29 5 -29 18 0 14 -2 15 -10 2 -5
-8 -10 -27 -10 -42 0 -26 -3 -28 -40 -28 l-40 0 0 -50 0 -50 48 0 48 0 -4 40
-4 40 81 0 81 0 0 -29 c0 -53 -8 -61 -61 -61 l-49 0 0 -80 0 -80 -75 0 -75 0
0 -48 0 -47 -46 3 -46 4 7 80 c5 58 3 83 -5 88 -15 9 -14 283 0 288 14 5 13
92 -1 92 -8 0 -10 407 -8 1515 l4 1515 208 0 207 0 0 -55z m290 -119 l0 -44
-47 6 c-27 2 -49 5 -50 6 -1 1 0 19 4 39 5 36 7 37 49 37 l44 0 0 -44z m-880
-26 c0 6 18 10 40 10 l40 0 0 -505 c0 -278 -3 -505 -7 -506 -5 0 -36 -2 -70
-3 l-63 -2 0 501 c0 276 3 504 6 508 3 3 17 2 30 -3 15 -6 24 -6 24 0z m6988
-676 l61 -7 7 -42 6 -42 39 7 c42 8 44 6 51 -60 3 -22 9 -25 46 -28 l42 -3 0
-85 0 -84 39 0 c41 0 51 -13 51 -68 0 -20 3 -22 39 -16 l40 6 3 -48 c3 -49 3
-49 41 -52 l37 -3 0 -69 c0 -38 -3 -71 -8 -74 -4 -2 -6 13 -4 35 4 33 1 39
-15 39 -10 0 -25 6 -32 13 -10 10 -11 9 -6 -5 6 -16 1 -18 -42 -18 l-50 0 6
-37 c6 -35 9 -38 44 -41 36 -3 37 -4 37 -43 l0 -39 -84 0 -85 0 -3 43 -3 42
-42 -3 c-41 -2 -43 -1 -43 27 0 50 -9 61 -50 61 -37 0 -38 2 -45 40 l-7 40
-90 0 -90 0 3 41 3 42 -237 5 -237 5 0 -44 c0 -48 5 -45 -76 -40 -16 1 -13
161 2 161 8 0 10 15 6 45 l-5 45 44 0 44 0 -3 45 -4 45 46 0 c45 0 46 1 46 33
0 49 11 60 54 52 l36 -7 0 46 0 46 164 0 c89 0 191 -3 224 -6z m-6913 -3449
l0 -2775 -67 0 -68 0 0 2769 0 2770 28 4 c15 2 45 5 67 5 l40 2 0 -2775z
m2285 2465 c0 -11 -5 -20 -12 -20 -9 0 -9 -3 0 -12 24 -24 10 -28 -97 -28
l-109 0 -5 27 c-9 50 -3 53 114 53 102 0 109 -1 109 -20z m-1486 -26 c18 -46
-7 -76 -58 -72 -23 2 -26 7 -26 39 0 19 3 39 7 42 13 14 71 7 77 -9z m1574
-55 c3 -11 2 -11 -7 1 -9 13 -11 13 -11 -2 0 -9 5 -20 10 -23 17 -10 11 -25
-9 -25 -11 0 -23 -4 -26 -10 -13 -22 -34 -10 -31 18 2 15 4 32 5 39 0 6 11 14
24 16 31 6 40 3 45 -14z m-617 -156 c14 -18 20 -21 15 -9 -5 14 -2 17 9 12 10
-3 15 1 16 12 1 33 18 -21 18 -61 1 -37 2 -38 34 -35 30 3 32 6 35 44 l3 42
44 -2 c23 0 41 -4 38 -8 -2 -5 1 -8 6 -8 6 0 11 -13 11 -28 0 -25 4 -28 37
-30 40 -3 53 -14 53 -49 0 -12 8 -27 18 -32 15 -9 15 -10 -5 -11 -19 0 -22 -6
-25 -42 -3 -43 -3 -43 -45 -46 l-43 -3 0 74 c0 80 -5 87 -56 87 -21 0 -24 -5
-24 -35 0 -36 -1 -36 -55 -39 -16 -1 -20 -8 -20 -41 0 -45 -13 -55 -59 -45
-28 5 -31 10 -34 48 -3 42 -3 42 -43 42 l-39 0 0 41 c0 36 -2 41 -20 36 -11
-3 -20 0 -20 6 0 8 -3 7 -9 -1 -4 -8 -12 -12 -17 -10 -5 1 -10 -34 -12 -80
l-3 -83 -37 3 -37 3 -2 64 c-3 74 10 105 38 98 22 -6 39 18 39 57 0 32 20 45
21 14 1 -17 3 -18 6 -5 6 24 22 21 33 -5 l9 -23 2 25 c1 17 4 12 8 -15 5 -35
9 -40 30 -37 14 1 28 -3 33 -10 4 -8 8 9 8 40 l0 52 -47 1 c-43 1 -45 2 -18 9
59 15 83 11 106 -17z m707 -42 l3 -44 -80 5 -81 5 0 -44 0 -43 80 0 80 0 0 34
c0 30 4 34 31 40 60 12 62 10 57 -39 l-6 -45 89 0 89 0 0 -90 0 -90 40 0 40 0
0 -189 0 -190 -42 -3 c-43 -3 -43 -3 -46 -45 -4 -49 14 -45 -187 -44 -72 0
-103 -3 -90 -9 15 -6 3 -9 -45 -11 -60 -2 -62 -2 -25 -9 l40 -7 -45 -3 c-39
-3 -41 -4 -12 -7 50 -7 38 -22 -18 -21 l-50 0 0 34 0 34 -65 0 -65 0 0 40 c0
42 -4 45 -62 41 -27 -2 -28 0 -28 43 0 45 0 45 -37 48 l-38 3 -3 153 -3 152
40 0 c40 0 40 0 43 43 3 41 4 42 41 45 l37 3 0 130 0 130 158 -3 157 -3 3 -44z
m4792 -70 c0 -50 9 -61 50 -61 37 0 38 -2 45 -40 7 -39 8 -40 46 -40 l39 0 0
-114 c0 -63 -3 -121 -6 -130 -4 -11 -19 -16 -45 -16 l-39 0 0 -70 0 -70 -39 0
c-43 0 -51 -10 -51 -66 0 -33 -1 -34 -40 -34 -34 0 -41 -4 -46 -25 -3 -14 -4
-39 -2 -55 5 -30 4 -30 -46 -30 l-51 0 3 100 3 100 45 0 44 0 -1 160 0 160
-40 0 c-39 0 -39 0 -39 -40 l0 -40 -95 0 -95 0 0 79 0 78 28 1 c15 0 56 4 92
9 57 7 65 11 63 28 -2 11 0 31 2 45 5 23 9 25 50 22 l45 -4 0 41 0 41 40 0
c38 0 40 -2 40 -29z m-462 -849 l2 -622 -45 0 -45 0 0 284 0 285 -42 3 -43 3
0 180 c-1 99 1 195 4 213 4 33 5 34 42 30 l39 -4 0 122 c0 132 1 134 55 130
l30 -2 3 -622z m-178 437 l0 -60 -42 3 c-43 3 -43 3 -46 47 -5 62 1 71 48 71
l40 0 0 -61z m470 1 l0 -50 -95 0 -95 0 0 43 0 42 90 -3 c59 -2 90 0 90 7 0 6
2 11 5 11 3 0 5 -22 5 -50z m-562 -277 l2 -213 45 0 45 0 0 -240 0 -240 -45 0
-45 0 0 140 0 140 -49 0 c-43 0 -48 -2 -48 -22 -1 -13 -1 -38 -2 -55 l-1 -33
-85 0 -85 0 0 45 0 45 45 0 45 0 0 155 0 155 45 0 45 0 0 163 c0 90 3 167 7
171 4 4 23 6 43 4 l35 -3 3 -212z m-5820 142 c7 -7 7 -464 -1 -471 -3 -3 -37
-2 -76 2 l-71 7 0 121 c0 66 -3 151 -7 189 l-6 67 42 0 41 0 0 44 c0 34 4 45
18 49 20 4 52 0 60 -8z m-5 -492 c-7 -2 -19 -2 -25 0 -7 3 -2 5 12 5 14 0 19
-2 13 -5z m-85 -151 l3 -44 42 4 42 3 3 -447 2 -448 -35 0 c-33 0 -35 2 -35
35 l0 35 -95 0 -95 0 0 35 0 34 -122 3 -123 3 -3 43 -3 42 -50 0 -49 0 0 173
c0 94 3 209 7 254 l6 82 123 -6 124 -6 0 36 0 37 45 0 45 0 0 50 0 50 43 -3
42 -2 3 43 c3 43 3 43 40 40 36 -3 37 -4 40 -46z m5822 -139 c0 -5 3 -18 6
-30 6 -22 3 -23 -45 -23 l-51 0 0 -62 0 -63 -42 0 c-42 0 -43 -1 -46 -37 -3
-37 -4 -38 -43 -38 l-39 0 0 -45 0 -45 -40 0 -40 0 0 40 0 40 -46 0 c-25 0
-43 4 -40 9 3 5 3 22 0 37 -5 27 -8 29 -49 26 l-44 -4 -3 -81 -3 -82 -40 0
-40 0 -3 128 -3 127 46 0 45 0 0 40 0 40 54 0 c88 0 116 -9 116 -36 0 -22 4
-24 45 -24 l45 0 0 45 0 45 130 0 c72 0 130 -3 130 -7z m1082 -105 l3 -43 80
0 c80 0 80 0 83 -28 3 -27 2 -27 -37 -21 l-40 6 -3 -43 c-3 -44 -3 -44 -45
-47 -41 -3 -43 -4 -43 -36 0 -32 -2 -34 -46 -40 -26 -3 -64 -6 -85 -6 -38 0
-39 -1 -39 -35 0 -20 -5 -36 -12 -37 -7 -1 -252 -2 -545 -3 l-531 -2 1 86 2
86 48 3 c46 3 47 4 47 37 0 33 1 34 43 37 41 3 42 4 45 41 l3 37 90 0 89 0 0
-37 c0 -37 1 -38 37 -38 35 0 38 -2 41 -32 3 -32 4 -33 53 -33 42 0 49 3 49
20 0 19 7 20 135 20 l135 0 0 30 c0 30 0 30 58 30 31 0 74 3 95 6 35 6 37 9
37 44 l0 37 124 2 125 2 3 -43z m265 -4 c-3 -3 -12 -4 -19 -1 -8 3 -5 6 6 6
11 1 17 -2 13 -5z m-5073 -52 c-6 -4 -10 -19 -9 -34 1 -16 -4 -29 -13 -33 -10
-3 -12 0 -8 10 3 10 -1 15 -12 16 -16 1 -16 2 1 6 9 2 17 13 17 24 0 11 7 19
18 19 10 0 13 -3 6 -8z m-2514 -542 l0 -40 119 0 c128 0 131 -1 131 -56 0 -21
4 -24 40 -24 37 0 41 -3 47 -31 l6 -31 81 3 81 4 3 -78 3 -77 -91 0 -90 0 0
46 0 46 -45 -4 c-25 -2 -45 0 -45 4 0 5 -34 8 -75 8 l-75 0 0 40 c0 25 -5 40
-12 40 -32 1 -154 12 -165 15 -14 5 -19 156 -6 168 3 4 26 7 50 7 l43 0 0 -40z
m710 -245 l0 -45 90 0 90 0 0 -40 0 -40 139 0 140 0 3 -42 3 -43 117 -3 117
-3 3 -37 3 -37 88 -3 87 -3 0 -38 0 -38 53 -7 c28 -3 85 -6 125 -6 l72 0 0
-45 0 -45 118 0 c79 0 112 -3 102 -10 -13 -9 -13 -10 0 -10 12 0 12 -2 2 -9
-8 -4 -14 -12 -15 -17 -1 -5 -5 -8 -9 -7 -5 2 -8 -1 -8 -6 0 -11 50 -21 101
-21 l39 0 0 -93 0 -94 -37 6 c-36 6 -38 8 -41 49 -2 31 -8 42 -20 43 -9 1 -26
3 -37 4 -11 1 -62 3 -112 3 l-93 2 0 34 c0 31 -3 34 -37 40 -21 3 -57 6 -80 6
l-43 0 0 39 0 39 -97 7 c-127 8 -128 8 -129 23 -1 6 -2 17 -3 23 0 5 -5 8 -10
5 -5 -4 -12 0 -14 6 -3 7 -6 0 -7 -17 l-2 -30 -8 30 -8 30 -2 -30 c-3 -27 -3
-26 -9 10 l-6 40 -57 3 -58 3 0 33 0 34 -134 7 -135 7 -3 31 c-3 31 -5 32 -45
31 -24 -1 -43 2 -43 7 0 5 -40 9 -90 9 l-90 0 0 40 0 40 -49 0 c-58 0 -59 2
-60 108 l-1 72 50 0 50 0 0 -45z m-431 -121 c28 -6 31 -10 31 -45 l0 -39 136
0 c123 0 135 -2 133 -17 -1 -10 0 -22 1 -28 1 -5 3 -17 4 -25 1 -11 16 -16 59
-18 l57 -3 0 -43 0 -44 68 -8 c37 -4 75 -8 85 -7 11 0 16 -5 13 -12 -3 -8 5
-16 20 -19 50 -13 21 -25 -68 -29 -69 -2 202 -10 335 -10 13 0 17 -8 17 -37
l0 -38 110 -7 110 -7 0 -27 c0 -47 8 -50 153 -57 76 -4 135 -9 132 -12 -3 -3
0 -11 6 -19 9 -10 8 -13 0 -13 -23 0 17 -30 41 -31 22 0 22 -1 3 -9 -15 -7
-10 -9 23 -9 l42 -1 0 -52 c0 -29 3 -83 7 -120 l6 -68 33 0 34 0 0 -395 c0
-352 -2 -396 -16 -402 -13 -5 -13 -7 -2 -14 10 -7 10 -9 -2 -9 -9 -1 -5 -5 8
-10 23 -10 23 -10 17 -167 -3 -86 -7 -158 -8 -159 -1 -1 -37 -4 -79 -6 l-78
-5 0 44 0 43 -55 0 -55 0 0 45 0 45 -65 0 -65 0 -2 298 c-1 163 -3 423 -3 577
l0 280 -47 3 -48 3 0 40 0 39 -120 0 -120 0 0 45 0 45 -75 0 -75 0 0 39 0 38
-82 6 c-46 4 -107 7 -135 7 l-53 0 0 45 0 45 -81 0 -81 0 7 40 7 40 -110 0
-110 0 1 43 2 42 -47 3 c-44 3 -48 5 -49 30 0 15 -2 36 -4 47 -2 11 1 23 8 28
9 6 8 7 -3 5 -14 -4 -50 20 -50 34 0 4 9 5 20 3 11 -2 20 0 20 5 0 5 -21 11
-47 13 l-48 3 51 2 c28 1 66 -1 83 -4z m-114 -24 c-27 -12 -43 -12 -25 0 8 5
22 9 30 9 10 0 8 -3 -5 -9z m33 -47 c-10 -2 -26 -2 -35 0 -10 3 -2 5 17 5 19
0 27 -2 18 -5z m7122 -143 c0 -39 -1 -40 -35 -40 -29 0 -36 4 -41 25 -10 40 1
55 41 55 34 0 35 -1 35 -40z m455 -20 c0 -30 1 -85 3 -122 l2 -68 38 0 39 0 6
-220 c3 -122 3 -286 0 -365 -6 -141 -7 -145 -28 -145 -35 0 -44 -20 -48 -105
-2 -56 -4 -40 -5 53 l-2 132 -40 0 -40 0 0 451 0 450 38 -3 37 -3 0 -55z m295
-300 c0 -5 -5 -10 -11 -10 -5 0 -7 5 -4 10 3 6 8 10 11 10 2 0 4 -4 4 -10z
m-7440 -20 l69 0 3 -37 3 -38 87 3 87 3 3 -43 3 -43 112 4 112 3 3 -38 c3 -36
6 -39 39 -44 33 -5 36 -7 35 -40 l0 -35 92 -3 92 -3 -5 -191 c-5 -193 -9 -213
-43 -201 -8 3 -17 1 -21 -5 -4 -8 -25 -9 -59 -5 -49 5 -52 7 -52 34 0 26 -2
27 -35 22 -23 -4 -35 -2 -35 6 0 7 -23 11 -65 11 -62 0 -65 1 -65 24 0 55 -2
56 -146 56 l-134 0 0 46 0 46 -57 -2 c-32 -1 -75 -2 -95 -1 l-38 1 0 203 c0
229 5 281 27 273 8 -4 45 -6 83 -6z m7891 1 c6 10 9 10 9 2 0 -7 9 -13 21 -13
16 0 20 -5 17 -27 -3 -23 -7 -26 -43 -27 -34 -1 -40 2 -45 24 -9 36 -2 54 17
38 11 -9 16 -9 24 3z m42 -279 c4 -37 7 -361 7 -719 1 -639 3 -696 31 -652 6
10 9 10 9 2 0 -7 7 -10 17 -6 10 4 14 2 10 -4 -4 -6 -1 -14 5 -16 7 -3 -3 -4
-22 -2 -19 1 -26 0 -15 -2 11 -3 24 -9 29 -14 6 -5 -39 -8 -115 -8 -68 1 -114
4 -101 6 12 2 22 9 22 14 0 6 4 8 9 5 27 -17 31 57 31 618 0 315 3 634 6 708
l7 135 32 1 32 1 6 -67z m-4853 -272 l0 -40 80 0 80 0 0 -40 0 -40 128 -2 c70
-1 142 -1 160 1 32 2 32 1 32 -44 l0 -45 85 0 c84 0 85 0 91 -27 5 -17 3 -28
-4 -31 -35 -11 2 -17 115 -17 l128 0 3 -52 3 -53 105 0 104 0 0 -45 0 -45 93
0 93 0 -4 -35 c-4 -32 -7 -35 -46 -40 -40 -6 -43 -9 -52 -48 -9 -40 -10 -42
-43 -39 -42 3 -40 1 -44 43 l-2 34 -140 5 -140 5 -3 43 -3 42 -45 0 -44 0 0
39 c0 35 -3 39 -31 45 -17 3 -69 6 -114 6 l-82 0 -1 31 c0 17 -3 33 -5 35 -2
3 -56 7 -120 11 l-115 6 0 34 c0 19 -2 37 -5 39 -2 3 -42 5 -89 5 -99 0 -112
6 -106 48 4 31 4 31 -41 32 -25 1 -68 2 -96 3 l-50 1 -3 38 c-3 37 -4 37 -48
37 l-44 0 0 50 0 50 110 0 110 0 0 -40z m-1542 0 l102 0 0 -34 c0 -44 8 -46
193 -46 l147 0 0 -34 c0 -31 3 -34 36 -39 19 -3 57 -3 85 0 l49 6 0 -47 0 -46
135 0 134 0 7 -35 6 -35 119 0 119 0 0 -39 c0 -39 1 -40 43 -46 23 -4 81 -5
129 -3 l87 3 6 -33 c3 -18 3 -37 0 -42 -4 -6 45 -10 134 -10 l141 0 0 -40 0
-40 95 0 95 0 2 -27 c0 -16 1 -34 1 -40 -1 -10 31 -13 128 -13 l129 0 0 -40 0
-40 115 0 115 0 0 -265 0 -265 -32 0 c-47 0 -56 10 -60 60 l-3 45 -111 3
c-102 2 -112 4 -117 22 -5 18 -14 20 -81 20 l-76 0 0 45 0 45 -90 0 -90 0 0
40 c0 36 -2 40 -25 40 -14 0 -25 -6 -25 -12 0 -9 -4 -8 -10 2 -7 11 -10 5 -11
-25 l-2 -40 -6 40 -6 40 -143 0 -142 0 0 41 0 42 -90 7 c-49 4 -125 5 -167 4
l-78 -4 -3 33 c-2 17 -9 32 -15 33 -7 0 -21 2 -32 4 -11 2 -38 6 -60 10 -22 3
-56 17 -75 30 -27 19 -59 27 -135 36 -57 7 -107 18 -117 27 -11 9 -32 13 -58
10 -22 -2 -41 1 -42 7 0 5 -2 15 -3 20 -2 6 -3 20 -4 33 -1 22 -3 22 -125 22
-133 0 -136 1 -136 56 0 27 9 27 -233 24 l-138 -1 5 213 c3 117 6 230 6 252
l0 39 38 -7 c20 -3 83 -6 140 -6z m1312 -84 c0 -28 -4 -35 -27 -40 -29 -8 -43
5 -43 41 0 21 14 29 53 32 13 1 17 -7 17 -33z m-2759 -66 l79 0 0 -47 c0 -30
-3 -43 -9 -35 -6 10 -30 13 -90 10 -44 -2 -81 0 -81 5 0 4 -40 7 -90 7 l-90 0
0 65 0 64 98 3 97 3 3 -37 3 -38 80 0z m389 -120 c5 -33 8 -35 45 -38 65 -4
85 -11 84 -30 0 -12 -2 -13 -6 -3 -4 10 -7 11 -13 1 -5 -7 -6 -19 -3 -27 6
-14 49 -18 57 -4 3 4 -7 6 -22 4 -21 -4 -24 -2 -12 6 27 19 50 13 50 -14 0
-22 4 -25 34 -25 42 0 46 -9 46 -113 0 -115 -5 -129 -44 -124 -28 3 -31 7 -34
39 -3 34 -5 36 -48 43 -43 6 -44 7 -44 46 l0 39 -150 0 -150 0 0 120 0 121
103 -3 102 -3 5 -35z m6669 -37 c-1 -86 -7 -102 -50 -122 -31 -15 -34 -20 -34
-61 0 -25 3 -76 7 -115 4 -38 4 -56 0 -40 -7 27 -11 30 -47 30 l-40 0 -5 -55
c-5 -54 -6 -55 -39 -58 -31 -3 -33 -2 -18 13 21 21 11 45 -19 45 -17 0 -24 -6
-25 -20 -1 -11 -3 -24 -4 -30 -1 -5 -3 -14 -4 -20 0 -5 -19 -10 -41 -10 l-40
0 0 50 0 50 -50 0 -50 0 0 -50 0 -50 44 0 c41 0 44 -2 50 -31 3 -17 3 -35 0
-40 -7 -12 -121 -11 -129 1 -4 6 -11 8 -16 5 -8 -5 -14 24 -10 48 0 4 -3 7 -9
7 -5 0 -10 20 -10 45 l0 45 -39 0 c-22 0 -43 5 -46 11 -4 6 -13 8 -21 5 -7 -3
-16 -1 -20 5 -4 7 -10 6 -18 0 -22 -18 -26 -1 -26 103 0 56 4 96 8 90 4 -7 23
-14 42 -15 33 -4 35 -2 38 26 l3 31 129 -4 129 -4 3 48 3 49 43 3 42 3 0 -120
0 -121 51 0 51 0 -3 118 -4 117 40 5 c38 5 40 7 43 43 3 37 4 37 48 37 l44 0
-1 -67z m-6509 -23 c0 -5 -4 -10 -10 -10 -5 0 -10 5 -10 10 0 6 5 10 10 10 6
0 10 -4 10 -10z m-472 -141 l-2 -81 -50 6 c-28 3 -70 6 -93 6 l-43 0 0 75 0
75 95 0 95 0 -2 -81z m-188 -125 c0 -34 1 -34 45 -34 43 0 45 1 45 30 0 17 6
33 14 36 8 3 50 2 93 -3 l78 -8 3 -32 c3 -32 5 -33 48 -33 l45 0 -3 -102 -3
-103 -42 -3 -43 -3 0 -55 c0 -58 -5 -62 -57 -48 -21 6 -23 12 -23 79 0 99 -3
105 -55 105 -42 0 -44 1 -47 33 -3 31 -4 32 -53 32 l-50 0 -3 -127 -3 -128
106 0 106 0 -3 -37 c-3 -36 -5 -38 -43 -41 -22 -2 -86 -1 -142 3 l-103 7 0 88
0 89 -47 3 -48 3 -3 50 c-2 28 -1 74 3 103 l6 52 45 0 44 0 0 38 0 38 45 0
c45 1 45 1 45 -32z m570 16 c0 -19 -7 -20 -100 -20 -93 0 -100 1 -100 20 0 19
7 20 100 20 93 0 100 -1 100 -20z m990 -60 c0 -34 -18 -30 182 -34 83 -1 91
-4 93 -39 1 -18 8 -22 43 -25 39 -3 42 -5 42 -33 l0 -29 115 0 c115 0 116 0
125 -26 14 -37 13 -43 -11 -39 -25 5 -17 -7 9 -14 9 -2 77 -4 149 -4 l133 0 6
-34 c6 -31 8 -33 50 -33 l44 0 0 -50 0 -50 170 0 170 0 0 -30 0 -30 90 0 90 0
0 -30 0 -30 183 -1 c108 -1 166 -5 142 -9 l-40 -7 37 -2 c36 -1 38 -3 44 -40
l6 -38 82 -7 c44 -3 126 -6 181 -6 l100 0 0 -37 0 -38 97 -3 97 -3 3 -37 3
-37 58 -3 c42 -2 57 -7 57 -17 0 -18 20 -20 21 -2 0 10 2 10 6 0 2 -7 14 -13
26 -13 16 0 18 -3 9 -9 -11 -7 -10 -9 3 -15 9 -3 13 -10 10 -16 -4 -7 52 -10
164 -10 l171 0 0 40 0 40 43 0 c23 0 72 3 110 7 l67 6 0 32 0 32 128 6 c70 4
171 7 225 7 l97 0 0 35 0 34 133 3 132 3 3 36 c3 36 4 36 55 43 29 3 89 6 134
6 l82 0 3 33 3 32 93 3 92 3 0 35 0 35 140 -3 c98 -2 140 0 140 8 0 8 63 13
193 18 184 7 302 1 292 -14 -2 -4 -5 -23 -7 -43 -1 -19 -7 -35 -12 -34 -6 1
-10 -4 -9 -10 2 -7 -3 -13 -11 -13 -9 0 -13 7 -11 18 3 15 -4 18 -43 17 -45 0
-47 -1 -50 -31 l-3 -31 -91 -7 c-50 -3 -131 -6 -180 -6 l-88 0 0 -29 c0 -17
-6 -31 -16 -35 -9 -3 -69 -6 -135 -6 l-119 0 0 -35 0 -35 -90 0 c-52 0 -91 -4
-91 -10 -1 -5 -3 -14 -4 -20 -1 -5 -3 -19 -4 -30 -1 -18 -8 -20 -84 -20 -46 0
-125 -3 -175 -6 l-91 -7 -6 -38 -7 -39 -216 -2 -217 -3 -3 -32 -3 -33 -119 0
-119 0 -3 -32 -3 -33 -190 -7 c-104 -3 -206 -5 -225 -4 -19 2 -101 4 -182 5
l-147 1 -3 38 -3 37 -62 -2 -63 -1 0 39 0 39 -140 0 -140 0 0 40 0 40 -90 0
-90 0 0 43 0 42 -275 -3 -275 -3 0 41 0 40 -89 0 -90 0 -3 38 -3 37 -75 5
c-73 5 -75 6 -78 33 l-3 27 -85 0 c-77 0 -84 2 -84 20 0 17 -7 20 -50 20 l-50
0 0 35 0 35 -130 0 -130 0 0 35 0 35 -175 0 -175 0 0 40 0 39 -97 3 -98 3 -3
113 -3 112 96 0 95 0 0 -30z m531 -29 c-12 -8 -51 -4 -51 5 0 2 15 4 33 4 22
0 28 -3 18 -9z m3964 -141 c0 -30 -3 -35 -25 -36 -14 0 -46 -1 -72 -2 l-48 -2
0 -40 0 -40 -190 0 -190 0 0 -40 0 -40 -110 0 -110 0 0 -39 c0 -26 -5 -41 -16
-45 -9 -3 -96 -6 -195 -6 l-179 0 0 -40 0 -40 -205 0 -205 0 0 -41 0 -41 -162
6 c-90 3 -175 5 -190 6 -26 0 -28 3 -28 40 0 29 -4 40 -15 40 -11 0 -15 11
-15 40 0 34 3 40 23 41 16 1 18 2 5 6 -18 5 -24 39 -10 59 9 14 392 13 392 -1
0 -5 4 -4 9 4 5 8 18 12 30 8 14 -3 21 0 21 9 0 11 7 10 34 -4 19 -9 32 -20
29 -25 -2 -4 -10 -4 -16 0 -8 5 -8 2 1 -9 13 -16 5 -28 -28 -41 -18 -7 97 -7
123 0 23 6 24 63 0 63 -9 0 -14 3 -11 6 8 7 94 11 321 12 l187 2 0 38 0 37
158 0 c156 0 157 0 160 23 2 13 -2 30 -8 38 -11 12 3 14 99 14 l111 0 0 38 0
38 163 0 162 -1 0 -35z m-612 -61 c24 -10 26 -14 13 -21 -9 -5 -14 -13 -11
-19 4 -5 -32 -9 -88 -9 -100 0 -97 -2 -88 50 2 11 147 10 174 -1z m1482 -24
c-3 -14 -8 -37 -11 -52 -3 -15 -8 -22 -12 -16 -4 5 -14 13 -22 16 -10 3 -6 6
9 6 21 1 23 4 18 36 -4 27 -2 35 9 35 10 0 13 -7 9 -25z m-1421 -10 c3 -8 1
-15 -3 -15 -5 0 -11 7 -15 15 -3 8 -1 15 3 15 5 0 11 -7 15 -15z m1684 8 c-10
-2 -26 -2 -35 0 -10 3 -2 5 17 5 19 0 27 -2 18 -5z m316 -39 c3 -9 6 -27 6
-40 0 -22 -4 -24 -45 -24 l-45 0 0 40 c0 40 0 40 39 40 26 0 41 -5 45 -16z
m926 -13 c0 -16 2 -35 5 -43 4 -10 -8 -12 -55 -10 -55 4 -60 6 -60 27 0 13 -3
30 -6 39 -5 14 3 16 55 16 61 0 61 0 61 -29z m-5204 0 c-4 -5 -1 -12 4 -14 6
-3 5 -4 -2 -3 -15 3 -23 26 -8 26 6 0 9 -4 6 -9z m4987 -48 c-7 -2 -19 -2 -25
0 -7 3 -2 5 12 5 14 0 19 -2 13 -5z m84 -15 c-3 -8 -6 -5 -6 6 -1 11 2 17 5
13 3 -3 4 -12 1 -19z m-520 -40 c-3 -8 -6 -5 -6 6 -1 11 2 17 5 13 3 -3 4 -12
1 -19z m-7809 -105 c-10 -2 -26 -2 -35 0 -10 3 -2 5 17 5 19 0 27 -2 18 -5z
m8150 -36 c3 -36 3 -37 -32 -37 -34 0 -36 2 -36 34 0 28 4 35 23 39 36 7 42 2
45 -36z m-338 -2 c0 -34 -1 -35 -40 -35 -37 0 -40 2 -40 28 0 37 6 42 47 42
31 0 33 -2 33 -35z m-1117 -22 c-7 -2 -19 -2 -25 0 -7 3 -2 5 12 5 14 0 19 -2
13 -5z m57 -173 l0 -40 45 0 46 0 -3 -132 -3 -133 -45 0 -45 0 -3 -72 -3 -73
-129 0 -130 0 0 31 c0 30 -2 31 -35 27 -19 -2 -35 0 -35 4 0 4 -17 8 -39 8
-35 0 -39 3 -45 31 -3 17 -6 76 -6 130 l0 99 45 0 45 0 0 80 0 80 170 0 170 0
0 -40z m-7719 -107 c-63 -4 -64 -4 -37 -19 38 -19 316 -21 316 -1 0 8 4 7 10
-3 6 -10 10 -11 10 -2 0 8 23 12 81 12 47 0 78 -4 74 -9 -3 -5 -1 -12 5 -16
27 -17 2 -25 -75 -25 -82 0 -86 -1 -95 -25 l-10 -25 -165 0 -165 0 0 25 c0 25
-1 25 -85 25 l-85 0 0 35 0 35 143 -2 c78 -1 113 -3 78 -5z m127 0 c-10 -2
-26 -2 -35 0 -10 3 -2 5 17 5 19 0 27 -2 18 -5z m290 0 c-32 -2 -84 -2 -115 0
-32 2 -6 3 57 3 63 0 89 -1 58 -3z m2310 -85 c-2 -6 -11 -13 -19 -16 -12 -3
-12 -2 0 6 11 8 9 11 -10 15 -22 4 -22 4 4 6 18 0 27 -3 25 -11z m2782 -283
l0 -45 40 0 40 0 0 -130 0 -130 -45 0 -45 0 0 -50 0 -50 -55 0 c-54 0 -60 -4
-56 -37 1 -8 -9 -13 -24 -13 -14 0 -25 6 -25 13 0 9 -2 9 -8 0 -7 -12 -82 -19
-164 -15 l-48 2 -1 58 c0 31 -3 51 -6 45 -2 -7 -20 -13 -39 -13 l-34 0 0 120
0 120 39 0 39 0 7 80 7 79 92 4 c50 1 135 4 189 5 l97 2 0 -45z m1624 -135
c-22 -9 -29 -6 -20 9 4 6 14 7 23 4 15 -6 14 -7 -3 -13z m-3087 -72 c-3 -7 -5
-2 -5 12 0 14 2 19 5 13 2 -7 2 -19 0 -25z m1360 -230 c-3 -8 -6 -5 -6 6 -1
11 2 17 5 13 3 -3 4 -12 1 -19z"/>
<path d="M890 5460 l0 -40 45 0 45 0 0 40 0 40 -45 0 -45 0 0 -40z"/>
<path d="M2512 6700 c0 -14 2 -19 5 -12 2 6 2 18 0 25 -3 6 -5 1 -5 -13z"/>
<path d="M2533 6632 c-27 -3 -33 -8 -33 -27 0 -13 7 -30 15 -39 8 -8 15 -19
15 -25 0 -7 8 -7 25 1 20 9 25 18 25 49 0 43 -3 46 -47 41z"/>
<path d="M2570 6520 c-7 -18 -5 -49 3 -41 5 5 7 17 4 27 -3 11 -6 17 -7 14z"/>
<path d="M3250 6510 c0 -23 -5 -31 -25 -36 -14 -3 -34 -4 -45 -1 -18 5 -20 0
-20 -39 l0 -44 63 0 c34 0 72 -3 85 -6 21 -6 22 -4 22 75 l0 81 -40 0 c-38 0
-40 -2 -40 -30z"/>
<path d="M2970 6300 l0 -80 -65 0 -65 0 0 -37 0 -38 74 3 75 4 3 31 c3 28 7
32 36 35 l32 3 0 80 0 79 -45 0 -45 0 0 -80z"/>
<path d="M3330 6115 l0 -45 45 0 45 0 0 45 0 45 -45 0 -45 0 0 -45z"/>
<path d="M7688 6383 c6 -2 18 -2 25 0 6 3 1 5 -13 5 -14 0 -19 -2 -12 -5z"/>
<path d="M1340 5790 c0 -5 7 -7 15 -4 8 4 15 8 15 10 0 2 -7 4 -15 4 -8 0 -15
-4 -15 -10z"/>
<path d="M2784 2665 c0 -77 2 -107 3 -67 2 40 2 103 0 140 -2 37 -3 4 -3 -73z"/>
<path d="M8028 1618 c-4 -10 -3 -18 2 -18 6 0 10 -28 11 -62 0 -35 3 -57 6
-50 2 7 22 12 44 12 l39 0 0 -41 0 -41 -45 4 -45 3 0 -47 0 -48 45 0 45 0 0
45 0 45 39 0 c29 0 41 -5 44 -17 3 -10 5 10 6 45 l1 62 -40 0 -40 0 0 45 0 45
-49 0 c-39 0 -50 4 -53 18 -3 16 -4 16 -10 0z"/>
<path d="M5790 985 l0 -135 54 0 c44 0 55 -4 59 -17 3 -10 5 10 6 45 l1 62 35
0 c35 0 35 0 35 45 l0 45 -40 0 -40 0 0 45 0 45 -55 0 -55 0 0 -135z m98 -2
c-3 -37 -4 -38 -45 -41 l-43 -3 0 40 0 41 46 0 45 0 -3 -37z"/>
<path d="M1388 8983 c-8 -56 -1 -63 58 -63 l54 0 0 45 0 45 -54 0 c-51 0 -54
-1 -58 -27z"/>
<path d="M1190 8990 c51 -4 69 -7 45 -9 l-40 -3 45 -13 45 -13 -85 -4 c-73 -3
-66 -4 45 -6 l130 -2 1 28 c1 15 0 22 -3 16 -2 -6 -17 -8 -36 -5 l-32 5 30 7
c17 4 -28 6 -100 6 -122 -1 -125 -1 -45 -7z m170 -30 c0 -5 -15 -10 -32 -9
-28 0 -30 2 -13 9 28 12 45 12 45 0z"/>
<path d="M1100 8972 c0 -5 7 -9 15 -9 8 0 12 4 9 9 -3 4 -9 8 -15 8 -5 0 -9
-4 -9 -8z"/>
<path d="M0 8039 l0 -40 38 3 c35 3 37 5 40 41 l3 37 -40 0 -41 0 0 -41z"/>
<path d="M32 7883 c-32 -4 -32 -5 -32 -59 0 -48 2 -54 21 -54 11 0 17 4 14 10
-3 5 7 13 22 17 l28 7 -30 7 c-29 6 -29 7 8 8 23 1 36 -3 32 -9 -4 -6 5 -10
19 -10 46 0 28 -19 -21 -23 l-48 -3 56 -2 57 -2 1 60 1 60 -48 -2 c-26 0 -62
-3 -80 -5z"/>
<path d="M5690 7570 l0 -50 65 0 c58 0 65 -2 65 -20 0 -10 -7 -25 -15 -32 -97
-83 -115 -106 -115 -147 l0 -41 135 0 135 0 0 50 0 50 -40 0 c-39 0 -40 1 -40
35 0 34 1 35 40 35 l40 0 0 85 0 85 -135 0 -135 0 0 -50z"/>
<path d="M5210 7495 l0 -45 75 0 c71 0 75 -1 75 -22 0 -32 -11 -45 -43 -53
-16 -4 -34 -19 -42 -35 -8 -16 -24 -31 -35 -35 -16 -5 -20 -15 -20 -53 l0 -47
73 0 c39 1 93 2 120 3 l47 2 0 46 0 47 -40 -7 -40 -6 0 40 0 40 40 0 40 0 0
85 0 85 -125 0 -125 0 0 -45z"/>
<path d="M77 7363 c-7 -69 -16 -83 -54 -83 -22 0 -23 -4 -23 -72 0 -71 1 -74
30 -90 23 -13 30 -24 30 -48 0 -27 -3 -30 -30 -30 -28 0 -30 -3 -30 -35 0 -24
8 -45 25 -63 14 -15 25 -39 25 -54 0 -23 -4 -28 -25 -28 l-25 0 0 -565 0 -565
74 0 c41 0 81 -3 90 -6 12 -5 16 1 16 24 0 17 5 34 11 38 21 13 -15 24 -78 24
l-63 0 0 470 0 470 35 0 35 0 0 260 0 260 30 0 31 0 -3 58 c-3 54 -4 57 -30
60 -16 2 -28 8 -28 14 0 6 -6 6 -15 -2 -10 -8 -15 -9 -15 -2 0 6 8 16 18 21
15 9 15 10 -4 11 -19 0 -22 -7 -27 -67z"/>
<path d="M4780 7250 l0 -40 70 0 c73 0 76 -2 64 -47 -5 -18 -14 -23 -40 -23
l-34 0 0 -50 0 -50 99 0 99 0 6 31 c9 45 8 49 -9 49 -12 0 -15 16 -15 85 l0
85 -120 0 -120 0 0 -40z"/>
<path d="M7400 7205 l0 -45 93 2 92 3 3 43 3 42 -95 0 -96 0 0 -45z"/>
<path d="M7468 7002 l-68 -3 0 -50 0 -50 93 3 92 3 0 49 c0 56 6 53 -117 48z"/>
<path d="M7870 6959 c0 -18 2 -19 15 -9 15 12 12 30 -6 30 -5 0 -9 -10 -9 -21z"/>
<path d="M22 6900 c0 -19 2 -27 5 -17 2 9 2 25 0 35 -3 9 -5 1 -5 -18z"/>
<path d="M4540 6850 l0 -50 70 0 c62 0 70 2 70 19 0 10 3 33 6 50 l7 31 -77 0
-76 0 0 -50z"/>
<path d="M3950 6515 l0 -45 94 0 c51 0 108 -3 125 -6 l31 -6 0 51 0 51 -125 0
-125 0 0 -45z"/>
<path d="M200 5690 c0 -11 5 -20 10 -20 6 0 10 9 10 20 0 11 -4 20 -10 20 -5
0 -10 -9 -10 -20z"/>
<path d="M256 5670 c-2 -3 -4 -24 -5 -47 l-1 -43 45 0 45 0 0 -90 0 -90 -85 0
c-61 0 -85 -4 -86 -12 -1 -7 -2 -24 -3 -38 -1 -18 -8 -27 -26 -31 l-25 -7 28
-1 c15 0 27 -5 27 -10 0 -4 -35 -9 -77 -9 -52 -1 -73 2 -63 8 12 8 10 10 -7
10 l-23 0 0 -205 c0 -168 3 -205 14 -205 18 0 26 32 26 112 0 37 5 70 10 73 6
3 10 24 10 46 l0 39 55 0 55 0 0 54 0 54 36 7 c20 3 39 4 42 0 9 -9 15 -563 7
-649 l-7 -76 -39 0 c-40 0 -45 -7 -41 -60 1 -17 -3 -18 -101 -26 l-67 -6 0
-114 0 -114 30 0 c29 0 30 2 30 45 l0 45 50 0 c47 0 50 2 50 26 0 14 5 35 11
46 9 17 13 18 20 7 5 -8 9 -9 9 -3 0 6 10 10 23 9 21 -1 22 -8 29 -96 4 -52 5
-111 2 -131 -6 -38 -14 -43 -71 -41 -11 1 -20 -64 -14 -99 1 -9 -12 -10 -104
-12 l-60 -1 -3 -288 c-2 -229 0 -288 10 -285 9 3 14 39 16 127 2 96 6 123 17
128 10 3 15 20 15 49 l0 44 50 0 50 0 0 44 c0 24 3 57 6 73 5 25 10 29 32 26
15 -2 21 0 14 3 -21 10 -13 21 12 17 24 -5 24 -8 31 -136 3 -73 5 -220 3 -326
l-3 -195 -35 0 c-43 -1 -50 -10 -50 -63 l0 -43 39 0 39 0 7 -92 c3 -51 5 -178
3 -283 l-3 -190 -40 -5 -40 -5 0 -45 c0 -44 0 -45 36 -48 l36 -3 7 -67 c3 -37
6 -113 6 -169 l0 -103 -50 0 c-39 0 -50 -3 -50 -16 0 -14 -10 -15 -80 -9 l-80
7 0 -181 0 -181 86 0 86 0 -4 -30 c-5 -34 7 -49 25 -31 6 6 19 11 28 11 10 0
21 4 24 10 3 5 0 7 -8 4 -9 -3 -16 3 -20 15 -4 17 0 21 20 21 24 0 25 -3 20
-35 -3 -19 -2 -35 4 -35 9 0 13 19 9 58 -1 19 3 22 39 22 l41 0 0 40 0 40 41
0 42 0 -7 87 c-3 48 -8 88 -10 90 -1 2 -37 6 -79 9 l-77 7 0 44 0 45 44 -3 44
-4 6 38 c4 22 6 735 6 1585 0 851 0 1557 0 1570 0 19 5 22 38 22 l37 0 3 95 4
95 -46 0 -46 0 0 39 0 39 -46 4 c-25 2 -47 1 -48 -2z m-69 -1692 c-3 -8 -6 -5
-6 6 -1 11 2 17 5 13 3 -3 4 -12 1 -19z m29 -1898 c32 0 34 -2 34 -35 0 -33
-2 -35 -32 -33 -29 3 -33 -1 -39 -27 -7 -30 -7 -30 -8 -3 -1 33 -8 38 -44 31
-19 -4 -29 -13 -34 -32 l-7 -26 -7 25 c-4 14 -7 42 -8 62 -1 36 0 37 42 41 23
2 48 2 55 0 8 -2 29 -3 48 -3z"/>
<path d="M8 5383 c7 -3 16 -2 19 1 4 3 -2 6 -13 5 -11 0 -14 -3 -6 -6z"/>
<path d="M4208 4953 c-14 -3 -18 -15 -18 -54 l0 -49 -40 0 c-35 0 -42 -4 -51
-27 -6 -15 -8 -35 -6 -44 7 -25 -32 -41 -90 -36 l-50 4 -7 -79 c-4 -43 -4 -83
-1 -89 4 -5 24 -9 46 -9 39 0 39 0 39 40 0 37 2 40 28 42 15 0 34 2 42 2 11 1
15 13 14 49 l0 47 43 0 43 0 0 51 0 52 40 -6 40 -5 0 59 c0 58 0 59 -27 58
-16 -1 -36 -3 -45 -6z"/>
<path d="M8878 4033 c7 -3 16 -2 19 1 4 3 -2 6 -13 5 -11 0 -14 -3 -6 -6z"/>
<path d="M7903 3933 c9 -2 25 -2 35 0 9 3 1 5 -18 5 -19 0 -27 -2 -17 -5z"/>
<path d="M6658 3763 c24 -3 32 -9 32 -24 0 -39 -19 -59 -55 -59 -34 0 -35 -1
-35 -40 l0 -40 -45 0 -45 0 0 -55 0 -55 -32 0 c-17 0 -29 -3 -26 -6 4 -3 38
-2 77 2 l71 7 0 48 0 49 175 0 175 0 0 45 0 45 175 0 175 0 0 45 c0 41 -2 45
-22 41 -13 -3 -117 -5 -231 -5 -138 -1 -206 -4 -202 -11 4 -6 11 -8 16 -5 5 4
9 -1 9 -9 0 -10 9 -16 25 -16 14 0 25 -4 25 -10 0 -17 -37 -30 -84 -30 l-46 0
0 45 0 45 -82 -2 c-46 0 -68 -3 -50 -5z"/>
<path d="M9093 3442 c-3 -8 -4 -64 -1 -125 6 -123 4 -139 -18 -130 -12 4 -14
-23 -14 -176 l0 -181 39 3 c46 2 42 -9 41 152 0 66 2 137 5 157 6 34 10 38 36
38 l29 0 0 128 c0 70 -4 133 -9 140 -11 18 -101 13 -108 -6z"/>
<path d="M3983 3273 c9 -2 23 -2 30 0 6 3 -1 5 -18 5 -16 0 -22 -2 -12 -5z"/>
<path d="M43 3193 l-43 -4 0 -200 c0 -188 1 -199 19 -199 17 0 19 11 23 132 2
83 8 133 15 135 6 2 9 13 6 23 -6 22 29 35 77 28 30 -5 30 -4 30 44 l0 48 -42
-2 c-24 -1 -62 -3 -85 -5z"/>
<path d="M9013 2813 l-33 -4 0 -107 c1 -121 9 -142 59 -142 l31 0 0 130 c0 98
-3 130 -12 128 -7 0 -28 -3 -45 -5z"/>
<path d="M8947 2573 l-39 -4 4 -70 3 -69 -38 0 -38 0 3 -77 3 -78 33 -3 33 -3
-2 44 c-3 51 16 78 53 76 23 -1 23 -1 -2 -9 l-25 -8 28 -1 27 -1 0 105 c0 58
-1 104 -2 103 -2 -1 -20 -3 -41 -5z"/>
<path d="M0 2395 c0 -95 4 -145 11 -145 5 0 7 -4 4 -10 -3 -5 -1 -10 4 -10 6
0 11 -7 11 -16 0 -12 6 -15 23 -10 12 4 36 9 52 13 17 3 33 11 37 17 5 7 8 7
8 -2 0 -7 4 -10 10 -7 6 4 10 68 10 161 l0 154 -85 0 -85 0 0 -145z"/>
<path d="M1953 1853 c9 -2 23 -2 30 0 6 3 -1 5 -18 5 -16 0 -22 -2 -12 -5z"/>
<path d="M2768 1653 c6 -2 18 -2 25 0 6 3 1 5 -13 5 -14 0 -19 -2 -12 -5z"/>
<path d="M2748 1623 c7 -3 16 -2 19 1 4 3 -2 6 -13 5 -11 0 -14 -3 -6 -6z"/>
<path d="M6526 804 c-10 -27 -7 -34 17 -33 16 1 18 2 5 6 -10 2 -18 9 -18 14
0 6 4 7 10 4 6 -3 7 1 4 9 -8 20 -10 20 -18 0z"/>
<path d="M6583 813 c15 -2 39 -2 55 0 15 2 2 4 -28 4 -30 0 -43 -2 -27 -4z"/>
<path d="M6608 753 c6 -2 18 -2 25 0 6 3 1 5 -13 5 -14 0 -19 -2 -12 -5z"/>
</g>
</svg>
