<?xml version="1.0" standalone="no"?>
<!DOCTYPE svg PUBLIC "-//W3C//DTD SVG 20010904//EN"
 "http://www.w3.org/TR/2001/REC-SVG-20010904/DTD/svg10.dtd">
<svg version="1.0" xmlns="http://www.w3.org/2000/svg"
 width="1024.000000pt" height="1024.000000pt" viewBox="0 0 1024.000000 1024.000000"
 preserveAspectRatio="xMidYMid meet">

<g transform="translate(0.000000,1024.000000) scale(0.100000,-0.100000)"
fill="#000000" stroke="none">
<path d="M840 10205 l0 -35 -60 0 -60 0 0 -190 0 -190 58 6 c31 4 59 8 61 11
3 2 4 61 3 131 -1 70 1 153 4 185 l6 59 114 -7 c110 -7 114 -7 114 13 0 50 -5
52 -126 52 l-114 0 0 -35z"/>
<path d="M9026 10200 c-5 -35 -10 -40 -44 -50 -20 -6 -76 -16 -124 -22 l-88
-12 0 -43 0 -43 -135 0 -135 0 0 -55 0 -55 -33 0 c-18 0 -60 -8 -92 -17 -44
-12 -100 -17 -207 -17 -80 -1 -150 -4 -154 -8 -4 -5 -65 -8 -136 -8 l-128 0 0
-44 c0 -51 -8 -56 -81 -56 -36 0 -49 -4 -49 -14 0 -13 -27 -14 -179 -9 -162 5
-181 4 -197 -11 -16 -16 -56 -17 -550 -14 -292 2 -530 0 -528 -4 2 -3 -5 -4
-15 -1 -17 4 -20 -1 -23 -37 l-3 -42 -1020 0 c-561 1 -1022 2 -1025 2 -3 1
-60 1 -128 0 -67 -1 -122 2 -121 7 1 4 1 24 0 43 l-1 35 -483 -1 c-265 -1
-536 1 -603 4 -114 5 -120 6 -120 26 1 19 -5 21 -74 24 -41 2 -121 0 -177 -3
l-103 -7 0 -44 c0 -28 4 -44 13 -45 104 -4 232 -19 235 -28 2 -7 33 -11 80
-11 129 0 120 11 114 -151 -5 -131 -4 -139 14 -140 15 0 16 -2 4 -7 -8 -4 -15
-16 -15 -27 0 -18 7 -20 58 -21 l57 -1 0 158 0 159 455 0 455 0 0 -72 c-1 -81
-16 -283 -26 -340 l-7 -38 57 0 56 0 0 59 c0 67 5 71 92 71 73 0 78 -4 78 -71
l0 -59 45 0 45 0 0 -46 c0 -26 4 -43 10 -39 5 3 10 -24 12 -67 l3 -73 53 -5
c30 -3 56 -1 59 4 7 11 6 78 -3 239 -5 87 -9 107 -21 103 -7 -3 -34 -3 -58 1
l-45 6 0 103 0 104 380 0 380 0 0 -105 0 -105 55 0 55 0 0 120 0 120 80 0 80
0 0 -120 c0 -79 4 -120 11 -120 6 0 8 -11 4 -29 -8 -36 12 -57 51 -56 39 1 44
-9 44 -82 l0 -63 60 0 61 0 -3 117 -3 117 -57 -3 -58 -2 0 120 0 121 358 -1
c217 -1 341 -5 317 -10 -22 -4 -116 -8 -210 -9 -93 -1 -179 -5 -190 -10 -11
-4 96 -7 238 -7 250 0 257 1 257 20 0 11 3 17 7 13 4 -4 8 -85 8 -179 l0 -172
53 -3 52 -3 0 59 c0 70 3 72 96 72 l64 0 0 -65 0 -65 55 0 c64 0 64 1 40 110
-8 38 -14 122 -15 203 l0 137 435 0 435 0 0 -109 0 -110 -35 6 -35 6 0 -56 c0
-40 -7 -67 -25 -98 -14 -24 -25 -54 -25 -66 0 -21 5 -23 55 -23 l55 0 0 65 c0
64 0 65 28 65 23 1 24 2 10 11 -10 5 -18 14 -18 19 0 6 8 10 18 11 14 0 14 2
-3 9 -11 5 -14 9 -7 9 6 1 12 12 12 26 0 24 2 25 74 25 l74 0 4 -50 3 -49 -70
-4 c-50 -2 -39 -4 43 -5 l112 -2 0 -115 0 -115 65 0 65 0 0 -60 0 -60 60 0 60
0 0 -125 0 -125 69 0 68 0 7 -92 c3 -50 6 -237 6 -415 l0 -323 61 0 61 0 -2
-72 c-1 -40 -2 -94 -1 -120 l1 -48 54 0 53 0 7 -46 c3 -25 3 -50 0 -55 -3 -5
24 -9 60 -9 l66 0 0 -55 0 -55 60 0 60 0 0 -60 0 -60 60 0 60 0 0 -59 c0 -66
7 -73 65 -64 l36 6 -5 -62 -5 -61 29 0 c28 0 29 -1 32 -57 l3 -58 56 3 56 3
-1 -363 -1 -363 53 -3 52 -3 0 -100 0 -99 -59 0 -60 0 -3 -37 -3 -38 -52 -3
-53 -3 0 -90 c0 -80 -2 -89 -15 -75 -8 8 -15 24 -15 36 0 19 -5 21 -52 18 -44
-2 -53 -6 -56 -23 -10 -66 -11 -68 -37 -51 -36 24 -64 20 -75 -9 -8 -22 -15
-25 -59 -25 -65 0 -81 7 -81 36 0 23 -3 24 -60 24 l-60 0 0 70 0 70 -59 0
c-64 0 -71 -6 -71 -61 0 -29 0 -29 -59 -29 l-59 0 -6 -37 c-4 -29 -2 -365 3
-430 1 -9 20 -13 61 -13 48 0 60 3 60 16 0 8 5 12 10 9 6 -4 8 -11 5 -16 -4
-5 16 -9 44 -9 l51 0 0 -50 0 -50 -54 0 -55 0 -4 48 -3 47 -2 -55 -2 -55 115
0 c128 0 125 -2 125 82 0 49 5 54 52 47 32 -6 35 -9 36 -43 1 -20 2 -47 4 -61
3 -23 -1 -25 -39 -28 l-41 -3 -4 -56 c-1 -30 0 -57 5 -60 4 -2 7 -28 7 -56 l0
-53 53 -9 c28 -6 82 -9 118 -7 l67 3 -2 69 -2 70 58 0 57 0 7 45 c10 67 5 73
-59 67 l-54 -4 -1 107 c-1 60 -5 112 -10 117 -5 5 -27 8 -48 6 l-39 -3 2 -47
c2 -33 -1 -48 -10 -48 -9 0 -12 29 -12 118 l0 117 58 3 57 3 0 54 0 55 65 0
65 0 0 -61 0 -62 49 6 c30 4 53 1 60 -6 14 -14 14 -57 1 -91 -8 -23 -15 -26
-57 -26 l-48 0 -2 -120 -2 -120 52 4 c29 2 58 5 65 5 9 1 12 35 12 136 l0 135
65 0 65 0 0 39 c0 32 4 40 23 45 36 9 72 7 85 -6 9 -9 12 4 12 59 0 40 4 74 9
78 5 3 55 2 110 -1 77 -5 101 -10 101 -21 0 -8 -3 -12 -7 -10 -5 3 -8 -18 -8
-46 l0 -52 -42 -3 -43 -3 0 -60 0 -59 -111 0 c-95 0 -114 3 -125 18 -11 14
-13 -2 -14 -110 l0 -128 43 0 c54 0 65 -8 69 -50 l4 -35 13 33 c12 31 15 32
67 32 l54 0 0 -60 0 -60 60 0 60 0 0 -67 0 -68 63 -2 c34 -1 90 -5 125 -8 l62
-7 0 -59 0 -59 60 0 60 0 0 -60 c0 -56 -2 -61 -27 -71 -15 -5 -41 -9 -57 -7
-30 3 -31 5 -37 63 -3 33 -6 57 -7 54 -2 -7 -44 1 -89 15 -23 7 -23 6 -23 -83
l0 -90 -60 4 c-63 3 -72 -2 -76 -41 -3 -25 14 -35 64 -39 24 -2 32 1 32 14 1
18 23 51 35 51 4 0 4 -19 1 -42 -3 -24 -6 -47 -7 -53 -1 -5 2 -29 6 -52 l8
-43 -67 0 -66 0 0 -59 c0 -67 -5 -71 -76 -71 l-44 0 0 -55 0 -55 -50 0 c-47 0
-50 2 -50 25 0 38 -27 95 -44 95 -13 0 -15 -10 -9 -60 l6 -60 -112 0 -111 0 0
60 c0 44 -4 60 -14 60 -9 0 -16 -16 -20 -44 -9 -56 -22 -72 -68 -80 l-38 -7 0
61 0 60 -60 0 -60 0 0 65 0 65 -60 0 -60 0 0 48 c0 34 6 54 20 69 14 15 16 23
7 26 -7 3 4 6 24 6 19 1 40 6 47 13 9 9 12 8 12 -4 0 -9 -6 -19 -12 -21 -8 -3
-8 -6 -2 -6 6 -1 19 8 29 19 18 20 18 21 -1 35 -11 8 -42 15 -71 15 l-53 0 0
-40 0 -40 -64 0 -65 0 8 28 c7 25 7 60 -1 67 -2 1 -31 6 -65 10 l-63 7 -2 -34
c-1 -18 -2 -44 -2 -58 -1 -23 -5 -25 -53 -28 l-52 -3 -7 60 -7 61 -45 0 c-44
0 -81 25 -82 54 0 6 -7 2 -15 -8 -8 -11 -15 -16 -15 -11 0 5 -5 4 -12 -3 -7
-7 -33 -12 -60 -12 l-47 0 0 55 1 56 40 -6 c39 -6 40 -5 38 22 -1 15 -2 49 -1
75 l1 46 75 25 c41 14 75 21 75 16 0 -6 5 -7 11 -3 7 4 9 22 4 50 -4 27 -2 50
6 63 12 18 14 18 27 3 12 -15 13 -15 6 3 -5 11 -8 37 -8 58 l0 38 -53 -2 c-29
-2 -56 0 -60 4 -8 9 -66 9 -115 1 l-38 -7 0 -65 0 -65 -65 6 -65 6 0 -69 0
-70 -65 0 -65 0 2 268 3 267 63 3 62 3 0 225 0 226 -60 -4 -60 -3 0 58 0 57
-865 0 -865 0 0 -60 0 -60 -130 0 -130 0 0 60 0 60 -440 0 -440 0 0 -60 0 -60
-130 0 -130 0 0 60 0 60 -840 0 -840 0 0 -60 0 -60 -65 0 -65 0 0 -223 0 -223
65 4 65 4 0 -426 0 -426 -129 0 -130 0 2 123 c1 67 1 251 0 410 l-3 287 -66 0
-65 0 1 -887 c1 -489 1 -914 1 -945 l-1 -58 -1081 0 -1081 0 4 57 3 57 -52 -3
-53 -2 0 830 0 831 56 0 56 0 -4 63 -3 62 1072 3 1073 2 6 23 c3 13 4 41 2 62
l-3 39 -490 -2 c-269 -1 -497 1 -507 4 -14 4 -18 16 -18 55 l0 49 95 0 95 0 0
65 c0 58 2 65 20 65 18 0 20 7 20 58 l0 57 60 -3 60 -4 0 61 0 61 65 0 65 0 0
65 c0 71 0 70 75 77 l30 3 -1 65 c0 36 -1 97 -2 137 l-2 72 -52 3 -53 3 0 63
0 62 -57 0 -58 0 0 45 0 45 -65 0 -65 0 0 45 0 45 129 0 c120 0 129 1 134 20
4 17 14 20 66 20 l60 0 4 -57 c2 -32 4 40 5 160 l2 217 -55 0 -54 0 -3 -117
-3 -118 -140 0 -140 0 -3 75 c-2 41 0 99 3 128 l6 52 58 0 58 0 8 120 7 120
64 0 64 0 0 55 0 55 60 0 60 0 0 64 c0 35 3 78 6 95 6 30 7 31 65 31 l59 0 0
60 0 60 65 0 65 0 0 70 0 70 60 0 60 0 0 310 0 310 -60 0 -60 0 0 65 0 65 -59
0 c-66 0 -71 5 -71 71 l0 39 -190 0 -190 0 0 -49 0 -48 -39 -7 c-22 -3 -47 -3
-55 0 -14 5 -16 -4 -16 -65 0 -41 -4 -71 -10 -71 -5 0 -10 -22 -10 -50 l0 -50
-70 0 -70 0 0 50 c0 38 -4 50 -15 50 -12 0 -15 14 -15 65 l0 65 -55 0 -55 0 0
55 0 55 -179 0 c-140 0 -180 3 -184 13 -6 15 1 175 8 194 4 11 31 12 55 3 3
-2 8 -2 12 -1 4 0 12 -14 17 -32 7 -26 9 -13 10 66 l1 97 43 0 c60 0 83 22 79
76 l-3 41 49 -5 49 -4 8 86 c4 47 11 88 16 92 5 3 9 -6 9 -20 0 -25 3 -26 54
-26 62 0 64 3 58 78 -3 46 -7 52 -25 51 -21 0 -21 -1 -2 -9 15 -7 10 -9 -23
-9 -32 -1 -41 2 -36 12 6 10 4 10 -7 0 -24 -23 -31 -14 -29 40 4 93 3 97 -27
96 -25 -2 -26 -2 -5 -6 22 -4 23 -9 20 -61 l-3 -57 -39 -3 c-29 -3 -36 0 -30
10 5 9 2 9 -10 -2 -17 -13 -18 -11 -15 30 5 92 7 90 -67 90 l-66 0 4 63 3 62
-55 -1 -55 -2 -3 -61 -3 -61 55 0 54 0 4 -67 c2 -38 2 -99 0 -136 l-3 -69 -52
4 -52 3 -3 -52 c-2 -38 1 -53 10 -53 10 0 9 -3 -1 -9 -11 -7 -16 -39 -19 -126
l-5 -117 -53 7 -54 6 0 -65 0 -66 -65 0 -65 0 0 65 0 66 -63 -7 c-34 -4 -64
-8 -66 -10 -2 -2 -4 -20 -5 -41 0 -21 -5 -41 -11 -45 -6 -4 -2 -8 8 -8 10 0
17 -8 17 -20 0 -11 5 -20 11 -20 5 0 7 5 4 10 -4 6 7 10 27 9 31 -1 32 -1 8
-9 -25 -8 -25 -8 4 -9 28 -1 28 -2 12 -20 -17 -18 -17 -19 1 -24 10 -3 3 -5
-15 -6 -18 0 -31 3 -28 8 3 5 -1 14 -9 21 -13 11 -15 8 -15 -14 0 -24 4 -26
43 -28 l42 -1 -45 -7 c-43 -7 -42 -7 23 -8 l67 -2 0 -50 0 -50 55 0 55 0 0 50
0 50 49 0 c27 0 56 2 63 5 16 6 23 -41 13 -87 -6 -27 -9 -28 -66 -28 l-59 0 0
-65 0 -65 58 -2 57 -1 -45 -6 c-36 -5 -45 -10 -45 -26 0 -11 5 -20 12 -20 6 0
14 -3 17 -6 3 -3 19 -4 36 -1 30 4 30 4 32 76 0 39 1 79 0 89 -2 15 10 17 108
17 l110 0 0 -60 0 -60 54 0 55 0 -5 -37 c-3 -21 -7 -46 -9 -55 -1 -10 0 -17 4
-16 3 0 36 0 74 -1 l67 -1 0 -54 0 -53 -45 -6 c-24 -4 -59 -4 -76 0 l-31 6 3
-49 3 -49 -65 -3 -66 -3 5 -50 c3 -32 1 -54 -6 -58 -6 -4 -49 -7 -94 -6 l-83
0 -3 50 c-3 74 -10 95 -30 95 -14 0 -15 -2 -2 -10 9 -6 -4 -8 -40 -7 l-55 2
-3 153 -3 152 -59 0 -60 0 0 -307 0 -308 55 0 c69 0 78 -11 69 -87 l-6 -58 66
0 66 0 0 -55 c0 -53 0 -54 33 -60 18 -4 46 -5 62 -3 l30 3 0 -58 0 -57 67 0
67 0 3 -92 3 -93 33 3 c18 2 45 1 61 -3 l29 -6 7 -119 7 -119 62 -3 61 -3 3
-282 2 -283 -70 0 -70 0 0 50 0 50 -126 0 c-71 0 -123 -4 -120 -9 3 -5 3 -30
0 -55 -5 -34 -11 -46 -20 -42 -11 4 -14 -8 -14 -53 l0 -58 -42 -6 c-23 -3 -54
-3 -69 0 l-26 5 -7 -136 c-4 -74 -5 -140 -1 -146 3 -5 17 -10 31 -10 23 0 24
-3 24 -65 l0 -65 60 0 60 0 0 -60 0 -60 60 0 60 0 0 -60 c0 -57 1 -60 25 -60
24 0 25 -2 23 -57 -3 -57 -2 -58 25 -61 26 -3 27 -6 27 -59 l0 -56 -157 3
c-87 2 -333 3 -546 2 l-388 -2 1 -52 c1 -29 1 -59 1 -65 -1 -9 -19 -13 -56
-13 l-55 0 0 -945 0 -945 55 0 55 0 0 -60 0 -60 310 0 310 0 0 -45 0 -44 -127
-3 c-105 -3 -128 -6 -129 -18 -1 -8 -2 -37 -2 -64 l-2 -48 -55 4 -55 5 0 -59
0 -58 -55 0 -55 0 0 -64 0 -63 -50 -7 -50 -7 0 -54 0 -55 -55 0 -55 0 0 -140
c0 -132 -1 -140 -19 -140 -19 0 -20 -8 -19 -180 l1 -180 678 0 678 0 3 -22 c2
-13 1 -42 -1 -66 l-3 -42 -452 6 c-248 4 -553 3 -678 -1 l-228 -7 0 -1044 0
-1044 1280 0 1280 0 0 45 0 45 71 0 c62 0 71 2 76 20 4 16 14 20 48 20 25 0
45 -5 48 -12 3 -7 6 3 8 22 1 19 2 42 3 50 1 11 16 16 64 18 l62 3 0 59 0 60
60 0 c59 0 60 1 61 28 1 15 2 32 4 37 1 6 3 25 3 43 l2 32 60 0 59 0 3 63 3
62 62 3 62 3 3 67 3 67 63 3 62 3 0 63 0 62 62 0 63 -1 3 68 3 67 59 0 60 0 2
38 c1 20 1 47 0 60 -1 21 3 22 69 22 l69 0 0 60 0 60 60 0 c64 0 79 12 81 62
0 13 3 17 6 10 2 -6 9 -10 14 -7 5 4 6 -1 3 -9 -4 -11 1 -14 22 -11 16 1 30 8
32 14 5 16 22 13 22 -4 0 -8 -8 -15 -17 -16 -15 0 -15 -2 2 -8 16 -7 22 -3 28
18 4 14 5 43 2 63 l-5 38 70 0 70 0 0 66 0 67 45 -5 c25 -3 47 -3 50 1 2 4 5
30 7 59 2 42 6 52 21 52 10 0 16 4 12 10 -3 5 -12 7 -20 3 -8 -3 -15 0 -15 6
0 7 25 11 70 11 40 0 70 4 70 10 0 11 1152 15 1163 3 4 -4 22 -7 40 -8 95 -3
107 -5 107 -19 0 -8 -6 -17 -12 -19 -9 -4 -8 -6 2 -6 11 -1 15 -14 15 -53 l0
-53 48 -3 47 -3 0 -60 0 -59 65 0 c49 0 67 -4 71 -15 4 -8 10 -15 16 -15 5 0
6 5 3 10 -3 6 1 10 9 10 11 0 16 -10 17 -27 l1 -28 7 25 c5 18 14 25 31 25 23
0 25 -4 30 -65 l5 -65 63 -3 62 -3 0 -37 c0 -76 6 -82 70 -82 64 0 70 -6 70
-82 l0 -38 60 0 60 0 0 -70 0 -70 103 -1 c56 -1 105 -1 110 0 4 0 7 -26 7 -59
l0 -60 55 0 55 0 0 -70 0 -70 55 0 55 0 2 -52 c0 -29 1 -59 1 -66 -1 -9 26
-12 96 -13 53 -1 102 -1 109 0 6 1 12 -6 13 -16 0 -10 1 -40 2 -68 l2 -50 58
-3 57 -3 0 -59 c0 -65 -3 -62 90 -72 21 -3 25 -9 28 -48 2 -25 9 -49 15 -53 7
-4 38 -6 70 -3 l57 4 0 -49 0 -49 420 0 420 0 0 40 0 40 -125 0 -125 0 0 143
0 142 247 -5 248 -5 3 -52 3 -53 60 0 60 0 -5 54 -4 55 40 6 c22 4 103 4 179
0 l139 -7 0 -54 0 -54 50 0 50 0 0 55 0 55 314 0 c243 0 315 -3 317 -12 2 -7
3 -70 1 -141 l-3 -127 -114 0 c-63 0 -116 -4 -119 -9 -3 -5 -3 -23 0 -40 l7
-32 156 1 156 2 12 81 12 82 -6 -82 -5 -83 146 0 146 0 0 1160 c0 1166 0 1165
-31 1162 -3 -1 -6 33 -7 74 0 70 0 73 19 64 18 -10 19 -6 19 127 0 76 -4 133
-8 127 -4 -6 -16 -8 -26 -4 -33 11 -66 0 -67 -24 -1 -15 -3 -13 -8 9 -5 20
-10 -17 -15 -107 -6 -90 -12 -138 -20 -139 -6 0 -30 0 -53 1 l-43 2 0 -61 0
-60 -57 -3 -58 -3 0 -52 1 -52 -43 -7 c-23 -3 -54 -3 -67 0 -22 5 -25 12 -28
59 l-3 52 -44 3 -44 3 5 -55 c3 -41 1 -57 -9 -61 -8 -2 -11 -9 -8 -15 3 -5 1
-10 -4 -10 -6 0 -11 -8 -11 -17 0 -14 2 -15 9 -4 7 11 10 9 16 -8 8 -27 -2
-41 -15 -21 -8 12 -10 10 -10 -8 0 -19 4 -21 24 -16 13 3 27 1 30 -5 5 -8 -37
-11 -141 -11 -81 0 -490 -1 -908 -2 l-760 -3 -3 52 c-3 51 -4 52 -38 59 -19 3
-48 4 -64 0 l-30 -5 0 129 0 130 253 -2 252 -3 3 -62 3 -63 69 0 70 0 -2 -52
-3 -53 433 -3 434 -2 -4 55 -3 55 63 0 62 0 0 53 c0 28 4 57 8 63 4 7 33 11
70 10 l62 -2 0 63 0 63 -65 0 -65 0 0 500 0 500 60 0 60 0 0 67 0 66 180 -6
180 -6 0 60 0 59 70 0 70 0 0 70 0 70 -40 0 -40 0 0 60 0 60 38 0 38 0 -4 60
-4 60 56 0 56 0 0 245 0 245 -60 0 -60 0 0 71 0 71 55 -4 54 -3 6 50 c3 28 5
111 3 185 l-3 135 -117 3 -118 3 0 59 0 59 -57 3 -58 3 -3 58 -3 57 -59 0 -60
0 0 135 0 135 -60 0 -60 0 0 93 0 92 -62 -2 -63 -1 3 -87 4 -86 -64 3 -63 3 1
98 1 97 -53 0 -53 0 -3 -52 c-4 -66 -24 -66 -21 0 1 26 5 247 10 492 l8 445
46 3 47 3 7 -120 c6 -108 9 -120 27 -124 18 -5 20 -11 14 -54 -4 -26 -14 -53
-22 -59 -16 -13 -18 -92 -7 -357 l6 -167 60 0 60 0 -5 318 c-3 218 -1 319 6
321 6 1 31 3 56 4 l45 2 3 -62 3 -63 52 0 52 0 -3 60 c-3 50 -1 60 12 60 13 0
16 13 17 68 0 37 1 90 2 117 l2 50 58 3 57 3 0 54 0 55 60 0 60 0 0 60 0 60
60 0 61 0 -7 60 -7 60 57 0 56 0 0 60 0 60 60 0 60 0 0 60 c0 53 2 60 20 60
20 0 20 7 20 474 0 466 0 475 -20 481 -17 5 -20 15 -20 71 0 59 -2 64 -22 66
-13 1 -30 2 -38 4 -8 1 -26 2 -39 3 -21 1 -23 5 -19 46 l3 45 -52 0 -53 0 0
60 0 60 -47 1 c-27 1 -59 3 -73 5 -14 1 -76 0 -137 -3 l-113 -6 0 -28 c0 -25
-4 -28 -52 -34 -29 -4 -59 -12 -66 -18 -7 -5 -32 -11 -57 -13 -60 -5 -68 12
-63 127 3 100 4 99 -73 99 l-49 0 0 60 0 60 -55 0 -55 0 0 60 0 60 -125 0
-125 0 0 60 0 60 -65 0 -65 0 0 169 c0 182 -5 201 -53 201 -18 0 -19 1 -5 13
11 8 13 18 8 32 -5 11 -9 14 -9 8 -1 -21 -31 -14 -31 7 0 24 -29 40 -72 39
-31 -1 -32 -1 -8 -9 17 -6 7 -8 -34 -5 -34 2 -62 9 -67 17 -7 10 -9 10 -9 -1
0 -8 -2 -12 -5 -9 -7 7 5 38 15 38 4 0 10 -10 14 -22 8 -33 23 -11 28 42 4 42
3 46 -19 48 -13 1 -23 -4 -23 -11 0 -9 -2 -9 -8 -1 -4 7 -18 14 -32 17 -22 5
-22 5 5 5 17 0 36 0 43 1 8 1 12 22 12 71 l0 70 130 0 130 0 0 55 0 55 93 0
c50 0 109 3 130 6 l37 7 0 59 c0 38 4 60 13 63 14 5 118 14 165 15 29 0 32 3
32 30 l0 30 -104 0 -103 0 -7 -40z m-2793 -487 c-7 -2 -19 -2 -25 0 -7 3 -2 5
12 5 14 0 19 -2 13 -5z m2027 -102 c0 -58 -3 -130 -6 -158 l-7 -53 -47 0 c-45
0 -48 -2 -54 -31 -3 -17 -6 -74 -6 -125 l0 -94 -49 0 c-53 0 -61 -9 -61 -77 0
-18 -4 -33 -10 -33 -6 0 -10 -27 -10 -60 l0 -60 -70 0 c-51 0 -70 4 -69 13 1
6 1 33 0 60 l-1 47 -60 0 -60 0 0 55 0 55 -60 0 -60 0 0 125 0 125 -59 0 -59
0 5 78 c2 42 6 83 9 90 3 10 30 13 111 11 l108 -2 3 47 3 46 195 0 c181 0 194
1 194 18 0 29 10 33 67 31 l53 -2 0 -106z m233 23 c12 -4 13 -22 9 -95 -5 -88
-5 -89 19 -90 22 0 23 -1 4 -9 -18 -8 -17 -9 8 -9 23 -1 27 3 28 27 l1 27 7
-25 c3 -15 14 -26 26 -28 18 -2 20 2 17 43 -2 25 0 45 5 45 5 0 9 -19 10 -42
1 -24 3 -56 4 -73 1 -16 1 -69 0 -117 l-1 -88 -65 0 -65 0 7 -60 6 -60 -72 0
-71 0 0 158 c0 208 7 262 32 262 11 0 16 -4 13 -10 -3 -5 -1 -10 4 -10 6 0 11
7 11 15 0 8 5 15 11 15 5 0 7 5 4 10 -3 6 0 10 8 10 8 0 21 8 28 17 8 9 9 14
4 11 -6 -4 -17 -3 -25 3 -10 6 -11 9 -2 9 7 0 12 14 12 35 0 37 1 38 23 29z
m-7416 -110 c-3 -3 -12 -4 -19 -1 -8 3 -5 6 6 6 11 1 17 -2 13 -5z m7510 -51
c-3 -10 -5 -2 -5 17 0 19 2 27 5 18 2 -10 2 -26 0 -35z m-7584 -190 c-7 -2
-21 -2 -30 0 -10 3 -4 5 12 5 17 0 24 -2 18 -5z m7334 -185 c-3 -7 -5 -2 -5
12 0 14 2 19 5 13 2 -7 2 -19 0 -25z m-63 7 c3 -8 1 -15 -4 -15 -6 0 -10 7
-10 15 0 8 2 15 4 15 2 0 6 -7 10 -15z m554 -45 c12 -12 22 -28 22 -38 1 -10
6 -5 15 13 l13 30 1 -52 1 -53 63 0 63 0 -4 -60 c-2 -39 0 -60 7 -60 6 0 11
-8 12 -17 0 -15 2 -15 9 2 5 11 9 14 9 7 1 -8 9 -10 26 -6 19 5 25 2 25 -10 0
-9 5 -16 10 -16 6 0 10 5 10 12 0 6 3 9 6 5 3 -3 8 -48 11 -99 2 -51 6 -99 8
-105 3 -9 24 -13 60 -13 l55 0 0 -259 c0 -199 -3 -260 -12 -264 -10 -3 -10 -8
1 -21 12 -15 12 -17 0 -14 -8 2 -13 -3 -11 -11 1 -7 -5 -25 -14 -38 -12 -20
-13 -27 -4 -33 9 -5 10 -17 5 -36 -5 -16 -8 -36 -8 -46 0 -10 -5 -14 -14 -11
-12 5 -12 7 -1 14 10 7 10 9 -2 9 -11 0 -12 2 -3 8 9 6 10 16 3 37 -10 30 -10
30 -6 3 2 -19 -1 -28 -10 -28 -8 0 -14 -9 -14 -20 0 -11 -5 -20 -11 -20 -5 0
-7 5 -4 10 3 6 2 10 -3 10 -13 0 -22 -36 -22 -92 l0 -48 -120 0 -120 0 0 -60
0 -59 -67 -3 -68 -3 -3 -52 -3 -53 -55 0 -55 0 2 53 3 52 -57 0 c-31 0 -59 4
-63 7 -4 4 -7 32 -8 62 -1 30 -5 58 -9 62 -4 4 -7 2 -7 -4 0 -8 -34 -10 -112
-6 l-113 4 0 78 c-1 42 -2 97 -3 121 l-2 43 -54 -6 -54 -7 -7 123 c-3 68 -5
258 -3 423 l3 300 58 5 58 5 4 57 c2 35 -1 61 -8 65 -6 4 -33 5 -59 4 l-48 -2
0 40 c0 47 0 47 63 56 l47 7 0 -51 0 -51 125 0 125 0 0 56 c0 50 2 55 19 49
11 -3 22 -1 26 5 4 6 55 10 129 10 109 0 125 -2 144 -20z m297 -220 c3 -5 1
-10 -4 -10 -6 0 -11 5 -11 10 0 6 2 10 4 10 3 0 8 -4 11 -10z m-7292 -147
c-29 -2 -78 -2 -110 0 -32 2 -8 3 52 3 61 0 87 -1 58 -3z m25 -27 c-17 -12
-17 -14 1 -30 11 -10 17 -25 14 -37 -3 -10 -1 -19 3 -19 10 0 10 -108 0 -117
-3 -4 -32 -7 -64 -7 l-57 -1 -3 -48 -3 -48 -67 3 c-37 2 -66 7 -65 13 0 6 4
52 8 104 4 56 12 103 21 115 8 11 14 15 14 8 0 -6 9 -12 20 -12 11 0 19 6 18
13 -2 6 6 12 17 13 55 3 65 5 79 19 13 13 15 13 21 -5 4 -14 15 -20 33 -19 24
0 25 1 7 9 -11 5 -15 9 -10 10 22 2 -31 30 -59 32 -25 1 -22 2 14 8 74 11 77
11 58 -4z m7649 -78 c-3 -8 -6 -5 -6 6 -1 11 2 17 5 13 3 -3 4 -12 1 -19z
m451 -61 l3 -57 54 6 55 7 1 -164 c2 -228 4 -244 28 -275 16 -20 18 -30 10
-40 -6 -8 -18 -14 -25 -14 -11 0 -14 -33 -14 -177 0 -98 -4 -182 -8 -188 -4
-5 -29 -10 -57 -10 l-50 0 -5 -55 -5 -55 -52 3 -53 3 0 -65 c0 -36 -4 -67 -9
-70 -5 -4 -28 -7 -50 -8 -37 -1 -41 -4 -47 -32 -3 -18 -4 -38 -2 -46 2 -12
-11 -16 -63 -18 l-66 -3 6 -37 c4 -20 6 -43 5 -49 -1 -7 -2 -17 -3 -23 0 -5
-29 -10 -63 -10 l-63 0 1 103 c1 56 2 158 3 226 1 121 1 123 19 101 16 -19 22
-21 40 -11 12 6 22 16 22 21 0 6 7 10 15 10 13 0 15 53 15 413 0 226 3 449 7
495 l6 82 171 -2 171 -3 3 -58z m-8588 -66 c0 -5 -9 -7 -20 -4 -11 3 -20 7
-20 9 0 2 9 4 20 4 11 0 20 -4 20 -9z m8137 -243 c-2 -35 -3 -7 -3 62 0 69 1
97 3 63 2 -35 2 -91 0 -125z m600 116 c-3 -3 -12 -4 -19 -1 -8 3 -5 6 6 6 11
1 17 -2 13 -5z m-720 -1206 c-3 -7 -5 -2 -5 12 0 14 2 19 5 13 2 -7 2 -19 0
-25z m40 -75 c-3 -10 -5 -4 -5 12 0 17 2 24 5 18 2 -7 2 -21 0 -30z m-417
-513 c0 -327 -3 -500 -10 -500 -6 0 -10 36 -10 88 l0 88 -50 49 -50 49 0 281
c0 154 3 317 7 363 l6 82 53 0 54 0 0 -500z m-7780 -175 l0 -96 -67 3 c-38 2
-67 6 -65 11 1 4 2 45 2 92 l0 85 65 0 65 0 0 -95z m160 91 c0 -3 -4 -8 -10
-11 -5 -3 -10 -1 -10 4 0 6 5 11 10 11 6 0 10 -2 10 -4z m25 -6 c3 -5 1 -10
-4 -10 -6 0 -11 5 -11 10 0 6 2 10 4 10 3 0 8 -4 11 -10z m130 2 c6 -4 10 -13
9 -19 -1 -7 -2 -22 -3 -33 -1 -13 -11 -21 -35 -25 -40 -8 -80 10 -72 31 3 8 1
14 -4 14 -6 0 -10 -4 -10 -10 0 -5 -5 -10 -11 -10 -5 0 -8 4 -4 9 3 5 -5 12
-17 14 -20 4 -19 4 5 6 15 0 27 5 27 10 0 6 19 12 43 14 23 2 47 4 52 5 6 1
15 -2 20 -6z m-535 -73 c0 -21 -4 -39 -10 -39 -5 0 -10 21 -10 46 0 27 4 43
10 39 6 -3 10 -24 10 -46z m77 -71 c-3 -7 -5 -2 -5 12 0 14 2 19 5 13 2 -7 2
-19 0 -25z m7913 -448 c0 -54 -3 -70 -14 -70 -8 0 -23 -3 -33 -6 -15 -5 -15
-4 -3 5 11 8 4 10 -32 9 l-48 -1 0 -48 0 -49 -60 0 -61 0 3 58 3 57 58 3 57 3
0 48 c0 26 3 51 7 54 3 4 33 7 65 7 l58 0 0 -70z m-4650 -5 l0 -65 -65 0 -64
0 -3 -87 -3 -88 -645 -2 c-355 0 -702 -4 -772 -7 l-128 -5 0 154 0 155 808 3
c444 1 822 3 840 5 l32 2 0 -65z m3120 -91 l0 -151 -727 3 c-401 1 -758 2
-795 3 l-68 1 0 85 0 85 -64 0 c-58 0 -64 2 -70 23 -7 25 -8 92 -2 98 2 2 392
4 865 4 l861 0 0 -151z m1982 -69 l38 0 0 -67 0 -68 -37 -1 c-21 0 -46 -2 -55
-4 -16 -3 -18 6 -18 69 0 75 5 91 24 78 6 -4 28 -7 48 -7z m-1332 -62 l0 -63
-55 0 -55 0 0 65 0 66 55 -3 55 -3 0 -62z m127 -75 c-3 -8 -6 -5 -6 6 -1 11 2
17 5 13 3 -3 4 -12 1 -19z m70 16 c-3 -3 -12 -4 -19 -1 -8 3 -5 6 6 6 11 1 17
-2 13 -5z m-91 -52 c-3 -20 -5 -40 -5 -44 -1 -5 -16 -8 -33 -8 -18 0 -28 4
-23 8 6 4 10 24 9 45 -1 32 0 35 11 21 11 -15 12 -15 18 6 9 35 28 13 23 -28z
m1262 -129 l3 -53 58 0 58 0 1 -118 c1 -64 -2 -123 -7 -130 -5 -8 -31 -13 -70
-14 -35 0 -57 -4 -50 -8 8 -5 -2 -15 -29 -29 -22 -11 -44 -30 -47 -41 -11 -36
-30 -16 -33 36 l-3 50 -37 -3 -37 -2 40 8 c27 6 43 5 48 -3 6 -7 7 -4 3 7 -3
10 -6 41 -6 68 0 28 -5 49 -11 49 -5 0 -9 -8 -8 -17 1 -10 0 -29 -1 -43 -2
-23 -3 -23 -9 5 -6 27 -10 30 -44 30 -25 0 -36 4 -33 12 3 7 1 15 -4 18 -6 4
-10 -20 -10 -59 0 -42 4 -66 13 -69 7 -3 5 -6 -5 -6 -17 -1 -18 14 -18 183 l0
184 118 -1 117 -2 3 -52z m-2148 -509 l0 -556 -62 3 -63 4 -1 -107 c-1 -67 2
-108 8 -108 6 0 5 -6 -2 -15 -10 -12 -6 -14 27 -11 21 2 46 4 56 5 11 1 17 10
18 29 1 18 4 13 10 -18 4 -25 8 -291 8 -592 l1 -548 65 0 65 0 0 490 0 490 65
0 65 0 0 -65 0 -65 64 3 65 2 7 -63 6 -63 62 2 61 3 5 -60 5 -59 62 -3 62 -3
3 -57 3 -57 63 -3 62 -3 0 66 0 65 55 0 55 0 0 -505 0 -505 -244 0 c-273 0
-256 5 -256 -76 l0 -44 -65 0 -65 0 0 -239 0 -239 -22 -6 c-13 -3 -42 -6 -65
-6 l-43 0 0 -63 0 -63 69 4 70 4 3 -58 3 -59 83 -3 82 -3 -2 -292 -3 -292 -72
-3 -73 -3 0 61 0 60 -75 0 -75 0 0 60 0 60 -240 0 -240 0 0 60 0 59 -122 3
-123 3 3 58 4 57 -66 0 -66 0 0 154 c0 85 -3 161 -6 170 -5 12 -21 16 -65 16
l-59 0 0 -100 0 -100 -67 -1 c-138 -1 -300 1 -355 6 -34 2 -60 0 -64 -7 -16
-26 -24 27 -24 165 l0 147 -64 0 -64 0 5 -70 5 -70 -829 0 -828 0 0 70 0 70
-62 0 -63 0 0 -155 0 -155 -64 0 c-36 0 -68 -5 -71 -10 -4 -6 -11 -8 -16 -5
-5 4 -9 -9 -9 -27 0 -39 -14 -66 -24 -49 -4 6 -12 9 -17 6 -5 -3 -6 1 -3 9 3
9 10 16 16 16 5 0 6 -4 3 -10 -3 -5 -1 -10 5 -10 6 0 10 12 8 27 -2 19 -10 29
-28 33 -24 7 -205 19 -282 20 l-38 0 0 100 0 100 -65 0 -65 0 0 -170 0 -170
-66 0 c-56 0 -65 -2 -60 -16 3 -9 6 -32 6 -52 0 -28 3 -33 10 -22 6 10 10 11
10 3 0 -8 16 -14 43 -15 78 -2 -79 -16 -205 -17 l-118 -1 0 -60 0 -60 -205 0
-205 0 0 -60 0 -60 -125 0 -125 0 0 -60 0 -60 -70 0 -70 0 0 295 0 295 75 0
75 0 0 60 0 60 125 0 125 0 0 55 0 55 263 2 262 3 -1 53 -2 52 64 0 64 0 1 45
c1 25 2 49 3 54 2 14 16 26 16 14 0 -6 19 -8 50 -5 46 4 49 3 56 -22 3 -14 4
-38 2 -51 -5 -25 -4 -25 63 -25 l69 0 0 120 0 120 -65 0 -65 0 0 65 0 64 63 3
62 3 3 68 3 67 59 0 60 0 0 60 0 59 67 3 67 3 1 40 c0 22 2 79 3 128 l2 87 65
0 65 0 0 70 0 70 -65 0 -64 0 -3 -62 -3 -63 -70 -6 c-38 -4 -157 -7 -262 -8
l-193 -1 0 120 0 119 -57 3 c-51 3 -58 6 -64 28 -4 14 -7 375 -8 803 l-1 777
65 0 65 0 0 60 0 60 -120 0 -120 0 0 75 0 75 119 0 c136 0 131 4 131 -99 0
-44 3 -52 16 -47 9 3 33 6 55 6 l39 0 0 65 0 64 35 7 c19 3 51 3 70 0 l35 -7
0 65 0 66 -187 2 -188 3 -3 57 -3 57 153 -5 c84 -3 161 -7 171 -9 9 -2 17 1
17 5 0 5 9 8 20 7 18 -1 20 -8 20 -59 l0 -58 198 2 197 3 -4 -252 -4 -253 67
0 67 0 -3 -62 -3 -63 -57 0 c-49 0 -58 -2 -62 -20 -8 -27 -7 -314 0 -342 6
-21 13 -23 65 -23 l59 0 0 195 0 195 65 0 65 0 -2 -192 -3 -193 -62 -3 -63 -3
0 -59 0 -60 65 0 65 0 0 60 0 60 65 0 65 0 0 435 0 435 65 0 65 0 0 65 0 65
65 0 65 0 0 55 0 55 120 0 120 0 0 -47 c0 -88 4 -93 71 -93 l59 0 0 -50 0 -50
130 0 130 0 0 -100 0 -100 185 0 184 0 7 -35 6 -35 59 0 59 0 2 -202 c2 -184
5 -315 7 -375 1 -21 6 -23 61 -23 l60 0 0 -56 0 -56 -59 4 -59 3 -6 -50 c-3
-27 -6 -83 -6 -122 l0 -73 -54 0 -55 0 -3 53 c-2 38 -5 21 -12 -61 l-8 -114
-59 4 c-65 3 -69 -1 -69 -74 l0 -38 -60 0 -60 0 0 -45 0 -45 -279 0 c-154 0
-282 4 -285 9 -3 4 27 7 66 5 50 -2 68 0 58 7 -10 7 45 9 169 6 200 -4 256 4
256 37 0 23 -27 28 -86 17 -38 -8 -40 -9 -14 -11 29 -2 29 -2 -11 -15 -42 -13
-400 -26 -367 -13 10 3 35 7 56 7 20 1 37 5 37 9 0 5 -21 6 -47 2 -27 -5 -52
-5 -57 -2 -19 11 30 21 107 21 62 1 77 -2 77 -14 0 -20 76 -21 83 -1 3 8 3 17
0 20 -4 3 -91 6 -194 6 -187 0 -188 0 -192 -22 -4 -22 -4 -21 -6 2 -1 24 -3
25 -64 22 l-63 -4 4 41 c2 23 1 52 -2 66 -6 22 -9 23 -32 15 -14 -6 -41 -10
-60 -10 l-34 0 0 55 0 55 -65 0 -65 0 0 -60 0 -60 59 0 c58 0 59 -1 65 -31 3
-17 6 -42 6 -55 0 -23 4 -24 60 -24 l60 0 0 -106 0 -106 -125 4 -125 4 0 -71
0 -70 65 3 65 4 0 -86 0 -86 28 -1 c15 -1 43 -2 62 -3 l35 -1 3 -67 3 -68 60
0 60 0 -2 80 c-1 44 -6 77 -11 74 -4 -3 -6 -10 -3 -15 4 -5 -18 -9 -49 -9
l-56 0 0 95 0 95 59 0 c33 0 62 5 64 10 3 6 4 5 3 -2 -1 -7 -17 -15 -34 -19
-18 -4 -39 -12 -47 -19 -10 -9 -15 -9 -15 -1 0 6 -4 11 -9 11 -5 0 -7 -9 -4
-20 4 -14 14 -20 32 -20 15 0 35 -6 46 -13 11 -7 27 -12 35 -11 8 1 36 2 63 3
l47 1 0 45 0 45 98 2 c53 1 140 1 192 1 l95 -2 3 -46 3 -45 60 0 59 0 0 -120
0 -120 65 0 65 0 0 65 0 64 63 3 62 3 3 88 3 87 59 0 60 0 0 71 0 71 -125 -7
-125 -7 0 106 0 106 65 0 65 0 0 55 0 55 63 0 63 0 -4 60 -4 59 68 3 69 3 3
118 3 117 59 0 60 0 0 60 0 60 -60 0 -60 0 0 195 0 195 60 0 60 0 0 60 0 60
65 0 65 0 0 250 0 250 103 0 c56 0 166 3 245 7 l142 6 0 -66 0 -67 61 0 61 0
-4 -70 -3 -70 53 0 c57 0 52 7 56 -85 l1 -40 58 -3 57 -3 0 -804 0 -805 -54 0
-53 0 -6 -82 c-4 -46 -7 -100 -7 -120 l0 -38 120 0 120 0 0 -71 0 -72 -92 7
c-50 3 -124 6 -165 6 l-73 0 0 69 0 69 -225 -5 c-124 -2 -234 -1 -245 2 -17 5
-20 15 -20 71 l0 64 -65 0 c-76 0 -84 -10 -75 -88 l5 -47 68 -3 67 -3 0 -54 0
-55 -37 -2 -38 -1 37 -4 c37 -4 37 -4 43 -61 9 -84 8 -82 72 -82 l58 0 -3 -60
-4 -60 61 0 60 0 3 -68 c2 -44 7 -67 16 -68 6 -1 33 -2 60 -3 l47 -1 -3 -65
c-4 -64 -4 -64 -35 -69 -18 -3 -43 -4 -55 -3 -24 2 -24 1 -28 -115 l-5 -118
78 0 c50 0 73 4 64 9 -8 5 -15 27 -15 53 l-1 43 57 3 57 3 3 -58 3 -58 63 4
64 3 -4 -58 -3 -59 260 -3 c143 -2 279 0 303 3 l42 6 0 60 0 59 -70 0 -70 0 0
60 0 59 -62 3 -63 3 -3 63 -3 62 -54 0 -55 0 0 65 0 65 -55 0 -55 0 0 115 0
114 -57 4 c-34 2 -14 4 50 5 l107 2 0 60 0 60 60 0 60 0 0 70 0 70 -60 0 -60
0 0 65 0 65 -62 0 -63 0 3 54 c4 51 5 54 34 60 17 3 43 6 59 6 l29 0 0 629 0
628 36 6 c57 10 85 -34 47 -75 -15 -17 -15 -18 2 -18 11 0 15 -5 11 -15 -3 -9
0 -15 9 -15 13 0 15 26 15 161 l0 161 -60 -4 -60 -3 0 133 0 132 59 0 59 0 4
73 c3 39 3 75 1 80 -2 4 -31 7 -64 7 l-59 0 -2 63 c-4 103 -3 151 0 165 3 8
26 12 68 12 60 0 64 2 64 23 0 12 4 28 9 36 7 11 13 9 30 -8 21 -21 41 -21 41
1 0 9 29 45 38 47 1 1 2 -249 2 -555z m920 530 c0 -14 -4 -23 -9 -20 -5 3 -7
15 -4 26 7 28 13 25 13 -6z m-245 -34 c3 -5 1 -10 -4 -10 -6 0 -11 5 -11 10 0
6 2 10 4 10 3 0 8 -4 11 -10z m-4955 -162 l0 -118 -65 0 -65 0 0 -80 0 -80 65
0 65 0 0 -130 0 -130 -60 0 -59 0 -3 -164 -3 -164 35 4 c19 3 47 2 62 -1 l28
-7 0 -567 0 -568 56 5 c66 5 74 -2 74 -70 l0 -48 -65 0 -65 0 0 -65 0 -65 124
0 c140 0 136 3 136 -88 l0 -43 -127 3 c-120 3 -128 4 -129 23 0 11 -1 39 -2
63 l-2 42 -60 0 -60 0 0 -71 0 -71 60 4 60 3 0 -63 0 -63 238 1 c130 0 247 1
260 0 19 0 22 -5 22 -44 0 -71 -4 -76 -71 -76 l-59 0 0 -65 0 -65 -65 0 -65 0
0 -130 0 -130 -65 0 -65 0 0 -55 0 -55 -260 0 -260 0 0 -60 0 -60 -65 0 -65 0
0 185 0 185 65 0 65 0 0 315 0 315 -65 0 -65 0 0 -255 0 -255 -60 0 -60 0 0
545 0 545 38 0 c20 0 47 3 60 6 l22 6 0 259 0 259 65 0 65 0 0 -555 0 -555 60
0 c46 0 60 3 61 15 1 8 3 20 4 25 1 6 3 250 4 543 l1 533 65 -2 65 -2 0 123 0
123 -31 6 c-17 3 -47 6 -65 6 l-34 0 0 498 0 498 130 0 130 -1 0 -117z m3577
55 c-3 -10 -5 -2 -5 17 0 19 2 27 5 18 2 -10 2 -26 0 -35z m1720 -95 c-2 -18
-4 -6 -4 27 0 33 2 48 4 33 2 -15 2 -42 0 -60z m-1632 39 l80 -3 -87 -2 c-78
-2 -88 0 -88 16 0 11 3 13 8 5 5 -7 40 -13 87 -16z m165 3 c0 -5 -10 -10 -22
-9 -22 0 -22 1 -3 9 11 5 21 9 23 9 1 1 2 -3 2 -9z m196 -202 l-1 -73 -115 0
-115 0 -3 73 -3 72 119 0 120 0 -2 -72z m2784 33 c3 0 4 -21 2 -46 -3 -28 0
-45 7 -45 6 0 11 -3 11 -8 0 -4 -20 -6 -45 -4 l-45 4 0 48 c0 54 15 65 70 51z
m74 -98 c10 4 15 3 11 -3 -6 -10 -45 -15 -45 -6 0 2 -3 13 -6 23 -6 17 -6 17
8 -1 10 -12 21 -17 32 -13z m-2224 -75 c-4 -52 -8 -63 -22 -62 -10 0 -36 1
-58 2 l-40 2 0 60 0 60 63 0 62 0 -5 -62z m1937 0 c-3 -8 -6 -5 -6 6 -1 11 2
17 5 13 3 -3 4 -12 1 -19z m33 -8 c0 -5 -2 -10 -4 -10 -3 0 -8 5 -11 10 -3 6
-1 10 4 10 6 0 11 -4 11 -10z m-2186 -160 c13 0 38 -3 55 -6 31 -6 31 -7 31
-66 l0 -59 -57 3 -58 3 -1 95 c-1 52 1 80 3 63 3 -27 9 -33 27 -33z m2314 -72
l3 -58 -46 0 -45 0 0 53 c0 30 3 57 7 61 4 4 23 6 43 4 l35 -3 3 -57z m-174
36 c3 -9 4 -20 0 -25 -3 -5 3 -9 13 -10 10 0 13 -3 6 -6 -7 -2 -13 -14 -12
-26 0 -15 2 -17 6 -7 7 17 23 30 37 30 6 0 2 -6 -9 -13 -14 -11 -15 -16 -5
-22 9 -5 11 -4 6 3 -9 15 1 15 17 1 15 -14 10 -121 -7 -131 -6 -4 -35 -8 -64
-8 -29 0 -61 -4 -71 -10 -16 -8 -20 -5 -24 19 -4 16 -3 45 0 65 5 33 8 36 39
36 l34 0 0 60 c0 45 4 60 14 60 8 0 17 -7 20 -16z m-1808 -151 l-1 -68 -62 -3
-63 -3 0 -54 c0 -61 -8 -68 -82 -64 l-44 3 4 58 c4 58 4 58 -24 59 l-29 2 26
4 c23 3 27 9 27 36 1 53 6 72 22 79 26 12 88 9 93 -4 3 -8 6 -6 6 5 1 14 11
17 64 17 l63 0 0 -67z m2054 45 c0 -9 4 -8 10 2 7 11 10 11 10 2 0 -7 4 -11 9
-8 23 15 41 -7 41 -50 l0 -44 -49 0 c-28 0 -53 5 -56 11 -12 19 5 99 21 99 8
0 14 -6 14 -12z m-54 -169 c-3 -33 -8 -65 -12 -70 -3 -5 -29 -9 -59 -9 -61 0
-65 5 -65 86 l0 54 71 0 72 0 -7 -61z m-1623 33 c-12 -12 -27 -17 -43 -14 -14
2 -34 6 -45 7 -11 2 -21 4 -23 4 -2 1 0 6 3 11 3 6 33 10 66 10 57 0 58 -1 42
-18z m-18 -84 l40 -4 3 -52 c3 -50 4 -52 40 -61 20 -5 48 -11 62 -13 22 -3 25
-8 28 -53 3 -63 -4 -74 -53 -76 -59 -3 -75 -14 -69 -47 3 -15 1 -39 -5 -54
-10 -27 -14 -28 -75 -28 -63 0 -65 0 -71 30 -6 27 -35 44 -35 20 0 -5 -4 -10
-10 -10 -5 0 -7 6 -4 14 6 16 -48 32 -67 20 -7 -4 -10 -1 -7 7 3 8 11 15 19
15 31 3 33 7 4 13 -25 5 -31 12 -36 45 -3 21 -3 55 2 75 5 20 9 53 9 73 0 45
14 51 63 26 44 -22 57 -17 57 21 0 31 16 52 36 44 8 -3 14 1 14 8 0 10 2 11 8
2 4 -6 25 -13 47 -15z m-740 -78 l0 -55 -55 0 -55 0 -3 52 c-3 57 3 62 78 59
l35 -1 0 -55z m375 23 c0 -76 -6 -83 -66 -83 l-54 0 0 60 0 60 60 0 60 0 0
-37z m1608 -84 l47 -1 -45 -14 -45 -13 45 4 c25 2 37 2 27 -1 -14 -4 -17 -14
-15 -37 2 -18 8 -31 15 -30 6 1 14 -15 17 -37 3 -22 9 -57 12 -78 l5 -39 50 5
49 5 0 -67 0 -66 -55 0 -55 0 0 66 c0 56 -2 65 -16 60 -9 -3 -38 -6 -65 -6
l-49 0 0 -69 c0 -54 -4 -70 -16 -75 -25 -10 -94 -7 -94 4 0 5 3 9 8 9 4 -1 22
-1 40 0 46 1 40 21 -7 21 l-38 0 -7 56 c-3 30 -4 60 -1 65 4 5 31 9 60 9 51 0
55 2 61 26 4 15 4 69 1 121 -5 82 -3 94 10 89 8 -3 36 -6 61 -7z m-1878 -54
c0 -30 1 -58 3 -62 4 -14 -86 -15 -94 -1 -10 16 -12 102 -2 111 3 4 26 7 50 7
l43 0 0 -55z m1790 -5 l0 -60 -56 0 -56 0 4 -49 3 -49 -107 -1 -108 0 0 45 0
44 45 0 c42 0 45 2 45 28 1 23 2 24 11 10 6 -12 23 -18 47 -19 33 -1 34 -2 12
-9 -18 -6 -20 -8 -7 -9 23 -1 57 17 57 30 0 6 -4 8 -10 4 -6 -3 -5 5 1 23 5
16 9 33 8 38 -5 29 3 34 56 34 l55 0 0 -60z m-510 -60 c10 -6 11 -10 3 -10 -7
0 -13 -5 -13 -11 0 -5 4 -8 9 -5 10 7 25 -45 24 -81 -2 -57 -4 -64 -13 -58 -6
4 -10 -5 -10 -19 0 -22 -4 -26 -30 -26 -20 0 -30 -5 -30 -15 0 -8 -7 -15 -15
-15 -11 0 -15 11 -15 37 0 20 3 33 7 30 3 -4 12 -2 19 4 9 8 11 6 8 -8 -4 -13
1 -19 15 -20 11 -1 23 2 26 8 4 5 -1 9 -9 9 -9 0 -16 5 -16 11 0 6 7 8 16 5
12 -4 14 -1 9 13 -4 13 0 21 12 24 10 3 -4 5 -31 4 -31 -1 -50 -7 -52 -15 -1
-7 0 -8 3 -2 6 14 53 13 53 -1 0 -6 -9 -9 -20 -6 -13 3 -20 0 -20 -9 0 -8 -6
-11 -15 -8 -12 5 -15 24 -15 84 0 66 3 79 18 83 31 8 67 7 82 -3z m-820 -94
c0 -2 -7 -7 -16 -10 -8 -3 -12 -2 -9 4 6 10 25 14 25 6z m664 -21 c19 -14 18
-15 -12 -15 -22 0 -32 5 -32 15 0 19 19 19 44 0z m996 -23 c0 -4 -9 -8 -20 -9
-11 -1 -20 2 -20 8 0 5 9 9 20 9 11 0 20 -4 20 -8z m49 -79 l1 -42 -57 2 -58
2 0 45 c0 44 0 45 40 51 26 4 43 3 47 -5 5 -6 8 -1 9 14 l1 25 8 -25 c4 -14 8
-44 9 -67z m-919 -7 c0 -3 -4 -8 -10 -11 -5 -3 -10 -1 -10 4 0 6 5 11 10 11 6
0 10 -2 10 -4z m668 -44 c7 -1 12 -17 12 -40 0 -32 -5 -41 -25 -50 -14 -7 -39
-12 -55 -12 -29 0 -30 1 -30 49 0 27 5 51 10 53 10 3 61 3 88 0z m-1325 -162
c3 -11 1 -20 -4 -20 -5 0 -9 9 -9 20 0 11 2 20 4 20 2 0 6 -9 9 -20z m370 -40
c3 -11 1 -20 -4 -20 -5 0 -9 9 -9 20 0 11 2 20 4 20 2 0 6 -9 9 -20z m445 -37
c-10 -2 -28 -2 -40 0 -13 2 -5 4 17 4 22 1 32 -1 23 -4z m-490 -18 c2 -2 5
-27 6 -54 l1 -51 46 0 c25 0 87 -3 137 -6 l92 -7 2 -46 2 -46 3 47 c3 33 9 48
21 51 9 3 4 5 -13 6 -34 1 -73 21 -42 21 9 0 17 5 17 10 0 6 10 10 23 9 l22 0
-22 -9 c-32 -13 -29 -20 8 -17 25 2 30 5 26 24 -2 12 1 24 7 27 6 2 0 5 -14 5
-30 1 -57 17 -47 27 12 13 107 17 107 5 0 -6 -6 -11 -12 -12 -9 0 -9 -2 1 -6
11 -5 11 -7 0 -14 -11 -7 -9 -9 6 -9 18 0 21 -7 23 -65 3 -54 1 -65 -12 -65
-19 0 -22 -30 -3 -31 6 0 3 -4 -8 -9 -14 -6 5 -9 60 -10 44 -1 100 -5 125 -8
38 -6 45 -10 44 -30 -1 -15 4 -22 17 -22 12 0 19 -9 22 -27 2 -16 5 -2 6 30
l1 57 59 0 c48 0 60 -3 63 -18 8 -29 9 -169 2 -206 l-6 -35 -188 6 c-146 5
-189 3 -195 -7 -12 -19 -12 -99 0 -104 6 -2 70 -5 143 -5 114 -2 132 0 132 14
0 13 3 13 20 3 16 -10 24 -10 41 0 12 8 18 9 14 3 -3 -6 -1 -11 4 -11 6 0 11
5 11 11 0 5 5 7 10 4 6 -4 10 -105 10 -271 l0 -264 -60 0 -59 0 -3 -57 -3 -58
-312 -3 -313 -2 0 60 0 60 -65 0 -65 0 0 540 c0 425 3 540 13 540 9 0 8 3 -2
9 -28 18 0 34 47 27 25 -3 47 -8 50 -11z m185 8 c-7 -2 -19 -2 -25 0 -7 3 -2
5 12 5 14 0 19 -2 13 -5z m-3920 -20 c-5 -12 -2 -15 10 -10 9 3 19 2 22 -3 4
-6 -5 -10 -19 -10 -19 0 -26 5 -26 20 0 11 4 20 10 20 5 0 6 -8 3 -17z m90 10
c-7 -2 -19 -2 -25 0 -7 3 -2 5 12 5 14 0 19 -2 13 -5z m440 0 c-7 -2 -19 -2
-25 0 -7 3 -2 5 12 5 14 0 19 -2 13 -5z m3497 -43 c0 -5 -4 -10 -10 -10 -5 0
-10 5 -10 10 0 6 5 10 10 10 6 0 10 -4 10 -10z m398 -15 c-3 -3 -9 2 -12 12
-6 14 -5 15 5 6 7 -7 10 -15 7 -18z m-8198 -110 l0 -45 -55 0 -55 0 0 45 0 45
55 0 55 0 0 -45z m250 0 l0 -45 -55 0 c-30 0 -56 3 -56 8 -13 76 -9 82 56 82
l55 0 0 -45z m250 0 l0 -45 -55 0 -55 0 0 45 0 45 55 0 55 0 0 -45z m820 -385
c0 -376 -2 -430 -15 -430 -13 0 -15 22 -15 140 l0 140 -60 0 -60 0 0 60 0 60
-65 0 -65 0 0 65 0 65 -65 0 -65 0 0 68 c0 37 -3 91 -6 120 l-7 52 -128 0
-129 0 0 45 0 45 340 0 340 0 0 -430z m3017 384 c-3 -3 -12 -4 -19 -1 -8 3 -5
6 6 6 11 1 17 -2 13 -5z m-3567 -224 c0 -33 -3 -60 -7 -61 -35 -5 -1124 -5
-1127 0 -2 3 -1 32 1 64 l5 57 564 0 564 0 0 -60z m3727 -73 c-4 -12 -57 -18
-57 -7 0 8 44 27 53 22 4 -2 6 -9 4 -15z m-4989 -57 l-4 -60 698 0 698 0 0
-60 0 -60 130 0 130 0 0 -200 0 -200 -60 0 c-70 0 -65 11 -61 -152 l3 -98 -45
0 c-78 0 -77 -2 -77 126 l0 114 -809 0 c-529 0 -812 -3 -816 -10 -3 -5 0 -10
7 -10 10 0 10 -2 -1 -9 -8 -5 -10 -14 -5 -22 4 -7 8 -23 9 -36 1 -21 -3 -23
-55 -23 l-55 0 0 258 0 257 103 3 102 3 0 119 0 120 56 0 56 0 -4 -60z m4922
50 c0 -5 -2 -10 -4 -10 -3 0 -8 5 -11 10 -3 6 -1 10 4 10 6 0 11 -4 11 -10z
m3785 -90 c3 -5 1 -10 -4 -10 -6 0 -11 5 -11 10 0 6 2 10 4 10 3 0 8 -4 11
-10z m-5716 -68 c-2 -28 1 -42 9 -42 4 0 7 17 5 38 -1 20 0 29 3 19 3 -9 10
-15 15 -12 5 4 9 -1 9 -9 0 -10 10 -17 28 -18 15 0 33 -2 41 -2 8 -1 16 -7 19
-14 2 -6 8 -12 13 -12 6 0 6 7 0 19 -11 19 8 33 72 52 l28 8 -3 -57 -3 -57
-95 -3 c-94 -3 -170 10 -170 28 0 6 5 10 10 10 6 0 8 16 4 42 -5 31 -4 39 5
34 7 -4 11 -15 10 -24z m3281 -282 l0 -60 55 0 55 0 0 -65 0 -64 58 -3 57 -3
-3 -57 -4 -58 61 0 61 0 0 -65 0 -65 60 0 61 0 -3 -57 -3 -58 -162 -3 -163 -2
0 54 0 55 -57 3 -58 3 -3 128 -3 127 -59 0 -60 0 0 65 0 65 -60 0 -60 0 0 60
0 60 115 0 115 0 0 -60z m-4370 -200 c-13 -8 -13 -10 2 -10 9 0 19 6 22 13 2
6 3 -28 1 -78 -2 -49 -4 -105 -4 -122 l-1 -33 -59 0 -58 0 -7 77 c-3 42 -6 94
-6 116 0 38 1 39 30 35 17 -3 30 -1 30 4 0 4 15 8 33 8 24 0 28 -3 17 -10z
m-2348 -96 c-6 -35 -12 -29 -12 14 0 23 3 32 9 24 4 -7 6 -24 3 -38z m10099
-33 c-11 -7 -13 -23 -8 -68 3 -36 2 -49 -3 -33 -10 31 -12 94 -3 103 3 4 11 7
17 7 6 0 5 -4 -3 -9z m-8241 -166 l0 -65 -195 0 -195 0 0 43 c0 23 -3 52 -6
65 l-6 22 201 0 201 0 0 -65z m250 1 c0 -60 -2 -61 -72 -65 l-48 -3 0 61 0 61
60 0 60 0 0 -54z m7580 -1 c-7 -14 -20 -25 -29 -24 -11 0 -12 2 -3 6 6 2 12
14 12 26 0 18 2 19 10 7 8 -13 10 -12 10 4 0 11 3 16 7 13 3 -4 0 -18 -7 -32z
m420 10 c5 3 11 2 14 -3 2 -4 -4 -9 -15 -9 -14 -1 -19 4 -18 20 1 17 2 18 6 4
2 -9 8 -15 13 -12z m-450 -1 c0 -8 -6 -11 -15 -8 -8 4 -15 9 -15 13 0 4 7 8
15 8 8 0 15 -6 15 -13z m-1855 -54 c-3 -5 -23 -9 -43 -9 l-37 2 35 7 c52 11
52 11 45 0z m33 -202 l3 -58 -65 0 -64 0 -4 56 c-1 31 -1 58 2 60 2 3 31 4 65
2 l60 -3 3 -57z m1860 -3 l3 -60 59 3 c57 4 60 3 61 -20 1 -18 2 -19 6 -5 5
18 5 18 19 0 13 -17 13 -17 14 2 0 17 2 17 10 5 7 -11 10 -11 10 -2 0 9 5 10
19 2 14 -7 21 -6 24 3 6 17 19 -150 15 -198 l-3 -40 -70 -7 c-104 -10 -1737
-9 -1749 1 -6 5 -35 5 -63 2 l-53 -7 1 65 c2 59 3 62 9 26 4 -22 8 -31 10 -20
2 11 6 2 10 -20 l7 -40 2 43 c1 52 20 47 23 -6 1 -24 4 -14 8 28 5 53 7 57 8
22 1 -27 6 -41 15 -40 8 2 14 34 17 103 l5 100 130 5 130 5 3 58 3 57 657 -2
657 -3 3 -60z m-8486 -90 c-2 -16 -1 -49 3 -72 l6 -43 55 0 54 0 0 -190 0
-190 139 0 139 0 5 28 c3 15 1 105 -5 200 l-11 172 -66 2 c-36 0 -92 2 -124 2
l-58 1 3 59 3 59 253 2 252 2 0 -58 0 -58 58 -3 57 -3 3 -60 3 -61 65 4 65 4
-7 -209 c-3 -114 -8 -210 -10 -212 -7 -7 -1945 -13 -1962 -6 -9 4 -36 7 -59 6
l-43 -3 0 49 c0 30 3 43 9 35 14 -23 21 12 20 96 -1 42 -4 67 -6 55 -10 -52
-23 -17 -24 65 l-2 87 -9 -95 c-5 -52 -7 -121 -6 -152 2 -31 0 -54 -5 -49 -4
4 -6 104 -5 222 l3 214 60 5 60 5 3 60 3 60 542 0 542 0 -3 -30z m1018 18 c0
-10 3 -35 6 -55 l7 -38 -67 0 -66 0 0 48 c0 27 3 52 7 55 3 4 30 7 60 7 44 0
53 -3 53 -17z m5840 -33 c0 -5 -5 -10 -11 -10 -5 0 -7 5 -4 10 3 6 8 10 11 10
2 0 4 -4 4 -10z m-4143 -127 c-3 -10 -5 -4 -5 12 0 17 2 24 5 18 2 -7 2 -21 0
-30z m2218 7 c3 -5 1 -10 -4 -10 -6 0 -11 5 -11 10 0 6 2 10 4 10 3 0 8 -4 11
-10z m-2272 -37 c-35 -2 -91 -2 -125 0 -35 2 -7 3 62 3 69 0 97 -1 63 -3z
m2325 0 c-15 -2 -42 -2 -60 0 -18 2 -6 4 27 4 33 0 48 -2 33 -4z m100 0 c-10
-2 -28 -2 -40 0 -13 2 -5 4 17 4 22 1 32 -1 23 -4z m-2981 -85 c-3 -7 -5 -2
-5 12 0 14 2 19 5 13 2 -7 2 -19 0 -25z m-3297 -349 c0 -10 -4 -19 -10 -19 -5
0 -10 12 -10 26 0 14 4 23 10 19 6 -3 10 -15 10 -26z m8590 -145 l0 -56 58 4
57 3 3 53 3 52 170 -1 170 -1 43 -45 c49 -50 66 -50 66 3 0 21 4 33 10 29 6
-3 10 -1 10 5 0 7 93 9 308 8 l307 -3 3 -187 c1 -104 6 -188 11 -188 5 0 15
14 23 30 l13 31 6 -33 c4 -21 7 1 9 62 3 83 4 89 10 45 l7 -50 1 68 c1 39 -2
67 -8 67 -5 0 -10 18 -10 39 0 59 20 62 21 4 1 -51 4 -46 14 30 3 26 10 45 14
42 9 -5 4 -345 -5 -354 -3 -3 -411 -6 -906 -6 l-900 0 1 194 c1 107 4 198 7
203 3 4 113 8 245 8 l239 0 0 -56z m1325 36 c3 -5 1 -10 -4 -10 -6 0 -11 5
-11 10 0 6 2 10 4 10 3 0 8 -4 11 -10z m-9427 -17 c-16 -2 -40 -2 -55 0 -16 2
-3 4 27 4 30 0 43 -2 28 -4z m95 0 c-7 -2 -21 -2 -30 0 -10 3 -4 5 12 5 17 0
24 -2 18 -5z m650 0 c-46 -2 -120 -2 -165 0 -46 1 -9 3 82 3 91 0 128 -2 83
-3z m450 0 c-18 -2 -48 -2 -65 0 -18 2 -4 4 32 4 36 0 50 -2 33 -4z m8164
-105 c-2 -13 -4 -3 -4 22 0 25 2 35 4 23 2 -13 2 -33 0 -45z m0 -145 c-2 -16
-4 -5 -4 22 0 28 2 40 4 28 2 -13 2 -35 0 -50z m-7887 -308 l0 -325 -62 0
c-35 1 -452 0 -928 -2 l-865 -3 -3 328 -2 327 930 0 930 0 0 -325z m-1968 75
c4 -130 3 -170 -2 -110 -8 100 -13 326 -6 319 2 -2 6 -96 8 -209z m25 -32 c-3
-8 -6 -5 -6 6 -1 11 2 17 5 13 3 -3 4 -12 1 -19z m30 -190 c-2 -35 -3 -7 -3
62 0 69 1 97 3 63 2 -35 2 -91 0 -125z m-57 -95 c-4 -42 -5 -44 -8 -15 -3 30
2 62 10 62 2 0 1 -21 -2 -47z m67 -75 c-3 -7 -5 -2 -5 12 0 14 2 19 5 13 2 -7
2 -19 0 -25z m9860 -20 c-2 -13 -4 -5 -4 17 -1 22 1 32 4 23 2 -10 2 -28 0
-40z m-9930 20 c-3 -8 -6 -5 -6 6 -1 11 2 17 5 13 3 -3 4 -12 1 -19z"/>
<path d="M8474 9482 c-6 -4 -13 -15 -17 -24 -3 -9 -16 -18 -29 -21 -15 -3 -9
-5 15 -6 24 -1 36 3 32 9 -4 6 -1 18 6 26 13 16 9 27 -7 16z"/>
<path d="M8415 9460 c-3 -5 -1 -10 4 -10 6 0 11 5 11 10 0 6 -2 10 -4 10 -3 0
-8 -4 -11 -10z"/>
<path d="M8552 9057 c-8 -10 -5 -13 14 -15 13 -1 24 2 24 7 0 6 12 12 28 14
19 3 16 4 -14 6 -23 0 -46 -5 -52 -12z"/>
<path d="M9148 8093 c6 -2 18 -2 25 0 6 3 1 5 -13 5 -14 0 -19 -2 -12 -5z"/>
<path d="M9142 8060 c0 -14 2 -19 5 -12 2 6 2 18 0 25 -3 6 -5 1 -5 -13z"/>
<path d="M9170 8068 c0 -9 5 -20 10 -23 13 -8 13 5 0 25 -8 13 -10 13 -10 -2z"/>
<path d="M9201 8014 c0 -11 3 -14 6 -6 3 7 2 16 -1 19 -3 4 -6 -2 -5 -13z"/>
<path d="M9140 7980 c-1 -14 -4 -37 -6 -52 -1 -16 1 -28 6 -28 15 0 21 42 11
75 -9 29 -9 29 -11 5z"/>
<path d="M9340 5431 c0 -17 12 -41 21 -41 5 0 9 11 9 25 0 16 -6 25 -15 25 -8
0 -15 -4 -15 -9z"/>
<path d="M9351 5364 c0 -11 3 -14 6 -6 3 7 2 16 -1 19 -3 4 -6 -2 -5 -13z"/>
<path d="M9468 5213 c7 -3 16 -2 19 1 4 3 -2 6 -13 5 -11 0 -14 -3 -6 -6z"/>
<path d="M4480 4935 l0 -65 185 0 185 0 0 65 0 65 -185 0 -185 0 0 -65z"/>
<path d="M4618 4663 c-22 -3 -27 -10 -30 -36 -3 -31 -5 -32 -55 -35 l-52 -3
-6 -42 c-3 -23 -4 -53 -2 -67 4 -23 9 -25 60 -28 l57 -3 0 -37 c0 -20 3 -54 6
-75 l7 -38 66 3 66 3 3 73 3 72 54 0 55 0 0 110 0 110 -102 -1 c-57 -1 -115
-4 -130 -6z"/>
<path d="M5303 4663 l-63 -4 0 -104 0 -105 55 0 54 0 3 -72 3 -73 67 -3 67 -3
3 73 3 73 63 3 62 3 0 69 0 70 -59 0 -60 0 -3 38 -3 37 -65 1 c-36 0 -93 -1
-127 -3z"/>
<path d="M6000 4390 l0 -190 65 0 65 0 0 190 0 190 -65 0 -65 0 0 -190z"/>
<path d="M7115 4370 c3 -5 14 -10 23 -10 15 0 15 2 2 10 -20 13 -33 13 -25 0z"/>
<path d="M4980 4186 c0 -30 6 -32 75 -28 50 4 55 6 55 28 0 23 -3 24 -65 24
-62 0 -65 -1 -65 -24z"/>
<path d="M4238 4083 c-16 -4 -18 -19 -18 -124 l0 -119 65 0 65 0 0 125 0 125
-47 -1 c-27 -1 -56 -3 -65 -6z"/>
<path d="M4768 4072 l-38 -3 0 -70 0 -69 65 0 65 0 0 -65 0 -65 188 2 187 3 3
63 3 62 59 0 60 0 0 76 0 76 -57 -4 c-67 -4 -71 -9 -72 -90 l-1 -58 -185 0
-185 0 0 73 c0 81 5 77 -92 69z"/>
<path d="M4430 3936 c0 -2 11 -6 25 -8 14 -3 25 -1 25 3 0 5 -11 9 -25 9 -14
0 -25 -2 -25 -4z"/>
<path d="M4572 3831 c-10 -6 -9 -10 7 -14 14 -3 21 0 21 9 0 16 -9 18 -28 5z"/>
<path d="M4097 3233 c-2 -5 -5 -35 -6 -68 l-2 -60 131 3 130 3 0 65 0 64 -124
0 c-69 0 -127 -3 -129 -7z"/>
<path d="M5740 3175 l0 -65 129 0 128 0 7 56 c4 31 5 58 4 59 -2 1 -63 5 -135
9 l-133 7 0 -66z"/>
<path d="M4628 3185 c3 -19 7 -23 13 -14 4 7 5 17 3 21 -3 4 5 8 18 8 18 0 20
-2 8 -10 -12 -8 -10 -10 8 -10 38 0 20 25 -20 28 -33 3 -35 2 -30 -23z"/>
<path d="M6013 3081 c0 -15 1 -18 4 -8 2 9 9 17 14 17 5 0 9 4 9 8 0 22 -26 5
-27 -17z"/>
<path d="M7470 2655 l0 -316 63 3 62 3 3 313 2 312 -65 0 -65 0 0 -315z"/>
<path d="M4730 2890 l0 -70 59 0 c67 0 71 -4 71 -79 l0 -48 46 -7 c26 -3 112
-6 191 -6 l144 0 -3 68 -3 67 -187 3 -188 2 0 70 0 70 -65 0 -65 0 0 -70z"/>
<path d="M5240 2887 l0 -72 60 -1 60 -1 0 74 0 73 -60 0 -60 0 0 -73z"/>
<path d="M6142 2940 c0 -14 2 -19 5 -12 2 6 2 18 0 25 -3 6 -5 1 -5 -13z"/>
<path d="M6146 2883 c-6 -14 -5 -15 5 -6 7 7 10 15 7 18 -3 3 -9 -2 -12 -12z"/>
<path d="M5849 2848 c-5 -9 -9 -29 -9 -45 0 -34 -14 -60 -24 -44 -8 12 -45 15
-69 5 -15 -5 -12 -54 4 -54 5 0 4 -12 -1 -26 -6 -14 -10 -48 -10 -75 l0 -49
-92 0 c-100 0 -141 7 -132 21 3 5 -1 9 -8 9 -8 0 -6 5 5 11 13 7 22 7 31 0 17
-14 46 -4 46 15 0 9 -12 14 -34 14 -21 0 -36 6 -40 15 -3 8 0 15 6 15 7 0 3 6
-7 14 -17 12 -18 19 -9 65 9 46 9 51 -7 51 -10 0 -19 -10 -21 -25 -3 -14 -1
-25 6 -25 7 0 7 -3 1 -8 -5 -4 -10 -17 -11 -29 0 -13 -1 -48 -2 -78 l-2 -55
-430 0 -430 0 -1 -52 c-1 -29 -1 -56 0 -60 0 -5 -58 -8 -129 -8 l-130 0 0 60
0 60 -62 0 -63 0 1 -57 2 -58 58 -5 c43 -4 59 -9 60 -20 1 -8 2 -34 3 -57 l1
-43 125 0 125 0 0 55 0 55 510 0 510 0 0 -56 0 -56 188 3 187 4 3 -132 3 -133
194 0 195 0 0 -55 0 -55 60 0 60 0 0 60 0 60 -60 0 -60 0 0 60 0 60 -130 0
-129 0 -3 68 -3 67 -63 -3 -63 -4 3 109 3 108 44 14 44 14 -6 106 c-8 146 -11
155 -54 148 -29 -5 -36 -2 -45 18 -10 23 -16 25 -70 22 -44 -1 -62 -6 -69 -19z"/>
<path d="M5541 2838 c9 -17 9 -23 0 -26 -6 -2 -9 -8 -5 -13 11 -18 20 -8 22
26 2 26 -1 35 -13 35 -13 0 -14 -4 -4 -22z"/>
<path d="M6148 2853 c7 -3 16 -2 19 1 4 3 -2 6 -13 5 -11 0 -14 -3 -6 -6z"/>
<path d="M5661 2654 c0 -11 3 -14 6 -6 3 7 2 16 -1 19 -3 4 -6 -2 -5 -13z"/>
<path d="M3968 2273 l-3 -68 -85 -8 c-47 -4 -116 -7 -153 -7 -76 1 -110 -6
-102 -21 4 -5 2 -9 -3 -9 -6 0 -8 -9 -5 -20 6 -23 23 -27 23 -5 0 8 6 15 14
15 17 0 28 -37 12 -44 -6 -2 -2 -5 10 -5 11 -1 25 -6 31 -12 6 -6 86 -13 195
-16 l185 -6 6 33 c4 18 7 79 7 136 l0 104 -65 0 -64 0 -3 -67z"/>
<path d="M6400 2166 c0 -25 7 -27 62 -17 3 0 5 9 4 19 -2 11 -13 18 -34 20
-28 3 -32 0 -32 -22z"/>
<path d="M6492 2170 c0 -14 2 -19 5 -12 2 6 2 18 0 25 -3 6 -5 1 -5 -13z"/>
<path d="M3628 2103 c7 -3 16 -2 19 1 4 3 -2 6 -13 5 -11 0 -14 -3 -6 -6z"/>
<path d="M3580 2020 l0 -60 66 0 65 0 -2 60 -2 60 -64 0 -63 0 0 -60z"/>
<path d="M8124 4262 c-6 -4 -10 -20 -10 -37 1 -24 -4 -31 -21 -33 -19 -3 -23
-10 -23 -41 0 -32 4 -38 30 -48 21 -8 30 -18 30 -33 0 -21 4 -22 38 -16 20 3
42 6 49 6 7 0 10 6 7 13 -2 7 4 22 16 32 12 11 20 31 20 51 0 30 -3 34 -35 40
-30 5 -35 10 -35 34 0 34 -36 52 -66 32z"/>
<path d="M9417 4150 c3 -11 7 -20 8 -20 1 0 5 9 8 20 3 12 0 20 -8 20 -8 0
-11 -8 -8 -20z"/>
<path d="M9387 4140 c3 -11 7 -20 9 -20 2 0 4 9 4 20 0 11 -4 20 -9 20 -5 0
-7 -9 -4 -20z"/>
<path d="M8780 3550 c0 -5 5 -10 10 -10 6 0 10 5 10 10 0 6 -4 10 -10 10 -5 0
-10 -4 -10 -10z"/>
<path d="M8781 3398 c2 -30 3 -35 6 -15 3 18 10 27 22 27 10 0 18 7 18 15 0 9
-10 15 -24 15 -21 0 -23 -4 -22 -42z"/>
<path d="M8740 3348 c0 -5 18 -8 40 -8 22 0 40 2 40 4 0 2 -18 6 -40 8 -22 2
-40 0 -40 -4z"/>
<path d="M9022 3220 c0 -14 2 -19 5 -12 2 6 2 18 0 25 -3 6 -5 1 -5 -13z"/>
<path d="M8621 3023 c1 -32 3 -50 6 -40 3 11 15 17 36 18 l32 2 -35 7 c-34 7
-34 7 -6 9 28 1 28 2 12 20 -16 18 -16 19 21 29 l38 10 -52 1 -53 1 1 -57z"/>
<path d="M8737 3065 c-4 -8 -2 -17 3 -20 6 -4 10 3 10 14 0 25 -6 27 -13 6z"/>
<path d="M8728 3001 c-3 -19 0 -27 7 -24 7 2 10 15 7 29 -6 31 -9 30 -14 -5z"/>
<path d="M8890 2514 c0 -39 4 -54 12 -52 8 3 12 23 11 54 l-1 49 7 -45 c6 -45
6 -45 46 -45 39 0 40 1 43 39 2 21 -1 43 -7 49 -8 8 -11 7 -12 -3 -1 -25 -9
-64 -14 -69 -3 -2 -5 12 -5 32 0 20 -5 39 -11 42 -18 11 -24 -5 -10 -26 7 -12
10 -24 7 -27 -3 -3 -6 1 -7 9 -1 8 -5 3 -9 -11 -7 -21 -8 -19 -9 18 -1 35 -4
42 -21 42 -18 0 -20 -7 -20 -56z"/>
<path d="M5445 3100 c-3 -5 -1 -10 4 -10 6 0 11 5 11 10 0 6 -2 10 -4 10 -3 0
-8 -4 -11 -10z"/>
<path d="M420 2645 l0 -75 80 0 80 0 0 75 0 75 -80 0 -80 0 0 -75z"/>
<path d="M710 2645 l0 -75 75 0 75 0 0 75 0 75 -75 0 -75 0 0 -75z"/>
<path d="M1290 2645 l0 -75 90 0 90 0 0 75 0 75 -90 0 -90 0 0 -75z"/>
<path d="M1600 2643 l0 -71 75 -4 75 -3 0 78 0 78 -75 -3 -75 -3 0 -72z"/>
<path d="M3685 2870 c-3 -5 -1 -10 4 -10 6 0 11 5 11 10 0 6 -2 10 -4 10 -3 0
-8 -4 -11 -10z"/>
<path d="M8741 1793 c4 -70 6 -73 55 -73 58 0 70 12 66 65 -4 41 -6 43 -40 49
-80 13 -84 11 -81 -41z"/>
<path d="M9175 1830 c-31 -4 -40 -10 -41 -25 -2 -30 -15 -65 -25 -65 -5 0 -9
-4 -9 -10 0 -5 13 -10 28 -10 27 0 52 -15 52 -32 0 -4 -7 -8 -16 -8 -8 0 -13
-4 -10 -9 4 -5 1 -11 -6 -13 -7 -3 -4 -7 7 -12 11 -4 16 -4 13 0 -8 7 10 27
33 36 12 5 15 -1 13 -26 l-3 -31 8 30 c11 38 13 173 4 177 -5 2 -26 1 -48 -2z"/>
<path d="M9883 1715 c0 -22 2 -30 4 -17 2 12 2 30 0 40 -3 9 -5 -1 -4 -23z"/>
<path d="M8877 1713 c-4 -3 -7 -28 -7 -55 l0 -48 55 0 c30 0 58 -1 63 -2 4 -2
9 23 12 55 l5 57 -61 0 c-33 0 -64 -3 -67 -7z"/>
<path d="M9068 1703 c12 -2 30 -2 40 0 9 3 -1 5 -23 4 -22 0 -30 -2 -17 -4z"/>
<path d="M9100 1680 c0 -5 5 -10 11 -10 5 0 7 5 4 10 -3 6 -8 10 -11 10 -2 0
-4 -4 -4 -10z"/>
<path d="M9850 1659 c0 -11 5 -17 10 -14 6 3 10 13 10 21 0 8 -4 14 -10 14 -5
0 -10 -9 -10 -21z"/>
<path d="M9018 1663 c7 -3 16 -2 19 1 4 3 -2 6 -13 5 -11 0 -14 -3 -6 -6z"/>
<path d="M52 1683 c-9 -9 -11 -23 -6 -41 7 -26 7 -25 15 13 8 47 8 47 -9 28z"/>
<path d="M1313 1683 c9 -2 23 -2 30 0 6 3 -1 5 -18 5 -16 0 -22 -2 -12 -5z"/>
<path d="M142 1630 c0 -19 2 -27 5 -17 2 9 2 25 0 35 -3 9 -5 1 -5 -18z"/>
<path d="M112 1625 c0 -16 2 -22 5 -12 2 9 2 23 0 30 -3 6 -5 -1 -5 -18z"/>
<path d="M1143 1593 l-103 -4 0 -49 0 -50 -40 0 c-39 0 -40 -1 -40 -35 l0 -35
56 0 56 0 -4 33 -3 32 93 3 92 3 0 54 c0 30 -1 54 -2 53 -2 -1 -49 -4 -105 -5z"/>
<path d="M732 1544 l3 -47 45 0 45 0 0 44 0 44 -48 3 -48 3 3 -47z"/>
<path d="M2020 1580 c0 -5 7 -10 15 -10 8 0 15 5 15 10 0 6 -7 10 -15 10 -8 0
-15 -4 -15 -10z"/>
<path d="M2023 1480 c0 -25 2 -35 4 -22 2 12 2 32 0 45 -2 12 -4 2 -4 -23z"/>
<path d="M113 1400 c0 -25 2 -35 4 -22 2 12 2 32 0 45 -2 12 -4 2 -4 -23z"/>
<path d="M1661 1418 c1 -13 5 -36 9 -53 7 -26 8 -22 9 23 0 29 -3 52 -9 52 -5
0 -9 -10 -9 -22z"/>
<path d="M1652 1340 c0 -14 2 -19 5 -12 2 6 2 18 0 25 -3 6 -5 1 -5 -13z"/>
<path d="M1701 1344 c0 -11 3 -14 6 -6 3 7 2 16 -1 19 -3 4 -6 -2 -5 -13z"/>
<path d="M9947 981 c-4 -35 -6 -91 -6 -125 1 -43 4 -27 10 54 9 126 6 173 -4
71z"/>
<path d="M8992 981 c3 -24 6 -26 58 -26 53 0 55 1 58 28 l3 28 -61 -2 c-59 -2
-61 -3 -58 -28z"/>
<path d="M1040 565 l0 -55 -41 0 -40 0 3 -42 c3 -36 7 -44 27 -46 12 -2 34 -1
48 3 21 5 24 10 21 43 l-3 37 85 5 85 5 1 53 2 52 -94 0 -94 0 0 -55z"/>
<path d="M9240 10139 c0 -19 -3 -51 -6 -71 -6 -35 -9 -37 -41 -36 -44 2 -60
-14 -46 -44 16 -35 -6 -48 -76 -48 l-60 0 -6 -44 c-4 -25 -5 -50 -3 -56 2 -8
57 -11 188 -10 102 0 267 -2 368 -6 l182 -7 0 -65 0 -65 60 6 59 7 3 -73 3
-72 63 -3 64 -3 -3 -422 -3 -422 61 -3 61 -3 1 426 1 425 -60 0 -60 0 0 70 0
70 -60 0 c-56 0 -60 2 -66 26 -4 14 -4 43 -1 65 l5 39 -64 0 -64 0 0 60 0 60
-125 0 -125 0 0 50 0 49 -62 3 -63 3 -3 58 -3 57 -37 0 c-20 0 -47 3 -59 6
-21 6 -23 3 -23 -27z"/>
<path d="M1070 10131 c0 -16 3 -43 6 -60 6 -29 9 -31 53 -31 25 0 83 -3 128
-7 l82 -6 3 -56 3 -55 52 3 c29 1 58 -1 65 -6 7 -4 27 -9 43 -9 17 -1 46 -2
67 -3 35 -1 41 -10 27 -36 -8 -14 -4 -63 5 -72 4 -5 76 -8 159 -9 84 0 230 -4
325 -9 l172 -8 0 57 0 58 -135 -4 c-101 -2 -136 0 -140 10 -3 9 -38 12 -125
12 -66 0 -120 4 -120 8 0 4 -29 6 -65 4 l-65 -4 0 61 0 61 -134 0 -135 0 -3
48 -3 47 -100 7 c-55 3 -115 11 -132 17 -32 9 -33 9 -33 -18z"/>
<path d="M350 9975 l0 -65 65 0 65 0 0 -55 0 -55 44 0 c24 0 51 -3 60 -6 13
-5 16 3 16 49 0 62 -5 67 -76 67 l-44 0 0 65 0 65 -65 0 -65 0 0 -65z"/>
<path d="M888 10003 c12 -2 30 -2 40 0 9 3 -1 5 -23 4 -22 0 -30 -2 -17 -4z"/>
<path d="M873 9913 c9 -2 23 -2 30 0 6 3 -1 5 -18 5 -16 0 -22 -2 -12 -5z"/>
<path d="M928 9913 c6 -2 18 -2 25 0 6 3 1 5 -13 5 -14 0 -19 -2 -12 -5z"/>
<path d="M230 9855 l0 -55 61 0 60 0 -3 53 -3 52 -57 3 -58 3 0 -56z"/>
<path d="M1090 9810 c0 -29 2 -30 45 -30 41 0 45 2 45 24 0 26 -16 36 -61 36
-26 0 -29 -4 -29 -30z"/>
<path d="M8880 9755 l0 -65 -64 0 c-38 0 -68 -5 -72 -12 -4 -7 -3 -8 4 -4 18
11 15 -49 -3 -64 -8 -7 -15 -16 -15 -21 0 -5 7 -9 15 -9 8 0 15 -7 15 -15 0
-12 13 -15 60 -15 l60 0 0 70 0 70 59 0 c67 0 68 1 63 81 l-4 49 -59 0 -59 0
0 -65z"/>
<path d="M116 9738 c-3 -29 -6 -118 -6 -198 0 -130 3 -148 20 -170 17 -21 19
-21 14 -5 -5 16 -4 17 5 5 6 -8 11 -28 12 -45 0 -26 2 -27 9 -10 5 11 9 14 9
8 1 -7 7 -13 15 -13 8 0 16 -6 19 -12 8 -24 16 284 10 388 l-6 104 -47 0 -47
0 -7 -52z"/>
<path d="M1333 9633 c-4 -10 -11 -21 -17 -25 -7 -5 -5 -8 4 -8 13 0 13 -1 0
-10 -8 -5 -10 -10 -4 -10 7 0 15 -11 18 -25 6 -23 10 -25 71 -25 l65 0 0 60 0
60 -65 0 c-53 0 -67 -3 -72 -17z"/>
<path d="M343 9560 c0 -25 2 -35 4 -22 2 12 2 32 0 45 -2 12 -4 2 -4 -23z"/>
<path d="M480 9474 l0 -35 47 3 c46 3 48 4 49 36 1 32 1 32 -47 32 l-49 0 0
-36z"/>
<path d="M740 9474 l0 -35 53 3 c51 3 52 4 55 36 l3 32 -55 0 -56 0 0 -36z"/>
<path d="M544 9381 c-2 -2 -4 -24 -4 -48 0 -41 1 -43 30 -43 21 0 30 5 30 16
0 12 6 15 23 11 12 -3 43 -9 70 -12 l47 -7 0 36 c0 20 -1 39 -2 44 -3 7 -186
10 -194 3z"/>
<path d="M2847 9383 c-4 -3 -7 -56 -7 -116 l0 -110 38 7 c20 3 43 6 50 6 8 0
12 17 11 53 -1 53 -10 100 -19 96 -3 -1 -15 1 -27 5 -17 5 -23 15 -23 37 0 28
-9 37 -23 22z"/>
<path d="M3182 9348 c2 -35 7 -43 23 -43 19 0 20 -8 25 -125 l5 -125 48 -3 47
-3 0 130 0 131 50 0 50 0 0 40 0 40 -126 0 -125 0 3 -42z"/>
<path d="M4352 9383 l-54 -4 4 -166 3 -167 133 -4 132 -4 0 30 c0 59 -5 62
-91 62 -78 0 -79 0 -79 26 l0 26 75 -4 75 -5 0 39 c0 42 4 40 -95 42 -53 1
-60 3 -63 23 -3 20 2 22 72 28 42 4 82 5 91 1 12 -4 15 3 15 39 l0 45 -82 -2
c-46 -1 -107 -3 -136 -5z"/>
<path d="M6630 9220 l0 -170 125 0 125 0 0 40 0 40 -80 0 c-79 0 -80 0 -80 25
0 25 1 25 80 25 l80 0 0 40 0 40 -80 0 c-79 0 -80 0 -80 25 0 25 1 25 80 25
l80 0 0 40 0 40 -125 0 -125 0 0 -170z"/>
<path d="M4729 9213 c-1 -43 -1 -81 0 -85 0 -5 -3 -8 -9 -8 -5 0 -10 -14 -10
-31 0 -17 4 -28 10 -24 6 3 10 1 10 -4 0 -7 25 -11 60 -11 l61 0 -3 118 -3
117 -57 3 -58 3 -1 -78z"/>
<path d="M285 9271 c-39 -6 -40 -7 -43 -48 -2 -25 1 -43 7 -44 6 0 28 -1 49
-1 21 0 42 -7 50 -16 10 -13 12 -4 12 51 0 74 5 70 -75 58z"/>
<path d="M5890 9127 c0 -19 -3 -67 -6 -108 -5 -64 -4 -77 12 -94 13 -14 28
-19 49 -16 l30 4 -30 7 c-28 7 -27 8 13 9 l42 1 0 115 0 115 -55 0 -55 0 0
-33z"/>
<path d="M385 9137 c-11 -14 -11 -16 -17 -61 -3 -26 0 -29 25 -30 20 -1 35 6
48 23 23 29 21 57 -4 53 -26 -4 -20 16 6 21 14 3 10 5 -13 5 -19 1 -39 -4 -45
-11z"/>
<path d="M3602 9100 c-2 -48 -2 -50 25 -51 16 0 38 -2 51 -3 20 -2 22 2 22 44
0 45 -2 48 -31 54 -61 12 -64 10 -67 -44z"/>
<path d="M6484 9122 c4 -7 4 -27 0 -47 -5 -30 -10 -35 -33 -35 -35 0 -55 -19
-40 -37 7 -7 8 -13 4 -13 -5 0 0 -10 11 -21 19 -22 19 -22 -8 -17 -15 3 -25 1
-22 -3 3 -5 27 -9 55 -9 l49 0 0 89 c0 57 -4 92 -12 97 -7 4 -8 3 -4 -4z"/>
<path d="M4610 8975 l0 -66 -190 2 c-104 2 -192 0 -196 -3 -3 -4 -2 -58 2
-122 l7 -116 59 0 c33 0 57 -3 55 -7 -2 -5 -1 -30 2 -58 l6 -50 120 4 c66 1
121 4 122 5 2 1 4 55 5 119 l3 117 58 0 57 0 0 38 c0 20 3 74 7 120 l6 82 -62
0 -61 0 0 -65z m-223 -81 c-3 -3 -12 -4 -19 -1 -8 3 -5 6 6 6 11 1 17 -2 13
-5z m4 -60 c5 47 29 62 29 19 0 -34 17 -59 45 -66 11 -3 -10 -5 -47 -6 l-68
-1 1 43 c0 32 2 37 9 22 8 -17 9 -16 11 10 2 24 3 21 9 -15 l6 -45 5 39z"/>
<path d="M5354 9024 c3 -9 6 -63 6 -120 l0 -104 60 0 60 0 0 50 0 49 63 4 62
3 -67 2 -68 2 0 65 0 65 -61 0 c-52 0 -60 -2 -55 -16z"/>
<path d="M2468 8913 c7 -3 16 -2 19 1 4 3 -2 6 -13 5 -11 0 -14 -3 -6 -6z"/>
<path d="M3045 8890 c-8 -34 2 -90 16 -90 5 0 9 27 9 60 0 64 -14 80 -25 30z"/>
<path d="M6990 8857 c0 -73 22 -75 31 -1 3 27 7 43 7 37 3 -18 19 -16 19 1 0
8 -13 16 -29 18 l-28 5 0 -60z"/>
<path d="M1716 8894 c-4 -9 -4 -19 -2 -21 8 -8 26 8 26 23 0 19 -16 18 -24 -2z"/>
<path d="M3460 8855 l0 -55 60 0 60 0 0 55 0 55 -60 0 -60 0 0 -55z"/>
<path d="M5760 8845 c0 -36 -3 -64 -7 -64 -27 4 -54 -3 -52 -13 4 -33 -2 -78
-11 -78 -5 0 -7 6 -4 14 3 8 1 17 -5 21 -17 10 -7 -35 10 -47 11 -8 10 -9 -4
-4 -10 3 -32 6 -48 6 -22 0 -29 5 -29 20 0 14 5 18 18 14 15 -5 16 -5 0 5 -9
7 -15 21 -13 36 2 19 -3 27 -20 31 -29 7 -111 1 -107 -8 1 -5 2 -55 2 -113 l0
-105 61 0 61 0 -4 -60 -3 -60 73 0 72 0 0 60 0 60 60 0 59 0 3 165 c2 91 2
170 0 175 -2 6 -28 10 -58 10 l-54 0 0 -65z"/>
<path d="M6510 8855 l0 -55 55 0 55 0 0 55 0 55 -55 0 -55 0 0 -55z"/>
<path d="M5558 8855 c2 -19 7 -35 11 -35 4 0 12 16 18 35 10 33 10 35 -11 35
-19 0 -21 -4 -18 -35z"/>
<path d="M1725 8850 c3 -5 8 -10 11 -10 2 0 4 5 4 10 0 6 -5 10 -11 10 -5 0
-7 -4 -4 -10z"/>
<path d="M5491 8844 c0 -11 3 -14 6 -6 3 7 2 16 -1 19 -3 4 -6 -2 -5 -13z"/>
<path d="M3087 8773 c-4 -3 -7 -26 -7 -50 l0 -43 39 0 c22 0 46 -3 55 -6 13
-5 16 3 16 50 l0 56 -48 0 c-27 0 -52 -3 -55 -7z"/>
<path d="M6637 8764 c-4 -4 -7 -24 -7 -45 0 -42 11 -49 71 -49 l38 0 -5 43
c-4 23 -7 43 -8 43 -6 7 -83 13 -89 8z"/>
<path d="M6879 8765 c0 0 -3 -21 -5 -47 l-5 -48 56 0 55 0 0 44 c0 35 -4 46
-19 51 -13 4 -72 5 -82 0z"/>
<path d="M3349 8741 c-4 -65 -2 -71 25 -71 13 0 38 3 55 6 30 6 32 9 29 43 -3
36 -3 36 -55 39 -47 3 -53 1 -54 -17z"/>
<path d="M5628 8693 c6 -2 18 -2 25 0 6 3 1 5 -13 5 -14 0 -19 -2 -12 -5z"/>
<path d="M2282 8640 c2 -22 0 -40 -4 -40 -4 0 -5 -7 -2 -15 9 -23 31 -18 30 6
-1 12 5 24 12 26 6 3 12 -1 12 -9 0 -7 11 -13 25 -13 30 0 27 19 -3 23 -12 2
-22 8 -22 13 0 6 -5 7 -12 3 -7 -4 -8 -3 -4 4 4 7 2 12 -5 12 -7 0 -10 3 -6 6
3 3 16 -1 29 -10 30 -21 35 -20 40 9 5 24 3 25 -44 25 l-50 0 4 -40z"/>
<path d="M3200 8607 l0 -44 63 -6 c34 -3 65 -3 69 1 3 4 8 25 10 47 l3 40 -73
3 -72 3 0 -44z"/>
<path d="M6730 8606 c0 -50 9 -56 98 -56 l52 0 0 50 0 50 -75 0 -75 0 0 -44z"/>
<path d="M2330 8580 c-11 -7 -7 -10 18 -10 20 0 31 4 27 10 -8 13 -26 13 -45
0z"/>
<path d="M822 8493 c-16 -29 -15 -33 6 -32 12 0 13 2 3 6 -10 4 -10 7 -1 13 7
4 10 14 8 21 -3 10 -8 7 -16 -8z"/>
<path d="M800 8440 c0 -5 5 -10 10 -10 6 0 10 5 10 10 0 6 -4 10 -10 10 -5 0
-10 -4 -10 -10z"/>
<path d="M733 8293 c9 -2 25 -2 35 0 9 3 1 5 -18 5 -19 0 -27 -2 -17 -5z"/>
<path d="M3123 8132 l-583 -2 0 -60 0 -60 -54 0 -53 0 -7 -46 c-3 -26 -6 -64
-6 -86 l0 -39 63 3 62 3 0 50 c1 28 2 65 3 83 l2 32 2265 0 2265 0 0 -67 c-1
-59 -2 -66 -14 -50 -20 26 -36 20 -36 -14 0 -22 -5 -32 -20 -36 -11 -3 -17 -9
-14 -14 3 -5 -2 -9 -10 -9 -9 0 -16 5 -16 11 0 6 -7 8 -16 5 -8 -3 -12 -2 -9
4 3 6 1 10 -4 10 -6 0 -11 -22 -11 -51 l0 -51 73 4 72 3 5 40 5 40 53 3 54 3
-8 -455 -7 -456 49 0 c27 0 79 -3 116 -6 66 -7 68 -6 77 19 12 30 48 57 76 57
25 -1 66 -34 69 -57 2 -10 0 -27 -4 -38 -6 -16 -3 -20 17 -21 20 -2 22 1 12
12 -22 27 5 35 107 32 l99 -3 2 -317 2 -318 -515 0 -514 0 0 -55 0 -55 565 0
565 0 0 445 0 445 -290 0 -290 0 0 380 0 380 -60 0 -60 0 0 90 0 90 -55 0 -55
0 0 63 0 62 -1693 0 c-930 0 -1954 -1 -2274 -3z"/>
<path d="M2639 7865 c-12 -32 -26 -41 -54 -35 -45 9 -45 10 -45 -31 0 -34 3
-39 23 -39 12 0 46 -3 75 -6 l52 -7 0 65 c0 58 -11 88 -31 88 -4 0 -13 -16
-20 -35z"/>
<path d="M2298 7263 l2 -568 58 -1 57 -1 3 -56 3 -57 2114 0 2115 0 0 -130 0
-130 61 0 60 0 -3 306 -3 307 -52 17 -52 17 -3 -131 -3 -131 -2117 -3 -2118
-2 0 565 0 565 -62 0 -63 0 3 -567z"/>
<path d="M3830 7793 c0 -17 -7 -22 -32 -25 l-33 -3 0 -120 0 -120 33 3 c30 3
32 1 32 -27 l0 -31 125 0 125 0 0 106 0 107 -46 -7 c-26 -3 -60 -6 -76 -6 -26
0 -29 -3 -26 -27 2 -22 9 -29 33 -33 25 -4 30 -10 33 -38 l3 -32 -65 0 c-89 0
-98 10 -94 108 3 74 3 76 33 84 17 5 69 7 118 4 l87 -6 0 25 c0 20 -5 25 -25
25 -15 0 -25 6 -25 14 0 12 -21 15 -100 18 -97 3 -100 2 -100 -19z"/>
<path d="M4150 7640 l0 -170 110 0 110 0 0 35 0 35 -65 0 -65 0 0 35 0 35 55
0 c54 0 55 0 55 30 0 30 -1 30 -55 30 l-55 0 0 35 0 35 65 0 65 0 0 35 0 35
-110 0 -110 0 0 -170z"/>
<path d="M4430 7770 c0 -38 1 -40 33 -40 l32 0 -3 -130 -3 -130 45 0 46 0 0
129 0 130 33 3 c29 3 32 6 35 41 l3 37 -110 0 -111 0 0 -40z"/>
<path d="M4827 7803 c-4 -3 -7 -46 -7 -95 l0 -88 29 0 c26 0 29 -3 35 -46 3
-26 6 -60 6 -75 0 -27 3 -29 40 -29 l40 0 0 65 c0 65 6 75 28 53 9 -9 13 -7
19 8 6 17 8 17 14 -6 4 -14 7 -46 8 -72 l1 -48 40 0 40 0 0 69 c0 69 0 70 28
73 l27 3 3 98 3 97 -41 0 -40 0 0 -86 0 -85 -27 3 c-26 3 -28 6 -31 56 l-3 53
-37 -3 -37 -3 -3 -52 c-3 -49 -5 -53 -28 -53 -24 0 -24 1 -24 85 l0 85 -38 0
c-21 0 -42 -3 -45 -7z"/>
<path d="M5240 7640 l0 -170 113 0 112 0 1 35 0 34 -65 3 -66 3 -3 32 -3 32
58 3 c55 3 58 4 61 31 3 27 3 27 -57 27 l-61 0 0 35 0 35 65 0 65 0 0 35 0 35
-110 0 -110 0 0 -170z"/>
<path d="M5524 7640 l1 -170 118 0 117 0 0 35 0 34 -67 3 -68 3 -3 133 -3 132
-48 0 -48 0 1 -170z"/>
<path d="M5820 7640 l0 -170 100 0 100 0 0 35 0 35 -54 0 c-42 0 -55 4 -60 17
-4 9 -4 70 0 135 l7 118 -47 0 -46 0 0 -170z"/>
<path d="M2834 7755 c-4 -8 -3 -35 0 -59 l7 -44 119 -7 120 -7 0 -49 c0 -48 1
-49 30 -49 28 0 30 3 36 49 l6 49 94 7 94 7 0 59 0 59 -250 0 c-214 0 -251 -2
-256 -15z"/>
<path d="M6160 7716 c0 -60 -6 -66 -71 -66 l-39 0 0 -180 0 -180 49 0 50 0 6
-55 7 -55 54 0 54 0 0 -60 0 -60 60 0 59 0 3 -57 c3 -57 3 -58 36 -61 29 -3
32 -6 32 -38 0 -33 1 -34 40 -34 37 0 40 2 52 41 8 29 22 48 49 64 24 16 38
33 42 53 6 31 27 42 84 42 l32 0 -5 49 c-5 48 -5 48 27 55 17 3 47 6 65 6 l34
0 0 55 0 55 33 1 c17 1 43 2 57 3 l25 1 3 177 2 177 -62 3 -63 3 -3 58 -3 57
-113 0 c-126 0 -126 0 -126 -76 0 -30 -3 -32 -40 -36 -23 -2 -72 -2 -110 0
l-70 4 0 54 0 54 -125 0 -125 0 0 -54z m179 -72 l62 -7 -3 -116 -3 -116 -65 2
c-36 1 -89 2 -117 2 l-53 0 0 120 0 121 59 0 c32 0 86 -3 120 -6z m298 -86
c-3 -8 -6 -5 -6 6 -1 11 2 17 5 13 3 -3 4 -12 1 -19z"/>
<path d="M2699 7643 c-1 -5 0 -16 1 -27 1 -10 -3 -16 -8 -12 -6 3 -7 -7 -3
-27 7 -31 8 -32 69 -35 l62 -3 0 49 0 49 -46 7 c-60 8 -74 8 -75 -1z"/>
<path d="M3343 7634 c-2 -7 -3 -29 -1 -50 l3 -39 63 -3 62 -3 0 -102 c0 -56
-3 -126 -6 -154 l-7 -53 -63 0 -63 0 -6 58 c-3 31 -7 64 -8 72 -2 12 -24 16
-113 18 l-111 3 -7 -77 c-3 -42 -6 -107 -6 -144 0 -37 -3 -101 -6 -143 l-7
-77 -58 0 -59 0 0 61 0 60 -56 -2 c-66 -3 -74 5 -74 74 l0 47 -60 0 -60 0 0
180 c0 177 0 180 -20 170 -17 -9 -19 -8 -13 7 5 14 3 15 -6 7 -26 -24 -49 -4
-59 50 -7 39 -10 -5 -11 -186 l-1 -238 55 0 55 0 0 -60 0 -60 59 0 c66 0 71
-5 71 -75 l0 -43 60 5 60 6 0 -67 0 -66 195 0 195 0 0 60 0 60 59 0 c66 0 71
5 71 70 0 37 2 39 35 46 19 3 46 4 60 2 l25 -5 0 297 0 298 -25 4 c-14 3 -25
1 -25 -3 0 -5 5 -9 10 -9 6 0 10 -7 10 -16 0 -14 -2 -14 -15 0 -8 8 -15 19
-15 25 0 6 -13 11 -30 11 -28 0 -30 -2 -30 -40 0 -36 -2 -40 -25 -40 -21 0
-25 5 -25 28 0 20 7 32 21 38 17 8 8 10 -36 10 -34 -1 -59 -6 -62 -12z m177 2
c0 -3 -4 -8 -10 -11 -5 -3 -10 -1 -10 4 0 6 5 11 10 11 6 0 10 -2 10 -4z m57
-28 c-3 -8 -6 -5 -6 6 -1 11 2 17 5 13 3 -3 4 -12 1 -19z m-310 -604 c-3 -3
-12 -4 -19 -1 -8 3 -5 6 6 6 11 1 17 -2 13 -5z m19 -26 c4 -7 3 -8 -4 -4 -8 5
-12 -1 -12 -14 0 -28 -24 -21 -28 8 -3 16 2 22 17 22 11 0 23 -5 27 -12z m21
-34 c-3 -3 -12 -4 -19 -1 -8 3 -5 6 6 6 11 1 17 -2 13 -5z"/>
<path d="M4280 7280 c0 -27 -3 -30 -30 -30 -30 0 -30 0 -30 -59 l0 -60 35 6
c33 5 35 4 35 -24 l0 -30 68 1 67 1 3 -37 c3 -35 1 -38 -25 -40 -52 -3 -87 3
-104 18 -9 8 -33 18 -53 21 -36 6 -36 5 -36 -31 0 -35 1 -36 36 -36 34 0 36
-2 30 -25 l-6 -25 101 0 101 0 -4 30 c-4 27 -2 30 24 30 28 0 28 1 28 61 0 60
-1 61 -24 55 -35 -9 -56 3 -56 30 0 23 -3 24 -65 24 l-65 0 0 35 0 35 85 0 85
0 0 40 0 40 -100 0 -100 0 0 -30z"/>
<path d="M4650 7275 c0 -33 -2 -35 -35 -35 l-36 0 3 -122 3 -122 30 -1 c26 0
30 -4 33 -32 l3 -33 77 -2 c42 -1 92 -2 110 -3 30 -2 32 0 32 31 0 31 3 34 30
34 l30 0 0 125 0 125 -30 0 c-28 0 -30 3 -30 35 l0 35 -110 0 -110 0 0 -35z
m190 -155 l0 -110 -85 0 -85 0 0 110 0 110 85 0 85 0 0 -110z"/>
<path d="M5070 7275 c0 -33 -2 -35 -35 -35 l-35 0 0 -126 0 -127 35 6 c35 6
35 5 35 -31 l0 -37 108 0 107 0 3 38 c3 37 5 38 35 35 l32 -3 3 123 3 122 -36
0 c-33 0 -35 2 -35 35 l0 35 -110 0 -110 0 0 -35z m200 -155 l0 -110 -90 0
-90 0 0 110 0 110 90 0 90 0 0 -110z"/>
<path d="M5436 7258 c-8 -68 -8 -165 0 -261 l7 -77 38 0 39 0 0 96 0 95 31 -3
c28 -3 33 -8 47 -50 13 -42 18 -48 43 -48 22 0 29 -6 34 -29 3 -15 5 -34 3
-42 -2 -8 3 -14 10 -13 6 1 28 2 47 3 l35 1 0 190 0 190 -45 0 -44 0 -3 -102
c-3 -89 -5 -103 -20 -106 -14 -3 -18 3 -18 27 0 26 -4 31 -25 31 -23 0 -25 4
-25 41 0 41 -1 41 -30 36 -29 -6 -30 -6 -30 33 l0 40 -44 0 -43 0 -7 -52z"/>
<path d="M6900 7027 c0 -44 0 -45 25 -34 30 14 31 22 5 40 -11 8 -17 16 -14
19 3 3 1 9 -5 13 -7 4 -11 -9 -11 -38z"/>
<path d="M2048 6912 l-36 -3 -4 -102 c-1 -57 -1 -131 0 -165 l4 -62 59 0 59 0
0 55 0 55 50 0 50 0 0 60 0 60 -50 0 -50 0 0 54 c0 59 5 56 -82 48z"/>
<path d="M7030 6875 c-20 -11 -21 -14 -7 -15 14 0 17 -5 12 -22 -6 -18 -5 -20
5 -11 10 9 24 64 17 63 -1 -1 -13 -7 -27 -15z"/>
<path d="M602 6794 c-28 -20 -25 -53 8 -85 14 -13 25 -31 26 -39 1 -8 4 -26 9
-39 4 -13 3 -21 -2 -18 -5 3 -10 -4 -10 -16 -1 -13 1 -17 5 -10 4 6 28 13 52
15 41 3 45 6 48 31 2 15 -1 27 -6 27 -5 0 -9 7 -9 15 0 8 4 15 8 15 4 0 15 7
23 16 9 8 16 11 16 5 0 -6 7 -11 15 -11 10 0 15 11 16 33 1 30 2 30 8 7 7 -23
8 -22 15 14 4 21 4 41 1 45 -4 3 -50 7 -104 8 -74 2 -103 -1 -119 -13z"/>
<path d="M7517 6773 c-4 -3 -7 -24 -7 -45 l0 -38 55 0 55 0 0 45 0 45 -48 0
c-27 0 -52 -3 -55 -7z"/>
<path d="M1788 6683 c-23 -3 -28 -10 -28 -31 0 -15 -3 -37 -6 -49 -6 -22 -4
-23 60 -23 l66 0 0 39 c0 22 2 46 5 53 6 15 -40 20 -97 11z"/>
<path d="M7003 6657 c-13 -13 -23 -27 -23 -32 0 -6 5 -3 10 5 8 12 10 11 10
-7 0 -13 4 -23 9 -23 5 0 12 -10 14 -22 3 -14 5 -9 6 15 1 24 6 37 15 37 9 0
12 8 8 25 -5 30 -20 31 -49 2z"/>
<path d="M6963 6605 c0 -22 2 -30 4 -17 2 12 2 30 0 40 -3 9 -5 -1 -4 -23z"/>
<path d="M693 6583 c9 -2 23 -2 30 0 6 3 -1 5 -18 5 -16 0 -22 -2 -12 -5z"/>
<path d="M9602 6530 c0 -19 2 -27 5 -17 2 9 2 25 0 35 -3 9 -5 1 -5 -18z"/>
<path d="M7600 6494 c0 -24 2 -26 33 -20 17 4 42 7 55 8 22 2 29 12 15 21 -5
3 -29 8 -55 11 -47 6 -48 6 -48 -20z"/>
<path d="M9122 5610 c0 -14 2 -19 5 -12 2 6 2 18 0 25 -3 6 -5 1 -5 -13z"/>
<path d="M8554 5556 c1 -11 0 -36 -4 -56 -6 -33 -5 -37 12 -32 25 6 33 22 17
33 -11 8 -10 12 5 24 13 9 15 15 7 15 -8 0 -20 8 -27 18 -12 16 -13 16 -10 -2z"/>
<path d="M8520 5488 c0 -19 -2 -20 -10 -8 -8 13 -10 12 -10 -2 0 -10 7 -18 15
-18 9 0 15 9 15 25 0 14 -2 25 -5 25 -3 0 -5 -10 -5 -22z"/>
<path d="M8600 5471 c0 -5 -8 -12 -17 -14 -14 -4 -12 -5 5 -6 13 -1 22 5 22
14 0 8 -2 15 -5 15 -3 0 -5 -4 -5 -9z"/>
<path d="M240 4885 l0 -425 43 1 42 2 -35 7 c-32 7 -30 7 21 9 l55 1 0 33 c-1
38 -2 37 69 37 l55 0 0 -75 0 -75 -125 0 -125 0 0 -325 0 -325 960 0 960 0 0
780 0 780 -960 0 -960 0 0 -425z m1780 201 c0 -50 -4 -76 -12 -79 -10 -4 -10
-7 0 -18 7 -8 12 -41 12 -86 l0 -73 -170 0 -170 0 0 165 0 165 170 0 170 0 0
-74z m-930 -15 l0 -50 38 -3 c35 -3 37 -5 40 -40 l3 -38 -47 0 -47 0 6 -36 c7
-44 -6 -74 -33 -74 -16 0 -20 7 -20 38 0 72 -7 82 -57 82 -44 0 -44 0 -41 33
3 31 5 32 51 35 l47 3 0 50 c0 48 1 49 30 49 29 0 30 -1 30 -49z m-243 -23
c-3 -8 -6 -5 -6 6 -1 11 2 17 5 13 3 -3 4 -12 1 -19z m1 -108 c-4 -54 -3 -56
19 -52 18 3 23 0 23 -15 0 -18 -46 -43 -78 -43 -15 0 -16 56 -2 65 6 3 10 18
11 33 l1 27 8 -25 8 -25 1 28 c1 15 -3 27 -9 27 -5 0 -10 11 -10 25 0 18 4 23
16 18 13 -5 15 -17 12 -63z m-237 -415 c-2 -220 -5 -403 -8 -407 -2 -5 -20 -8
-39 -8 l-34 0 0 411 0 410 43 -3 42 -3 -4 -400z m788 23 c-1 -211 -4 -394 -8
-408 -5 -19 -14 -26 -39 -28 l-32 -3 0 410 0 411 40 0 40 0 -1 -382z m-619
-38 l0 -40 185 0 185 0 0 40 0 40 60 0 60 0 0 -74 0 -74 -282 -4 c-214 -2
-282 -6 -286 -15 -2 -7 -12 -13 -23 -13 -17 0 -19 8 -19 90 l0 90 60 0 60 0 0
-40z m774 24 c3 -9 6 -27 6 -40 l0 -24 170 0 170 0 0 -38 0 -39 -147 4 c-82 3
-182 0 -223 -5 -41 -5 -76 -9 -76 -8 -1 0 -5 38 -8 84 l-7 82 54 0 c41 0 56
-4 61 -16z"/>
<path d="M1740 5060 c0 -39 1 -40 35 -40 34 0 35 1 35 40 0 39 -1 40 -35 40
-34 0 -35 -1 -35 -40z"/>
<path d="M1880 5061 l0 -41 41 0 40 0 -3 38 c-3 35 -5 37 -40 40 l-38 3 0 -40z"/>
<path d="M1737 4950 c-10 -39 3 -60 38 -60 31 0 33 2 37 40 l4 40 -37 0 c-28
0 -38 -5 -42 -20z"/>
<path d="M1878 4953 c-2 -10 -2 -28 0 -40 4 -19 11 -23 44 -23 l39 0 -3 38
c-3 35 -5 37 -40 40 -28 2 -37 -1 -40 -15z"/>
<path d="M7742 5230 c0 -14 2 -19 5 -12 2 6 2 18 0 25 -3 6 -5 1 -5 -13z"/>
<path d="M8838 5242 c-15 -3 -18 -14 -17 -65 1 -46 3 -56 9 -37 l8 25 2 -25
c2 -22 3 -21 11 8 15 51 8 98 -13 94z"/>
<path d="M9120 5080 c0 -5 5 -10 10 -10 6 0 10 5 10 10 0 6 -4 10 -10 10 -5 0
-10 -4 -10 -10z"/>
<path d="M8510 4959 c0 -5 5 -9 10 -9 6 0 10 -6 10 -12 0 -7 20 -32 44 -56 34
-34 51 -43 80 -44 23 -1 41 4 47 13 13 21 11 26 -15 33 -14 3 -37 17 -53 30
-48 40 -123 68 -123 45z"/>
<path d="M8815 4958 c-2 -7 -5 -26 -7 -43 -3 -28 -6 -30 -45 -33 l-43 -3 0
-50 0 -49 -50 0 -50 0 0 -65 0 -65 50 0 c49 0 50 -1 50 -30 0 -29 -1 -30 -50
-30 -27 0 -50 -3 -50 -6 0 -17 37 -32 67 -27 30 5 33 3 33 -18 0 -13 3 -34 6
-46 6 -22 10 -23 135 -23 127 0 129 0 129 23 0 12 3 32 6 45 7 24 19 25 70 5
13 -5 15 -3 9 8 -7 10 -3 10 15 -3 16 -10 24 -24 23 -37 -2 -17 3 -21 25 -22
24 0 25 -1 7 -8 -17 -8 -16 -10 15 -18 38 -11 63 -7 54 9 -4 5 -15 7 -26 5
-15 -4 -18 -2 -14 10 7 17 -20 53 -39 53 -6 0 -18 11 -25 25 -11 21 -20 25
-62 25 l-49 0 3 33 c3 31 5 32 51 35 l47 3 0 60 0 59 -50 0 c-46 0 -50 2 -50
25 0 20 6 25 38 30 68 11 77 15 111 46 24 22 30 33 21 39 -10 6 -9 9 1 14 8 3
-4 4 -25 1 -22 -2 -50 -15 -65 -28 -14 -14 -37 -30 -50 -37 -20 -10 -25 -10
-33 4 -6 11 -23 16 -53 16 -44 0 -45 0 -51 40 -6 38 -9 40 -41 40 -18 0 -36
-6 -38 -12z"/>
<path d="M9207 4953 c-4 -3 -7 -11 -7 -17 0 -6 5 -5 12 2 6 6 9 14 7 17 -3 3
-9 2 -12 -2z"/>
<path d="M8362 4882 l3 -37 58 -3 c31 -1 57 1 57 4 0 14 -71 63 -99 69 -20 4
-22 0 -19 -33z"/>
<path d="M9329 4902 c-14 -9 -38 -29 -54 -44 -17 -16 -33 -28 -37 -28 -5 0 -8
-4 -8 -9 0 -15 45 -7 77 14 33 21 62 55 63 73 0 16 -9 14 -41 -6z"/>
<path d="M8250 4763 l0 -68 55 -1 55 -2 0 53 c0 29 3 60 6 69 5 14 -3 16 -55
16 l-61 0 0 -67z"/>
<path d="M8615 4529 c4 -12 2 -19 -6 -19 -7 0 -9 -3 -6 -7 7 -6 47 25 47 36 0
4 -9 7 -20 8 -16 1 -20 -2 -15 -18z"/>
<path d="M8997 4421 c7 -43 5 -41 66 -76 l48 -28 -7 39 c-10 56 -30 80 -74 92
l-38 9 5 -36z"/>
<path d="M8659 4443 c-30 -5 -39 -25 -39 -86 l0 -38 48 27 c26 15 48 28 48 28
1 1 4 18 8 39 7 40 6 41 -65 30z"/>
<path d="M9990 3265 l0 -55 -60 0 -60 0 0 -55 0 -55 48 0 c27 0 83 -3 125 -6
l77 -7 1 -61 c1 -49 3 -55 9 -31 6 24 8 26 9 8 1 -22 10 -27 66 -35 10 -2 22
-14 26 -28 4 -15 7 11 8 63 l1 88 -57 -2 -58 -3 -3 117 -3 117 -64 0 -65 0 0
-55z"/>
<path d="M9740 3038 l0 -63 60 0 60 0 0 63 0 62 -60 0 -60 0 0 -62z"/>
<path d="M5708 1643 c7 -3 16 -2 19 1 4 3 -2 6 -13 5 -11 0 -14 -3 -6 -6z"/>
<path d="M3608 973 c7 -3 16 -2 19 1 4 3 -2 6 -13 5 -11 0 -14 -3 -6 -6z"/>
<path d="M9043 253 l-53 -4 0 -40 0 -39 60 0 60 0 0 45 c0 25 -3 44 -7 43 -5
-1 -32 -3 -60 -5z"/>
</g>
</svg>
